<?xml version="1.0" standalone="no"?>
<!DOCTYPE svg PUBLIC "-//W3C//DTD SVG 1.1//EN" "http://www.w3.org/Graphics/SVG/1.1/DTD/svg11.dtd" >
<svg xmlns="http://www.w3.org/2000/svg">
<metadata>
<json>
{
	"fontFamily": "anou-cobra",
	"version": "Version 1.0",
	"fontId": "anou-cobra",
	"psName": "anou-cobra",
	"subFamily": "Regular",
	"fullName": "anou-cobra",
	"description": "Generated by IcoMoon"
}
</json>
</metadata>
<defs>
<font id="anou-cobra" horiz-adv-x="512">
<font-face units-per-em="512" ascent="480" descent="-32" />
<missing-glyph horiz-adv-x="512" />
<glyph unicode="&#x20;" d="" horiz-adv-x="256" />
<glyph unicode="&#xe600;" d="M437.024 405.024c48.352-48.352 74.976-112.64 74.976-181.024s-26.624-132.672-74.976-181.024c-48.352-48.352-112.64-74.976-181.024-74.976-68.384 0-132.672 26.624-181.024 74.976-48.352 48.352-74.976 112.64-74.976 181.024 0 68.384 26.624 132.672 74.976 181.024 48.352 48.352 112.64 74.976 181.024 74.976 68.384 0 132.672-26.624 181.024-74.976zM414.384 65.6c31.536 31.536 52.496 70.8 61.136 113.536-6.736-9.92-13.184-13.6-17.168 8.608-4.112 36.192-37.36 13.072-58.256 25.936-22-14.832-71.456 28.832-63.056-20.416 12.96-22.208 70 29.728 41.568-17.264-18.144-32.8-66.32-105.472-60.048-143.136 0.784-54.88-56.064-11.44-75.664 6.752-13.184 36.464-4.496 100.192-38.944 118.048-37.408 1.632-69.504 5.024-84 46.832-8.72 29.92 9.28 74.448 41.344 81.328 46.928 29.488 63.68-34.528 107.696-35.712 13.664 14.304 50.912 18.848 54 34.88-28.88 5.088 36.64 24.272-2.768 35.184-21.728-2.56-35.744-22.544-24.192-39.472-42.112-9.824-43.472 60.944-83.952 38.624-1.024-35.296-66.112-11.44-22.512-4.288 14.976 6.544-24.432 25.504-3.136 22.064 10.464 0.576 45.664 12.912 36.144 21.2 19.6 12.176 36.080-29.152 55.264 0.944 13.856 23.136-5.808 27.408-23.168 15.68-9.792 10.96 17.28 34.64 41.168 44.864 7.952 3.408 15.568 5.264 21.376 4.736 12.032-13.888 34.272-16.304 35.44 1.664-29.792 14.272-62.64 21.808-96.64 21.808-48.816 0-95.232-15.504-133.648-44.192 10.32-4.736 16.192-10.624 6.24-18.144-7.728-23.024-39.088-53.936-66.608-49.568-14.288-24.64-23.712-51.808-27.728-80.272 23.056-7.632 28.368-22.72 23.424-27.776-11.744-10.24-18.96-24.768-22.688-40.656 7.504-45.92 29.088-88.24 62.64-121.792 42.304-42.304 98.56-65.6 158.384-65.6 59.824 0 116.080 23.296 158.384 65.6z" />
<glyph unicode="&#xe601;" d="M381.1 470.2h-287.502v-0.697l-1.226 1.226-92.375-92.374 0.754-0.754h-0.751v-307.2h307.199v1.212l1.207-1.207 92.374 92.374-0.22 0.22h0.239v307.2h-19.699zM100.003 450.501h267.157l-72.9-72.901h-267.158l72.901 72.901zM288 89.6h-268.8v268.8h268.8v-268.8zM307.199 97.056v265.625l73.9 73.9v-265.624l-73.9-73.901zM246.557 16.831l-246.557 0.39v-12.775l246.557-0.284v-18.846l40.447 24.916-40.447 24.917zM287.004 10.232v-24.915h19.699v51.199h-19.699z" />
<glyph unicode="&#xe602;" d="M403.463 397.17l-69.149-153.491h-20.123l73.749 163.406h-113.867v-380.676c23.459-0.861 143.191-39.715 143.191-39.715l-0.001-18.694h-321.826v19.958c0 0 122.39 38.469 140.827 38.469l-0.001 380.658h-110.238l73.767-163.406h-20.123l-69.149 153.491-69.149-153.491h-20.123l74.189 164.322v18.951h123.782c0 24.797 16.623 45.048 36.013 45.048 20.508 0 36.013-21.406 36.013-45.048h126.055v-16.256l75.435-167.016h-20.123l-69.149 153.49zM201.057 224.967c0-49.355-34.235-96.805-90.518-96.805-55.018 0-90.518 47.449-90.518 96.805-0.020-0.074 181.036-0.074 181.036 0zM315.455 224.967c0-0.092 181.055-0.092 181.055 0 0-49.355-34.235-96.805-90.518-96.805-55.037 0-90.537 47.449-90.537 96.805z" />
<glyph unicode="&#xe603;" d="M366.864 224.288q0 7.712-5.136 12.864l-129.424 129.424q-5.136 5.136-12.864 5.136t-12.864-5.136l-129.424-129.424q-5.136-5.136-5.136-12.864t5.136-12.864l26-26q5.136-5.136 12.864-5.136t12.864 5.136l54 54v-143.424q0-7.424 5.424-12.864t12.864-5.424h36.576q7.424 0 12.864 5.424t5.424 12.864v143.424l54-54q5.424-5.424 12.864-5.424t12.864 5.424l26 26q5.136 5.136 5.136 12.864zM438.864 224q0-59.712-29.424-110.144t-79.856-79.856-110.144-29.424-110.144 29.424-79.856 79.856-29.424 110.144 29.424 110.144 79.856 79.856 110.144 29.424 110.144-29.424 79.856-79.856 29.424-110.144z" horiz-adv-x="432" />
<glyph unicode="&#xe604;" d="M282.777 172.55h29.995l-14.994 54.431zM448 336h-384c-17.664 0-32-14.336-32-32v-224c0-17.664 14.336-32 32-32h384c17.664 0 32 14.336 32 32v224c0 17.664-14.336 32-32 32zM160 259.008c19.328 0 35.008-20.592 35.008-46s-15.68-46-35.008-46-35.008 20.592-35.008 46 15.68 46 35.008 46zM90.672 112.832c0 0 3.792 30.432 12.416 36.176 8.608 5.744 33.44 9.568 33.44 9.568s16.096-17.2 22.944-17.2c6.832 0 22.928 17.2 22.928 17.2s24.832-3.809 33.456-9.568c10.128-6.752 12.656-36.176 12.656-36.176h-137.84zM345.482 122.792h-17.956c-0.781 0-1.010 0.24-1.177 0.74-0.158 0.52-10.455 34.406-10.455 34.406h-36.246c0 0-10.293-33.874-10.461-34.406-0.148-0.5-0.396-0.74-1.175-0.74h-17.968c-0.756 0-0.817 0.24-0.639 0.785 0.155 0.519 31.985 101.013 36.247 114.479 0.298 0.972 1.058 1.491 2.010 1.491h20.218c0.966 0 1.709-0.519 2.022-1.491 4.269-13.473 36.086-113.973 36.223-114.479 0.187-0.545 0.123-0.785-0.643-0.785zM424.369 116.591c-0.519-0.367-1.836-0.747-2.658 0.228-0.811 0.993-5.739 7.050-6.417 7.859-0.671 0.811-0.101 1.816 0.336 2.139 24.369 16.853 33.090 46.386 21.712 61.99-6.759-17.161-27.034-52.884-59.827-48.871-14.073 1.727-24.126 11.473-24.126 27.938 0 11.162 4.547 22.363 12.515 30.726 4.714 4.968 12.227 10.574 23.396 13.511l-0.367 20.924c0 0-29.129-5.031-30.324-5.236-1.202-0.209-1.766 0.291-1.938 1.107-0.189 0.816-1.964 11.229-2.16 12.15-0.206 0.927 0.681 1.335 1.557 1.484 0.87 0.148 32.618 5.632 32.618 5.632s-0.323 22.873-0.342 23.911c-0.019 1.038 0.582 1.528 1.67 1.541 1.090 0.025 9.348 0.152 10.638 0.171 1.285 0.019 2.001-0.332 2.013-1.626 0.006-1.297 0.127-21.554 0.127-21.554s32.627 4.601 33.703 4.788c1.076 0.19 1.854 0.221 2.146-1.126 0.222-0.965 1.715-8.977 1.955-10.128 0.24-1.152 0.051-2.177-1.145-2.386-1.19-0.206-36.533-6.31-36.533-6.31l0.152-21.379c0.886 0.041 1.798 0.072 2.721 0.072 23.794 0 41.867-10.562 48.334-28.274l-0.012-0.018c8.205-22.48-3.723-51.355-29.744-69.263zM425.337 197.502c-4.057 2.25-11.542 3.753-19.561 3.753-0.879 0-1.74-0.063-2.606-0.102l-0.469-42.601c12.024 10.834 26.693 36.704 22.636 38.95zM376.825 190.25c-5.683-5.974-9.067-14.339-9.067-22.352 0-5.593-0.228-13.808 9.776-15.066h-0.006c4.626-0.576 8.916 0 12.884 1.36l-0.848 44.342c-4.961-1.843-9.251-4.62-12.739-8.284z" />
<glyph unicode="&#xe605;" d="M80.231 303.616c23.91 18.56 43.725 5.786 70.169-24.832 2.995-3.43 6.989 0.589 9.242 2.56 2.253 1.997 37.171 33.382 38.861 34.841 1.715 1.51 3.763 4.327 1.049 7.475s-12.647 16-19.021 24.32c-46.285 60.544 126.618 101.606 100.045 102.246-13.491 0.359-67.738 0.973-75.827 0.128-32.845-3.481-74.087-34.176-94.848-48.461-27.136-18.663-37.299-29.491-38.963-31.001-7.68-6.733-1.229-22.195-15.155-34.407-14.72-12.902-23.885-3.149-32.41-10.624-4.25-3.738-16.051-12.57-19.456-15.565-3.379-2.97-3.994-8.013-0.538-12.058 0 0 32.333-35.738 35.072-38.887 2.714-3.149 10.009-5.811 14.541-1.817 4.531 3.968 16.154 14.183 18.125 15.923 1.997 1.715-1.28 22.093 9.114 30.157zM226.381 290.406c-3.072 3.559-6.861 3.635-10.163 0.717l-36.736-32.026c-2.867-2.56-3.251-7.27-0.666-10.24l212.327-241.613c4.941-5.735 13.543-6.323 19.251-1.357l24.858 20.787c5.658 4.966 6.247 13.671 1.305 19.379l-210.176 244.352zM509.491 393.241c-1.894 12.647-8.448 9.984-11.853 4.608-3.353-5.351-18.457-28.186-24.653-38.503-6.144-10.291-21.248-30.489-49.51-10.547-29.389 20.787-19.149 35.303-14.055 45.056 5.146 9.805 20.941 37.248 23.245 40.704 2.253 3.456-0.409 13.491-9.498 9.293-9.139-4.224-64.589-26.266-72.295-57.856-7.859-32.179 6.605-60.902-21.76-89.447l-34.355-35.84 34.509-40.141 42.342 40.218c10.112 10.137 31.642 19.993 51.149 15.565 41.805-9.472 64.589 6.247 78.361 32.179 12.339 23.219 10.291 72.064 8.371 84.71zM70.144 43.495c-5.325-5.376-5.325-14.080 0-19.43l24.346-23.808c5.325-5.351 13.773-3.098 19.097 2.253l125.619 123.52-38.502 43.853-130.56-126.387z" />
<glyph unicode="&#xe606;" d="M1492.918 257.872l-80 192.048c-11.679 18.704-32.191 30.080-54.255 30.080l-1294.663 0.025c-35.344 0-64-28.656-64-64v-384.048c0-35.344 28.656-64 64-64l1294.663-0.022c22.063 0 42.563 11.376 54.256 30.096l80 192c12.992 20.717 12.992 47.069-0.001 67.821zM1380.276 176c-26.527 0-48 21.486-48 48 0 26.512 21.473 48 48 48 26.495 0 48-21.489 48-48 0-26.496-21.505-48-48-48z" horiz-adv-x="1503" />
<glyph unicode="&#xe607;" d="M333.783 245.995c0.005 0 0.005 0 0 0l37.238 12.754c8.678 2.974 18.074-0.482 20.854-7.675l3.758-9.758c2.78-7.194-2.053-15.524-10.731-18.493l-37.233-12.749c0 0 0 0-0.005 0-14.613-5.012-29.686-1.009-33.505 8.858-3.825 9.892 5.017 22.062 19.625 27.065zM311.895 168.31c3.83-9.892 18.893-13.87 33.5-8.868 0.010 0 0.010 0 0.010 0l28.313 9.702c8.688 2.98 13.522 11.3 10.736 18.488l-3.763 9.748c-2.78 7.188-12.155 10.649-20.839 7.68l-28.334-9.707c0 0 0 0-0.005 0-14.613-5.002-23.434-17.173-19.62-27.044zM309.622 117.658c3.815-9.872 18.893-13.849 33.495-8.853 0 0 0 0 0.010 0l19.41 6.64c8.668 2.98 13.517 11.3 10.736 18.488l-3.769 9.748c-2.78 7.199-12.165 10.639-20.839 7.659l-19.42-6.651c-0.005 0-0.005 0-0.005 0-14.618-4.992-23.445-17.162-19.62-27.034zM235.018 402.186c2.719 1.92 5.775 3.425 9.031 4.454 3.267 1.040 16.999 1.582 20.659 1.582 3.692 0 17.408-0.548 20.711-1.587 3.251-1.019 6.293-2.544 9.037-4.454 3.707-2.57 8.935-1.853 11.709 1.628 2.755 3.528 1.961 8.423-1.767 11.024-4.101 2.867-8.704 5.177-13.645 6.769-4.976 1.536-20.536 2.416-26.050 2.416-5.442 0.005-21.023-0.88-25.979-2.411-4.962-1.592-9.59-3.886-13.675-6.774-3.727-2.601-4.506-7.495-1.746-11.008 2.76-3.472 7.962-4.194 11.714-1.639zM219.397 423.572c10.214 5.898 32.435 9.334 45.302 9.334 12.923 0 35.118-3.435 45.353-9.334 3.911-2.288 9.088-1.147 11.5 2.555 2.447 3.707 1.224 8.566-2.734 10.849-12.754 7.399-38.041 11.699-54.123 11.663-16.041 0.036-41.339-4.27-54.113-11.663-3.947-2.284-5.136-7.137-2.724-10.854 2.452-3.692 7.588-4.839 11.541-2.55zM203.494 446.536c14.992 8.222 42.588 12.953 61.21 12.948 18.647 0.005 46.285-4.726 61.276-12.953 3.958-2.186 9.098-0.927 11.423 2.816 2.375 3.774 1.003 8.606-2.969 10.798-17.469 9.579-48.067 15.104-69.734 15.099-21.642 0-52.203-5.519-69.642-15.104-4.014-2.192-5.345-6.999-3.016-10.793 2.34-3.743 7.465-5.007 11.453-2.811zM380.354 311.798v0l-14.909-5.11-0.092-40.694 28.877 9.887c0.015 0 0.015 0 0.015 0 14.613 5.007 23.434 17.183 19.605 27.065-3.804 9.877-18.882 13.854-33.495 8.853zM213.084 157.281c-3.554 9.19-8.519 17.608-14.469 25.139l103.347-0.159c-2.186-5.658-2.381-11.699-0.164-17.418 2.58-6.681 7.962-11.678 14.894-14.649-12.201-6.969-19.349-18.069-18.678-29.041l-78.613 0.108c0.292 11.796-1.679 24.018-6.318 36.019zM264.002 138.332c9.093-0.010 16.486 6.912 16.512 15.467 0.015 8.571-7.353 15.509-16.44 15.529-9.113 0.031-16.507-6.902-16.528-15.462-0.016-8.566 7.352-15.519 16.456-15.534zM326.113 383.36l-112.952 0.179c-23.823 0.031-38.999-14.454-39.040-32.358l-0.051-22.425c7.787-3.83 15.816-9.764 20.828-18.135l0.077 36.905 138.921-0.22-0.195-90.567 20.894 7.158 0.19 86.974c0.041 17.904-15.074 32.461-28.672 32.491zM295.931 111.022l-93.348 0.138c7.27 13.609 5.954 28.298 0.394 42.66-3.87 10.010-9.436 18.908-16.143 26.491 0.865 36.629 2.309 99.533 2.386 111.867 0.149 24.837-31.222 31.611-31.222 31.611l-25.636-131.43c-6.502-34.918-9.114-52.669 5.243-86.892 0 0-14.198-35.082-32.671-57.252l103.086-75.469c17.49 32.041 38.584 46.838 60.754 69.258 53.99 26.88 75.786 56.612 75.786 56.612-18.329-5.397-36.373-0.159-48.63 12.406zM233.344 254.367c0 1.956-0.717 3.65-2.14 5.079-1.434 1.428-3.123 2.145-5.084 2.145s-3.65-0.717-5.084-2.145c-1.429-1.429-2.14-3.123-2.14-5.079 0-1.956 0.712-3.645 2.14-5.079 1.434-1.434 3.123-2.145 5.084-2.145s3.645 0.712 5.084 2.145c1.423 1.434 2.14 3.123 2.14 5.079zM211.661 283.269h21.678v14.454h-8.919c-0.492 0-0.901-0.169-1.239-0.512l-11.008-11.003c-0.333-0.338-0.512-0.752-0.512-1.244v-1.695zM304.399 254.367c0 1.956-0.717 3.65-2.146 5.079-1.423 1.428-3.118 2.145-5.079 2.145s-3.651-0.717-5.074-2.145c-1.433-1.429-2.156-3.123-2.156-5.079 0-1.956 0.722-3.645 2.156-5.079 1.423-1.434 3.113-2.145 5.074-2.145s3.656 0.712 5.079 2.145c1.428 1.434 2.146 3.123 2.146 5.079zM318.843 315.781v-57.805c0-0.563-0.067-1.060-0.226-1.495-0.144-0.435-0.394-0.778-0.758-1.044-0.353-0.261-0.666-0.476-0.932-0.65-0.261-0.169-0.702-0.281-1.326-0.338-0.62-0.056-1.045-0.092-1.275-0.113-0.226-0.016-0.702-0.016-1.433 0-0.732 0.020-1.157 0.030-1.264 0.030 0-3.988-1.413-7.393-4.24-10.214-2.816-2.826-6.231-4.234-10.214-4.234-3.988 0-7.388 1.408-10.214 4.234-2.821 2.821-3.988 6.323-4.234 10.214h-42.153c-0.185-3.569-1.408-7.393-4.234-10.214-2.821-2.826-6.226-4.234-10.22-4.234s-7.399 1.408-10.22 4.234c-2.826 2.821-4.234 6.226-4.234 10.214h-3.609c-0.107 0-0.532-0.005-1.27-0.030-0.732-0.016-1.214-0.016-1.439 0-0.226 0.020-0.65 0.056-1.27 0.113-0.625 0.056-1.065 0.169-1.326 0.338-0.266 0.174-0.573 0.389-0.932 0.65-0.358 0.266-0.614 0.609-0.763 1.044-0.154 0.43-0.226 0.927-0.226 1.495 0 0.978 0.358 1.828 1.070 2.544 0.717 0.717 1.561 1.070 2.544 1.070v18.063c0 0.302-0.010 0.957-0.030 1.976-0.020 1.014-0.020 1.731 0 2.145s0.071 1.065 0.138 1.951c0.077 0.88 0.2 1.577 0.369 2.084 0.169 0.512 0.43 1.080 0.788 1.72 0.358 0.64 0.784 1.203 1.275 1.695l11.177 11.172c0.717 0.717 1.664 1.316 2.852 1.813 1.183 0.487 2.284 0.732 3.298 0.732h9.037v10.839c0 0.978 0.358 1.822 1.075 2.545 0.712 0.712 1.561 1.070 7.655 1.070h78.285c-4.142 0-3.303-0.358-2.58-1.070 0.707-0.717 1.060-1.561 1.060-2.545z" />
<glyph unicode="&#xe608;" d="M333.783 245.995c0.005 0 0.005 0 0 0l37.238 12.754c8.678 2.974 18.074-0.482 20.854-7.675l3.758-9.758c2.78-7.194-2.053-15.524-10.731-18.493l-37.233-12.749c0 0 0 0-0.005 0-14.613-5.012-29.686-1.009-33.505 8.858-3.825 9.892 5.017 22.062 19.625 27.065zM311.895 168.31c3.83-9.892 18.893-13.87 33.5-8.868 0.010 0 0.010 0 0.010 0l28.313 9.702c8.688 2.98 13.522 11.3 10.736 18.488l-3.763 9.748c-2.78 7.188-12.155 10.649-20.839 7.68l-28.334-9.707c0 0 0 0-0.005 0-14.613-5.002-23.434-17.173-19.62-27.044zM309.622 117.658c3.815-9.872 18.893-13.849 33.495-8.853 0 0 0 0 0.010 0l19.41 6.64c8.668 2.98 13.517 11.3 10.736 18.488l-3.769 9.748c-2.78 7.199-12.165 10.639-20.839 7.659l-19.42-6.651c-0.005 0-0.005 0-0.005 0-14.618-4.992-23.445-17.162-19.62-27.034zM235.018 402.186c2.719 1.92 5.775 3.425 9.031 4.454 3.267 1.040 16.999 1.582 20.659 1.582 3.692 0 17.408-0.548 20.711-1.587 3.251-1.019 6.293-2.544 9.037-4.454 3.707-2.57 8.935-1.853 11.709 1.628 2.755 3.528 1.961 8.423-1.767 11.024-4.101 2.867-8.704 5.177-13.645 6.769-4.976 1.536-20.536 2.416-26.050 2.416-5.442 0.005-21.023-0.88-25.979-2.411-4.962-1.592-9.59-3.886-13.675-6.774-3.727-2.601-4.506-7.495-1.746-11.008 2.76-3.472 7.962-4.194 11.714-1.639zM219.397 423.572c10.214 5.898 32.435 9.334 45.302 9.334 12.923 0 35.118-3.435 45.353-9.334 3.911-2.288 9.088-1.147 11.5 2.555 2.447 3.707 1.224 8.566-2.734 10.849-12.754 7.399-38.041 11.699-54.123 11.663-16.041 0.036-41.339-4.27-54.113-11.663-3.947-2.284-5.136-7.137-2.724-10.854 2.452-3.692 7.588-4.839 11.541-2.55zM203.494 446.536c14.992 8.222 42.588 12.953 61.21 12.948 18.647 0.005 46.285-4.726 61.276-12.953 3.958-2.186 9.098-0.927 11.423 2.816 2.375 3.774 1.003 8.606-2.969 10.798-17.469 9.579-48.067 15.104-69.734 15.099-21.642 0-52.203-5.519-69.642-15.104-4.014-2.192-5.345-6.999-3.016-10.793 2.34-3.743 7.465-5.007 11.453-2.811zM380.354 311.798v0l-14.909-5.11-0.092-40.694 28.877 9.887c0.015 0 0.015 0 0.015 0 14.613 5.007 23.434 17.183 19.605 27.065-3.804 9.877-18.882 13.854-33.495 8.853zM213.084 157.281c-3.554 9.19-8.519 17.608-14.469 25.139l103.347-0.159c-2.186-5.658-2.381-11.699-0.164-17.418 2.58-6.681 7.962-11.678 14.894-14.649-12.201-6.969-19.349-18.069-18.678-29.041l-78.613 0.108c0.292 11.796-1.679 24.018-6.318 36.019zM264.002 138.332c9.093-0.010 16.486 6.912 16.512 15.467 0.015 8.571-7.353 15.509-16.44 15.529-9.113 0.031-16.507-6.902-16.528-15.462-0.016-8.566 7.352-15.519 16.456-15.534zM326.113 383.36l-112.952 0.179c-23.823 0.031-38.999-14.454-39.040-32.358l-0.051-22.425c7.787-3.83 15.816-9.764 20.828-18.135l0.077 36.905 138.921-0.22-0.195-90.567 20.894 7.158 0.19 86.974c0.041 17.904-15.074 32.461-28.672 32.491zM295.931 111.022l-93.348 0.138c7.27 13.609 5.954 28.298 0.394 42.66-3.87 10.010-9.436 18.908-16.143 26.491 0.865 36.629 2.309 99.533 2.386 111.867 0.149 24.837-31.222 31.611-31.222 31.611l-25.636-131.43c-6.502-34.918-9.114-52.669 5.243-86.892 0 0-14.198-35.082-32.671-57.252l103.086-75.469c17.49 32.041 38.584 46.838 60.754 69.258 53.99 26.88 75.786 56.612 75.786 56.612-18.329-5.397-36.373-0.159-48.63 12.406z" />
<glyph unicode="&#xe609;" d="M182.857 77.714q0 14.857-10.857 25.714t-25.714 10.857-25.715-10.857-10.857-25.714 10.857-25.714 25.715-10.857 25.714 10.857 10.857 25.714zM73.143 224h109.715v73.143h-45.143q-3.714 0-6.286-2.572l-55.715-55.714q-2.572-2.571-2.572-6.286v-8.572zM438.857 77.714q0 14.857-10.857 25.714t-25.714 10.857-25.714-10.857-10.857-25.714 10.857-25.714 25.714-10.857 25.714 10.857 10.857 25.714zM512 388.572v-292.572q0-4.286-1.143-7.572t-3.857-5.286-4.714-3.286-6.714-1.714-6.428-0.572-7.286 0-6.428 0.143q0-30.286-21.428-51.714t-51.714-21.428-51.714 21.428-21.428 51.714h-109.714q0-30.286-21.428-51.714t-51.714-21.428-51.715 21.428-21.428 51.714h-18.285q-0.857 0-6.428-0.143t-7.285 0-6.428 0.572-6.715 1.714-4.715 3.286-3.857 5.286-1.143 7.572q0 7.428 5.428 12.857t12.857 5.428v91.428q0 2.286-0.143 10t0 10.857 0.715 9.857 1.857 10.572 4 8.714 6.428 8.572l56.572 56.572q5.428 5.428 14.428 9.143t16.715 3.714h45.715v54.857q0 7.428 5.428 12.857t12.857 5.428h292.572q7.428 0 12.857-5.428t5.428-12.857z" />
<glyph unicode="&#xe60a;" d="M481.601 367.788h-364.801c-16.781 0-30.4-13.619-30.4-30.4v-212.8c0-16.781 13.619-30.4 30.4-30.4h364.8c16.78 0 30.399 13.619 30.399 30.4v212.8c0.001 16.78-13.618 30.4-30.398 30.4zM208 294.645c18.362 0 33.258-19.563 33.258-43.7s-14.896-43.7-33.258-43.7c-18.361 0-33.257 19.563-33.257 43.7 0 24.138 14.896 43.7 33.257 43.7zM142.139 155.777c0 0 3.602 28.91 11.795 34.367 8.178 5.457 31.768 9.090 31.768 9.090s15.292-16.34 21.797-16.34c6.491 0 21.782 16.34 21.782 16.34s23.59-3.617 31.783-9.090c9.621-6.414 12.021-34.367 12.021-34.367h-130.946zM288.139 226.782h-0.48c-4.293 0-7.779 3.476-7.779 7.77v24.187c0 4.295 3.484 7.777 7.779 7.777h0.48v-39.734zM320.935 212.645h-14.769c-7.368 0-13.313 5.956-13.313 13.306v41.389c0 7.351 5.945 13.305 13.313 13.305h8.89l7.098-67.943c-0.396-0.032-0.809-0.057-1.219-0.057zM456.423 181.973l-1.438-12.646c-0.128-0.956-1.013-1.632-1.968-1.503-0.965 0.131-1.637 1.008-1.508 1.971l1.395 11.813-3.324-0.344-1.482-12.804c-0.129-0.961-1.010-1.638-1.973-1.506-0.96 0.129-1.626 1.010-1.502 1.973l1.411 11.968-3.188-0.336-1.459-12.691c-0.136-0.963-1.013-1.633-1.974-1.51-0.96 0.133-1.637 1.019-1.506 1.974l1.396 11.862-3.181-0.336-1.457-12.668c-0.131-0.963-1.010-1.638-1.972-1.506-0.961 0.129-1.635 1.008-1.506 1.969l1.396 11.83-3.155-0.323-1.479-12.818c-0.128-0.957-1.008-1.629-1.965-1.504-0.961 0.131-1.639 1.013-1.51 1.974l1.41 11.981-3.179-0.334-1.478-12.797c-0.129-0.961-1.018-1.632-1.971-1.505-0.961 0.136-1.638 1.017-1.504 1.974l1.404 11.963-3.173-0.334-1.476-12.772c-0.135-0.963-1.014-1.629-1.974-1.502-0.958 0.129-1.63 1.004-1.504 1.967l1.407 11.943-3.171-0.336-1.48-12.789c-0.129-0.966-1.010-1.638-1.964-1.511-0.969 0.134-1.637 1.011-1.506 1.974l1.398 11.957-3.186-0.332-1.458-12.666c-0.131-0.959-1.019-1.631-1.973-1.508-0.96 0.135-1.63 1.014-1.509 1.971l1.396 11.836-3.183-0.33-1.454-12.571c-0.132-0.961-1.013-1.629-1.968-1.506-0.965 0.131-1.633 1.010-1.508 1.971l1.381 11.729-3.135-0.325-1.488-12.88c-0.133-0.958-1.012-1.631-1.969-1.51-0.957 0.133-1.634 1.011-1.508 1.974l1.42 12.040 0.034 0.011-3.243-0.338-1.453-12.582c-0.125-0.963-1.006-1.635-1.968-1.504-0.962 0.127-1.633 1.008-1.507 1.974l1.384 11.741-3.157-0.33-1.468-12.69c-0.132-0.963-1.018-1.629-1.974-1.508-0.96 0.133-1.635 1.012-1.51 1.976l1.402 11.853-3.16-0.326-1.479-12.795c-0.13-0.961-1.012-1.634-1.966-1.502-0.962 0.12-1.64 1.012-1.509 1.967l1.41 11.961-3.188-0.33-1.467-12.701c-0.133-0.961-1.012-1.631-1.974-1.508-0.962 0.13-1.631 1.011-1.508 1.972l1.4 11.864-3.21-0.334-1.435-12.399c-0.13-0.961-1.011-1.635-1.965-1.508-0.962 0.127-1.639 1.017-1.506 1.978l1.358 11.563-3.139-0.335-1.469-12.71c-0.135-0.961-1.016-1.634-1.968-1.503-0.96 0.125-1.638 1.006-1.509 1.967l1.398 11.879-3.255-0.338-1.384-12.005c-0.133-0.961-1.012-1.634-1.973-1.503-0.961 0.125-1.631 1.006-1.504 1.967l1.313 11.17-3.101-0.322-1.459-11.312c-0.127-0.961-1.008-1.634-1.967-1.503-0.957 0.125-1.633 1.006-1.502 1.967l1.395 10.48-0.032-0.008c0 0 3.472 13.002-0.649 31.14-7.92 34.851-12.209 85.987-9.898 87.909 4.596 3.821 123.057 4.679 126.877 1.625 3.716-2.978 8.099-103.567 8.324-107.498h0.007l-0.007-0.008c0.010-0.102 0.010-0.164 0.010-0.164h-0.017v-0.008h0.020zM30.4 77.638v205.675c-16.781 0-30.4-13.619-30.4-30.4v-212.8c0-16.78 13.619-30.399 30.4-30.399h364.8c16.78 0 30.396 13.619 30.396 30.399l-355.91 0.305c-24.698 0.011-39.265 17.269-39.286 37.22zM73.353 118.639v205.674c-16.781 0-30.4-13.619-30.4-30.4v-212.8c0-16.78 13.619-30.399 30.4-30.399h364.8c16.777 0 30.396 13.619 30.396 30.399l-355.91 0.305c-24.698 0.011-39.265 17.269-39.286 37.221z" />
<glyph unicode="&#xe60b;" d="M108.864 131.295h-54.432v-54.431h-54.432v-54.433h54.432v-54.431h54.432v54.431h54.435v54.433h-54.435zM481.601 367.788h-322.801c-16.781 0-30.4-13.619-30.4-30.4v-212.8c0-16.781 13.619-30.4 30.4-30.4h322.8c16.78 0 30.399 13.619 30.399 30.4v212.8c0.001 16.78-13.618 30.4-30.398 30.4zM238 294.645c18.361 0 33.258-19.563 33.258-43.7s-14.896-43.7-33.258-43.7-33.257 19.563-33.257 43.7c0 24.138 14.896 43.7 33.257 43.7zM172.139 155.777c0 0 3.602 28.91 11.795 34.367 8.178 5.457 31.768 9.090 31.768 9.090s15.292-16.34 21.796-16.34c6.491 0 21.782 16.34 21.782 16.34s23.591-3.617 31.782-9.090c9.623-6.414 12.021-34.367 12.021-34.367h-130.944zM308.139 226.782h-0.48c-4.293 0-7.779 3.476-7.779 7.77v24.187c0 4.295 3.484 7.777 7.779 7.777h0.48v-39.734zM340.935 212.645h-14.769c-7.368 0-13.313 5.956-13.313 13.306v41.389c0 7.351 5.945 13.305 13.313 13.305h8.89l7.098-67.943c-0.396-0.032-0.809-0.057-1.219-0.057zM476.423 181.977v-0.004l-1.438-12.646c-0.128-0.956-1.012-1.631-1.967-1.503-0.965 0.131-1.637 1.008-1.508 1.971l1.394 11.813-3.324-0.344-1.482-12.804c-0.129-0.961-1.010-1.638-1.973-1.506-0.96 0.129-1.626 1.010-1.502 1.973l1.411 11.968-3.188-0.336-1.459-12.692c-0.136-0.962-1.013-1.632-1.974-1.509-0.96 0.132-1.637 1.018-1.506 1.973l1.396 11.863-3.181-0.336-1.457-12.668c-0.131-0.963-1.010-1.638-1.972-1.506-0.961 0.129-1.634 1.008-1.506 1.969l1.396 11.83-3.155-0.324-1.479-12.818c-0.128-0.957-1.008-1.629-1.965-1.504-0.961 0.131-1.638 1.012-1.509 1.973l1.41 11.982-3.179-0.334-1.478-12.797c-0.128-0.961-1.017-1.631-1.97-1.504-0.961 0.135-1.638 1.016-1.504 1.973l1.404 11.963-3.173-0.334-1.475-12.773c-0.135-0.963-1.014-1.629-1.974-1.502-0.958 0.129-1.63 1.004-1.504 1.967l1.407 11.943-3.17-0.336-1.481-12.789c-0.129-0.965-1.010-1.637-1.964-1.51-0.969 0.133-1.637 1.010-1.506 1.973l1.399 11.957-3.186-0.332-1.458-12.666c-0.131-0.959-1.018-1.631-1.972-1.508-0.96 0.135-1.63 1.014-1.509 1.971l1.395 11.836-3.182-0.33-1.454-12.571c-0.132-0.961-1.013-1.629-1.968-1.506-0.965 0.131-1.633 1.010-1.508 1.971l1.381 11.729-3.135-0.325-1.488-12.88c-0.133-0.958-1.012-1.631-1.969-1.51-0.957 0.133-1.634 1.011-1.508 1.974l1.42 12.040 0.034 0.011-3.243-0.338-1.453-12.582c-0.125-0.963-1.006-1.635-1.968-1.504-0.962 0.127-1.633 1.008-1.507 1.974l1.384 11.741-3.157-0.33-1.468-12.69c-0.132-0.963-1.017-1.629-1.973-1.508-0.96 0.133-1.635 1.012-1.51 1.975l1.402 11.852-3.16-0.326-1.479-12.795c-0.129-0.961-1.011-1.633-1.965-1.502-0.962 0.121-1.64 1.012-1.509 1.967l1.41 11.961-3.188-0.33-1.467-12.701c-0.133-0.961-1.012-1.631-1.974-1.508-0.962 0.13-1.631 1.011-1.508 1.972l1.401 11.864-3.21-0.334-1.435-12.399c-0.13-0.961-1.011-1.635-1.965-1.508-0.962 0.127-1.638 1.017-1.506 1.978l1.359 11.563-3.139-0.335-1.469-12.71c-0.134-0.961-1.015-1.634-1.967-1.503-0.96 0.125-1.638 1.006-1.509 1.967l1.398 11.879-3.255-0.338-1.383-12.005c-0.133-0.961-1.012-1.634-1.973-1.503-0.961 0.125-1.631 1.006-1.504 1.967l1.313 11.17-3.101-0.322-1.459-11.312c-0.127-0.961-1.008-1.634-1.967-1.503-0.957 0.125-1.633 1.006-1.502 1.967l1.395 10.48-0.032-0.008c0 0 3.471 13.002-0.65 31.14-7.92 34.851-12.209 85.987-9.898 87.909 4.595 3.821 123.056 4.679 126.877 1.625 3.716-2.978 8.098-103.567 8.324-107.498h0.007l-0.007-0.008c0.010-0.101 0.010-0.164 0.010-0.164h-0.007z" />
<glyph unicode="&#xe60c;" d="M448 336h-384c-17.664 0-32-14.336-32-32v-224c0-17.664 14.336-32 32-32h384c17.664 0 32 14.336 32 32v224c0 17.664-14.336 32-32 32zM160 259.008c19.328 0 35.008-20.592 35.008-46s-15.68-46-35.008-46-35.008 20.592-35.008 46 15.68 46 35.008 46zM90.672 112.832c0 0 3.792 30.432 12.416 36.176 8.608 5.744 33.44 9.568 33.44 9.568s16.096-17.2 22.944-17.2c6.832 0 22.928 17.2 22.928 17.2s24.832-3.809 33.456-9.568c10.128-6.752 12.656-36.176 12.656-36.176h-137.84zM253.139 190.782h-0.48c-4.293 0-7.779 3.476-7.779 7.77v24.187c0 4.295 3.484 7.777 7.779 7.777h0.48v-39.734zM285.935 176.645h-14.769c-7.368 0-13.313 5.956-13.313 13.306v41.389c0 7.351 5.945 13.305 13.313 13.305h8.89l7.098-67.943c-0.396-0.032-0.809-0.057-1.219-0.057zM421.423 144.977v-0.004l-1.438-12.646c-0.128-0.956-1.012-1.631-1.967-1.503-0.965 0.131-1.637 1.008-1.508 1.971l1.394 11.813-3.324-0.344-1.482-12.804c-0.129-0.961-1.010-1.638-1.973-1.506-0.96 0.129-1.626 1.010-1.502 1.973l1.411 11.968-3.188-0.336-1.459-12.692c-0.136-0.962-1.013-1.632-1.974-1.509-0.96 0.132-1.637 1.018-1.506 1.973l1.396 11.863-3.181-0.336-1.457-12.668c-0.131-0.963-1.010-1.638-1.972-1.506-0.961 0.129-1.634 1.008-1.506 1.969l1.396 11.83-3.155-0.324-1.479-12.818c-0.128-0.957-1.008-1.629-1.965-1.504-0.961 0.131-1.638 1.012-1.509 1.973l1.41 11.982-3.179-0.334-1.478-12.797c-0.128-0.961-1.017-1.631-1.97-1.504-0.961 0.135-1.638 1.016-1.504 1.973l1.404 11.963-3.173-0.334-1.475-12.773c-0.135-0.963-1.014-1.629-1.974-1.502-0.958 0.129-1.63 1.004-1.504 1.967l1.407 11.943-3.17-0.336-1.481-12.789c-0.129-0.965-1.010-1.637-1.964-1.51-0.969 0.133-1.637 1.010-1.506 1.973l1.399 11.957-3.186-0.332-1.458-12.666c-0.131-0.959-1.018-1.631-1.972-1.508-0.96 0.135-1.63 1.014-1.509 1.971l1.395 11.836-3.182-0.33-1.454-12.571c-0.132-0.961-1.013-1.629-1.968-1.506-0.965 0.131-1.633 1.010-1.508 1.971l1.381 11.729-3.135-0.325-1.488-12.88c-0.133-0.958-1.012-1.631-1.969-1.51-0.957 0.133-1.634 1.011-1.508 1.974l1.42 12.040 0.034 0.011-3.243-0.338-1.453-12.582c-0.125-0.963-1.006-1.635-1.968-1.504-0.962 0.127-1.633 1.008-1.507 1.974l1.384 11.741-3.157-0.33-1.468-12.69c-0.132-0.963-1.017-1.629-1.973-1.508-0.96 0.133-1.635 1.012-1.51 1.975l1.402 11.852-3.16-0.326-1.479-12.795c-0.129-0.961-1.011-1.633-1.965-1.502-0.962 0.121-1.64 1.012-1.509 1.967l1.41 11.961-3.188-0.33-1.467-12.701c-0.133-0.961-1.012-1.631-1.974-1.508-0.962 0.13-1.631 1.011-1.508 1.972l1.401 11.864-3.21-0.334-1.435-12.399c-0.13-0.961-1.011-1.635-1.965-1.508-0.962 0.127-1.638 1.017-1.506 1.978l1.359 11.563-3.139-0.335-1.469-12.71c-0.134-0.961-1.015-1.634-1.967-1.503-0.96 0.125-1.638 1.006-1.509 1.967l1.398 11.879-3.255-0.338-1.384-12.005c-0.131-0.961-1.010-1.634-1.971-1.503-0.962 0.125-1.632 1.006-1.505 1.967l1.313 11.17-3.1-0.322-1.459-11.312c-0.128-0.961-1.009-1.634-1.968-1.503-0.957 0.125-1.633 1.006-1.502 1.967l1.396 10.48-0.033-0.008c0 0 3.471 13.002-0.65 31.14-7.92 34.851-12.209 85.987-9.898 87.909 4.595 3.821 123.056 4.679 126.877 1.625 3.716-2.978 8.098-103.567 8.324-107.498h0.007l-0.007-0.008c0.010-0.101 0.010-0.164 0.010-0.164h-0.007z" />
<glyph unicode="&#xe60d;" d="M256-32c141.385 0 256 114.615 256 256s-114.615 256-256 256-256-114.615-256-256 114.615-256 256-256zM256 432c114.875 0 208-93.125 208-208s-93.125-208-208-208-208 93.125-208 208 93.125 208 208 208zM128 320c0 17.673 14.327 32 32 32s32-14.327 32-32c0-17.673-14.327-32-32-32-17.673 0-32 14.327-32 32zM320 320c0 17.673 14.327 32 32 32s32-14.327 32-32c0-17.673-14.327-32-32-32-17.673 0-32 14.327-32 32zM159.951 89.63l-41.164 24.698c27.981 46.535 78.958 77.672 137.213 77.672 58.254 0 109.231-31.137 137.213-77.672l-41.164-24.698c-19.587 32.574-55.271 54.37-96.049 54.37-40.779 0-76.462-21.796-96.049-54.37z" />
<glyph unicode="&#xe60e;" d="M352 480c-88.368 0-160-71.632-160-160 0-10.016 0.928-19.808 2.688-29.312l-194.688-194.688v-96c0-17.68 14.32-32 32-32h32v32h64v64h64v64h64l41.536 41.52c16.992-6.16 35.344-9.52 54.464-9.52 88.368 0 160 71.632 160 160s-71.632 160-160 160zM399.936 319.936c-26.512 0-48 21.488-48 48s21.488 48 48 48c26.496 0 48-21.488 48-48 0-26.512-21.504-48-48-48zM419.872-27.392c0-1.232-0.448-2.32-1.392-3.216-0.896-0.944-1.984-1.392-3.232-1.392h-138.224c-0.784 0-1.424 0.112-1.952 0.304-0.512 0.192-0.976 0.528-1.312 1.008-0.336 0.48-0.592 0.864-0.784 1.12-0.192 0.304-0.336 0.864-0.448 1.68-0.080 0.8-0.16 1.36-0.16 1.664v86.384h-27.6c-2.512 0-4.688 0.912-6.528 2.704-1.808 1.872-2.704 4.016-2.704 6.528 0 2.288 0.672 4.272 2.144 5.888l46.080 55.312c1.792 2.096 4.208 3.136 7.040 3.136 2.896 0 5.248-1.040 7.040-3.136l46.096-55.312c1.472-1.632 2.144-3.616 2.144-5.888 0-2.512-0.912-4.656-2.704-6.528-1.84-1.792-3.968-2.704-6.48-2.704h-27.616v-55.312h82.96c1.504 0 2.704-0.512 3.6-1.568l23.024-27.648c0.672-1.072 1.008-2.032 1.008-3.024zM512 32.496c0-2.288-0.704-4.24-2.128-5.888l-46.096-55.312c-1.904-2.176-4.272-3.296-7.040-3.296-2.784 0-5.136 1.12-7.040 3.296l-46.096 55.312c-1.472 1.664-2.176 3.616-2.176 5.888 0 2.512 0.944 4.656 2.736 6.528 1.84 1.792 3.968 2.704 6.48 2.704h27.648v55.312h-82.96c-1.504 0-2.704 0.56-3.6 1.712l-23.024 27.648c-0.672 0.896-1.008 1.824-1.008 2.896 0 1.232 0.496 2.32 1.392 3.248 0.912 0.912 1.984 1.36 3.232 1.36h138.224c0.784 0 1.424-0.080 1.952-0.304 0.512-0.192 0.976-0.528 1.312-0.992 0.336-0.512 0.592-0.896 0.784-1.2 0.192-0.256 0.336-0.816 0.448-1.648 0.080-0.832 0.112-1.36 0.112-1.664v-86.384h27.664c2.48 0 4.656-0.912 6.448-2.704 1.84-1.856 2.736-4 2.736-6.512z" />
<glyph unicode="&#xe60f;" d="M256-32q-52 0-99.504 20.256t-81.744 54.496-54.496 81.744-20.256 99.504 20.256 99.504 54.496 81.744 81.744 54.496 99.504 20.256 99.504-20.256 81.744-54.496 54.496-81.744 20.256-99.504-20.256-99.504-54.496-81.744-81.744-54.496-99.504-20.256zM379.504 302.992q4.496 5.008 4.496 11.504t-4.496 11.008l-22 22q-5.008 4.496-11.248 4.496t-11.248-4.496l-79.008-79.504-79.504 79.504q-4.496 4.496-11.008 4.496t-11.008-4.496l-22-22q-4.496-4.496-4.496-11.008t4.496-11.504l79.008-79.008-79.008-79.008q-4.496-5.008-4.496-11.504t4.496-11.008l22-22q4.496-4.496 11.008-4.496t11.008 4.496l79.504 79.504 79.008-79.504q5.008-4.496 11.248-4.496t11.248 4.496l22 22q4.496 4.496 4.496 11.008t-4.496 11.504l-79.504 79.008z" />
<glyph unicode="&#xe610;" d="M432 480h-384c-26.4 0-48-21.6-48-48v-416c0-26.4 21.6-48 48-48h384c26.4 0 48 21.6 48 48v416c0 26.4-21.6 48-48 48zM416 32h-352v384h352v-384zM128 192h224v-32h-224zM128 128h224v-32h-224zM160 336c0-26.51 21.49-48 48-48s48 21.49 48 48c0 26.51-21.49 48-48 48-26.51 0-48-21.49-48-48zM240 288h-64c-26.4 0-48-14.4-48-32v-32h160v32c0 17.6-21.6 32-48 32z" />
<glyph unicode="&#xe611;" d="M31.762 229.018v-33.595c0-5.962 4.84-10.786 10.802-10.786h0.669v55.184h-0.669c-5.962 0-10.803-4.834-10.803-10.803zM13.664 269.458v-33.594c0-5.963 4.84-10.786 10.803-10.786h0.669v55.184h-0.669c-5.963 0-10.803-4.834-10.803-10.803zM105.71 236.582h27.347c0.762 0 1.528 0.042 2.258 0.104l-17.592 125.821h-12.014c-13.645 0-24.659-11.026-24.659-24.64v-76.648c0-13.611 11.013-24.638 24.659-24.638zM69.213 262.76h0.891v73.579h-0.891c-7.95 0-14.406-6.448-14.406-14.402v-44.792c0-7.95 6.453-14.384 14.406-14.384zM89.894 228.25c0 0-17.576 6.346-17.541 21.75h-5.181c-10.541 0-15.296 5.683-15.296 5.683v-72.984c0-13.611 0.938-24.968 14.584-24.968l0.184 31.87c0.352 0 0.358 9.25 8.698 15.208 7.138 5.099 14.552 6.142 14.552 6.142v17.302zM34.699 300.064v-33.592c0-5.966 4.84-10.79 10.803-10.79h0.669v55.184h-0.669c-5.962 0-10.803-4.834-10.803-10.803zM126.976 223.053c-13.645 0-24.659-11.024-24.659-24.637v-76.648c0-13.611 11.013-24.637 24.659-24.637h27.35c0.762 0 1.525 0.043 2.256 0.101l-17.592 125.822h-12.013zM497.514 90.182l0.016 0.024h-0.016c-0.608 10.48-12.291 278.717-22.2 286.659-10.19 8.144-326.086 5.856-338.339-4.334-6.16-5.125 5.28-141.49 26.398-234.424 10.992-48.368 1.736-83.040 1.736-83.040l0.088 0.022-3.72-27.947c-0.346-2.563 1.456-4.912 4.008-5.245 2.558-0.349 4.904 1.445 5.243 4.008l3.891 30.166 8.267 0.858-3.499-29.786c-0.339-2.563 1.446-4.912 4.008-5.245 2.566-0.349 4.906 1.445 5.258 4.008l3.688 32.014 8.68 0.901-3.731-31.678c-0.344-2.563 1.462-4.912 4.022-5.245 2.544-0.349 4.888 1.445 5.245 4.008l3.915 33.894 8.37 0.894-3.626-30.834c-0.352-2.565 1.451-4.936 4.016-5.274 2.544-0.339 4.893 1.459 5.24 4.022l3.824 33.064 8.56 0.894-3.738-31.64c-0.328-2.563 1.456-4.912 4.022-5.259 2.563-0.328 4.906 1.459 5.262 4.022l3.91 33.87 8.501 0.882-3.76-31.899c-0.346-2.546 1.458-4.92 4.022-5.243 2.549-0.349 4.896 1.442 5.24 4.002l3.947 34.123 8.426 0.87-3.738-31.606c-0.334-2.565 1.464-4.909 4.024-5.267 2.55-0.322 4.909 1.456 5.262 4.024l3.914 33.84 8.418 0.88-3.69-31.312c-0.336-2.574 1.454-4.923 4.019-5.262 2.565-0.349 4.914 1.442 5.248 4.010l3.875 33.552 8.648 0.901-0.091-0.029-3.786-32.106c-0.336-2.568 1.469-4.909 4.022-5.262 2.552-0.325 4.896 1.469 5.25 4.024l3.968 34.346 8.36 0.87-3.683-31.28c-0.334-2.563 1.448-4.906 4.022-5.256 2.546-0.328 4.896 1.454 5.245 4.016l3.88 33.522 8.483 0.882-3.717-31.563c-0.322-2.555 1.464-4.896 4.022-5.256 2.546-0.328 4.909 1.464 5.259 4.022l3.888 33.776 8.496 0.882-3.733-31.882c-0.349-2.568 1.432-4.909 4.016-5.262 2.544-0.339 4.894 1.454 5.238 4.024l3.95 34.104 8.454 0.896-3.752-31.848c-0.336-2.568 1.456-4.899 4.010-5.243 2.56-0.341 4.904 1.438 5.264 4.005l3.93 34.062 8.462 0.89-3.744-31.901c-0.358-2.552 1.448-4.901 4.010-5.262 2.541-0.339 4.912 1.448 5.25 4.010l3.942 34.125 8.478 0.89-3.76-31.952c-0.344-2.563 1.459-4.912 4.022-5.262 2.552-0.334 4.899 1.459 5.24 4.010l3.947 34.182 8.413 0.864-3.723-31.544c-0.339-2.563 1.454-4.909 4.016-5.253 2.565-0.349 4.909 1.45 5.259 4.016l3.885 33.784 8.483 0.896-3.723-31.637c-0.349-2.546 1.456-4.909 4.016-5.259 2.563-0.33 4.901 1.456 5.264 4.022l3.89 33.848 8.502 0.894-3.762-31.912c-0.33-2.568 1.445-4.918 4.005-5.262 2.568-0.352 4.918 1.454 5.262 4.016l3.952 34.142 8.864 0.918-3.714-31.502c-0.344-2.568 1.448-4.906 4.022-5.256 2.546-0.341 4.901 1.459 5.243 4.008l3.834 33.723h0.058c-0.008 0.014-0.008 0.184-0.032 0.448zM76.078 182.486v-44.794c0-7.95 6.454-14.384 14.403-14.384h0.891v73.579h-0.891c-7.95 0-14.403-6.448-14.403-14.4z" />
<glyph unicode="&#xe612;" d="M166.458 359.086c-5.606-4.664 4.805-89.928 24.022-174.502 10-44.016 1.582-75.565 1.582-75.565l0.080 0.022-3.384-25.432c-0.315-2.334 1.326-4.474 3.648-4.776 2.328-0.317 4.462 1.317 4.77 3.651l3.542 27.448 7.523 0.776-3.181-27.099c-0.31-2.334 1.315-4.474 3.648-4.776 2.333-0.317 4.466 1.317 4.786 3.651l3.355 29.13 7.899 0.822-3.394-28.827c-0.312-2.334 1.331-4.474 3.661-4.776 2.315-0.317 4.448 1.317 4.774 3.651l3.563 30.837 7.616 0.813-3.298-28.056c-0.322-2.334 1.32-4.493 3.654-4.798 2.315-0.307 4.453 1.328 4.768 3.656l3.48 30.088 7.789 0.818-3.4-28.798c-0.298-2.328 1.326-4.469 3.658-4.781 2.334-0.301 4.464 1.322 4.786 3.656l3.558 30.824 7.733 0.805-3.421-29.029c-0.312-2.317 1.328-4.474 3.661-4.771 2.317-0.315 4.454 1.312 4.765 3.64l3.6 31.056 7.666 0.795-3.4-28.76c-0.307-2.336 1.328-4.469 3.659-4.792 2.32-0.291 4.466 1.325 4.786 3.661l3.56 30.798 7.664 0.803-3.36-28.498c-0.304-2.341 1.322-4.48 3.656-4.786 2.336-0.315 4.469 1.312 4.776 3.648l3.522 30.536 7.87 0.818-0.082-0.026-3.442-29.216c-0.304-2.336 1.334-4.466 3.656-4.786 2.322-0.296 4.454 1.336 4.776 3.659l3.611 31.259 7.611 0.792-3.354-28.466c-0.307-2.336 1.317-4.469 3.656-4.786 2.32-0.296 4.459 1.322 4.774 3.656l3.534 30.504 7.714 0.803-3.378-28.723c-0.293-2.322 1.328-4.456 3.656-4.781 2.32-0.298 4.466 1.33 4.784 3.659l3.538 30.733 7.726 0.805-3.4-29.014c-0.312-2.339 1.307-4.469 3.656-4.786 2.317-0.307 4.454 1.322 4.765 3.661l3.598 31.034 7.694 0.816-3.413-28.978c-0.307-2.339 1.322-4.462 3.648-4.771 2.33-0.312 4.466 1.304 4.789 3.642l3.574 30.998 7.704 0.813-3.408-29.034c-0.322-2.32 1.317-4.459 3.648-4.784 2.315-0.307 4.472 1.317 4.779 3.648l3.584 31.056 7.717 0.813-3.421-29.080c-0.312-2.33 1.328-4.469 3.659-4.784 2.32-0.304 4.456 1.328 4.762 3.648l3.598 31.106 7.659 0.786-3.389-28.704c-0.307-2.334 1.322-4.472 3.656-4.781 2.334-0.317 4.464 1.317 4.781 3.651l3.536 30.744 7.72 0.818-3.387-28.794c-0.317-2.32 1.322-4.466 3.654-4.784 2.33-0.301 4.459 1.325 4.786 3.659l3.538 30.805 7.738 0.813-3.421-29.043c-0.301-2.336 1.312-4.472 3.64-4.786 2.339-0.317 4.474 1.325 4.789 3.654l3.6 31.064 8.064 0.834-3.382-28.664c-0.312-2.336 1.317-4.466 3.659-4.781 2.32-0.307 4.462 1.322 4.771 3.646l3.488 30.69h0.056c0 0 0 0.16-0.022 0.397l0.014 0.019h-0.014c-0.55 9.536-11.184 214.805-20.202 222.032-9.267 7.413-296.728 5.328-307.88-3.944zM149.722 351.84h-12.013c-13.645 0-24.659-11.027-24.659-24.64v-76.648c0-13.611 11.013-24.637 24.659-24.637h27.346c0.762 0 1.528 0.042 2.258 0.104l-17.592 125.822zM101.213 325.672c-7.95 0-14.406-6.448-14.406-14.403v-44.792c0-7.949 6.454-14.384 14.406-14.384h0.891v73.579h-0.891zM65.334 60.666l-35.334 43.666-30-30.334 65.334-84.666 121.203 159.765-31.202 28.918z" />
<glyph unicode="&#xe613;" d="M166.458 359.086c-5.606-4.664 4.805-89.928 24.022-174.499 10-44.016 1.582-75.565 1.582-75.565l0.080 0.019-3.384-25.432c-0.315-2.334 1.326-4.472 3.648-4.774 2.328-0.317 4.462 1.315 4.77 3.648l3.542 27.448 7.523 0.779-3.181-27.101c-0.31-2.334 1.315-4.472 3.648-4.774 2.333-0.317 4.466 1.315 4.786 3.648l3.355 29.13 7.899 0.822-3.394-28.827c-0.312-2.334 1.331-4.472 3.661-4.774 2.315-0.317 4.448 1.315 4.774 3.648l3.563 30.84 7.616 0.813-3.298-28.058c-0.322-2.334 1.32-4.49 3.654-4.798 2.315-0.307 4.453 1.328 4.768 3.656l3.48 30.091 7.789 0.816-3.4-28.794c-0.298-2.33 1.326-4.469 3.658-4.784 2.334-0.298 4.464 1.325 4.786 3.659l3.558 30.822 7.733 0.805-3.421-29.029c-0.315-2.317 1.328-4.474 3.659-4.771 2.32-0.315 4.456 1.315 4.768 3.642l3.598 31.053 7.666 0.795-3.4-28.76c-0.307-2.336 1.328-4.469 3.659-4.792 2.32-0.293 4.466 1.325 4.786 3.661l3.56 30.798 7.664 0.803-3.36-28.498c-0.304-2.341 1.322-4.48 3.656-4.786 2.336-0.315 4.469 1.312 4.776 3.648l3.526 30.536 7.87 0.818-0.082-0.026-3.445-29.216c-0.304-2.336 1.336-4.466 3.659-4.786 2.322-0.296 4.454 1.336 4.776 3.661l3.611 31.256 7.611 0.792-3.354-28.466c-0.304-2.336 1.32-4.469 3.659-4.786 2.32-0.296 4.459 1.322 4.774 3.656l3.534 30.507 7.714 0.803-3.378-28.723c-0.296-2.322 1.328-4.456 3.656-4.781 2.32-0.298 4.466 1.33 4.784 3.659l3.538 30.736 7.726 0.803-3.397-29.014c-0.315-2.336 1.304-4.466 3.656-4.786 2.315-0.307 4.454 1.325 4.765 3.661l3.594 31.034 7.693 0.816-3.413-28.981c-0.307-2.336 1.322-4.459 3.648-4.771 2.33-0.31 4.464 1.307 4.786 3.646l3.576 30.998 7.702 0.81-3.408-29.032c-0.322-2.322 1.317-4.459 3.648-4.784 2.315-0.307 4.472 1.317 4.779 3.648l3.584 31.053 7.714 0.813-3.421-29.080c-0.312-2.33 1.328-4.469 3.659-4.784 2.32-0.304 4.456 1.328 4.765 3.648l3.594 31.106 7.659 0.786-3.389-28.704c-0.307-2.334 1.322-4.469 3.654-4.781 2.334-0.317 4.466 1.32 4.784 3.654l3.536 30.744 7.717 0.816-3.384-28.792c-0.317-2.32 1.322-4.466 3.654-4.784 2.33-0.301 4.459 1.325 4.786 3.659l3.538 30.803 7.741 0.813-3.424-29.040c-0.301-2.336 1.315-4.472 3.642-4.786 2.336-0.317 4.472 1.325 4.786 3.654l3.6 31.067 8.064 0.834-3.378-28.664c-0.312-2.336 1.317-4.466 3.659-4.781 2.32-0.31 4.459 1.322 4.771 3.646l3.488 30.69h0.056c0 0 0 0.158-0.022 0.397l0.014 0.019h-0.014c-0.55 9.536-11.184 214.805-20.202 222.032-9.264 7.408-296.728 5.323-307.88-3.949zM149.722 351.84h-12.013c-13.645 0-24.659-11.027-24.659-24.64v-76.648c0-13.611 11.013-24.637 24.659-24.637h27.346c0.762 0 1.528 0.042 2.258 0.104l-17.592 125.822zM101.213 325.672c-7.95 0-14.406-6.448-14.406-14.403v-44.792c0-7.949 6.454-14.384 14.406-14.384h0.891v73.579h-0.891zM116.334 205.909h-48.384v-48.384h-48.384v-48.384h48.384v-48.384h48.384v48.384h48.386v48.384h-48.386z" />
<glyph unicode="&#xe614;" d="M352 416h-192v32c0 16-16 32-32 32s-32-16-32-32v-416c0-32 32-64 64-64h192c32 0 64 32 64 64v320c0 32-32 64-64 64zM192 0h-64v64h64v-64zM192 96h-64v64h64v-64zM192 192h-64v64h64v-64zM288 0h-64v64h64v-64zM288 96h-64v64h64v-64zM288 192h-64v64h64v-64zM384 0h-64v64h64v-64zM384 96h-64v64h64v-64zM384 192h-64v64h64v-64zM384 288h-256v96h256v-96z" />
<glyph unicode="&#xe615;" d="M512 380.992v-90c-5.344-2-10.656-3.008-16-3.008-13.344 0-24.656 4.672-34 14s-14 20.672-14 34 4.656 24.672 14 34 20.656 14 34 14c5.008 0 10.336-0.992 16-2.992v0zM352 464c0-13.328-4.656-24.672-14-34s-20.656-14-34-14-24.656 4.672-34 14c-9.328 9.328-14 20.672-14 34 0 5.008 1.008 10.336 3.008 16h90c2-5.664 3.008-11.008 2.992-16v0zM478.4 464c0-13.328-4.656-24.672-14-34s-20.656-14-34-14-24.656 4.672-34 14-14 20.672-14 34c0 5.008 1.008 10.336 3.008 16h90c2.016-5.664 3.008-11.008 2.992-16v0zM224 464c0-13.328-4.672-24.672-14-34s-20.672-14-34-14-24.672 4.672-34 14-14 20.672-14 34c0 5.008 1.008 10.336 3.008 16h90c2-5.664 3.008-11.008 2.992-16v0zM96 464c0-13.328-4.672-24.672-14-34s-20.672-14-34-14-24.672 4.672-34 14-14 20.672-14 34c0 5.008 1.008 10.336 3.008 16h90c2-5.664 3.008-11.008 2.992-16v0zM32 336c0-10.336-3.008-19.584-9.008-27.744s-13.664-13.92-23.008-17.248v90c9.328-3.328 17.008-9.088 23.008-17.248 6.016-8.16 9.008-17.408 9.008-27.76v0zM32 80c0-10.336-3.008-19.6-9.008-27.744s-13.664-13.904-23.008-17.248v90c9.328-3.328 17.008-9.072 23.008-17.248 6.016-8.16 9.008-17.424 9.008-27.76v0zM176 0c10.336 0 19.584-3.008 27.744-9.008 8.16-6.016 13.92-13.68 17.248-23.008h-90c3.328 9.328 9.088 17.008 17.248 23.008s17.408 9.008 27.76 9.008v0zM45.008 0c10.336 0 19.584-3.008 27.744-9.008 8.16-6.016 13.92-13.68 17.248-23.008h-90c3.328 9.328 9.088 17.008 17.248 23.008s17.408 9.008 27.76 9.008v0zM304 0c10.336 0 19.6-3.008 27.744-9.008 8.16-6.016 13.904-13.68 17.248-23.008h-90c3.328 9.328 9.088 17.008 17.264 23.008 8.144 6 17.408 9.008 27.744 9.008v0zM431.12 0.016c10.336 0 19.6-3.008 27.744-9.008 8.16-6.016 13.904-13.68 17.248-23.008h-90c3.328 9.328 9.072 17.008 17.248 23.008s17.424 9.008 27.76 9.008v0zM512 124.992v-90c-5.344-2.016-10.656-3.008-16-3.008-13.344 0-24.656 4.672-34 14s-14 20.672-14 34 4.656 24.672 14 34 20.656 14 34 14c5.008 0 10.336-1.008 16-3.008v0.016zM480 208c0-13.344-4.656-24.656-14-34s-20.656-14-34-14-24.656 4.656-34 14-14 20.656-14 34c0 13.328 4.656 24.672 14 34s20.656 14 34 14 24.656-4.672 34-14 14-20.672 14-34zM368 384c13.344 0 24.656-4.672 34-14s14-20.672 14-34-4.656-24.672-14-34-20.656-14-34-14-24.656 4.672-34 14-14 20.672-14 34 4.656 24.672 14 34 20.656 14 34 14zM416 80c0-13.344-4.656-24.656-14-34s-20.656-14-34-14-24.656 4.656-34 14-14 20.656-14 34 4.656 24.656 14 34 20.656 14 34 14 24.656-4.656 34-14 14-20.656 14-34zM352 208c0-13.344-4.656-24.656-14-34s-20.656-14-34-14-24.656 4.656-34 14c-9.328 9.344-14 20.656-14 34 0 13.328 4.672 24.672 14 34 9.344 9.328 20.656 14 34 14s24.656-4.672 34-14 14-20.672 14-34zM240 384c13.328 0 24.656-4.672 34-14s14-20.672 14-34-4.656-24.672-14-34-20.672-14-34-14-24.672 4.672-34 14-14 20.672-14 34 4.672 24.672 14 34 20.672 14 34 14zM288 80c0-13.344-4.656-24.656-14-34s-20.672-14-34-14-24.672 4.656-34 14-14 20.656-14 34 4.672 24.656 14 34 20.672 14 34 14 24.656-4.656 34-14 14-20.656 14-34zM224 208c0-13.344-4.672-24.656-14-34s-20.672-14-34-14-24.672 4.656-34 14-14 20.656-14 34c0 13.328 4.672 24.672 14 34s20.672 14 34 14 24.672-4.672 34-14 14-20.672 14-34zM112 384c13.328 0 24.672-4.672 34-14s14-20.672 14-34-4.672-24.672-14-34-20.672-14-34-14-24.672 4.672-34 14-14 20.672-14 34 4.672 24.672 14 34 20.672 14 34 14zM160 80c0-13.344-4.672-24.656-14-34s-20.672-14-34-14-24.672 4.656-34 14-14 20.656-14 34 4.672 24.656 14 34 20.672 14 34 14 24.672-4.656 34-14 14-20.656 14-34zM48 256c13.328 0 24.672-4.672 34-14s14-20.672 14-34c0-13.344-4.672-24.656-14-34s-20.672-14-34-14-24.672 4.656-34 14-14 20.656-14 34c0 13.328 4.672 24.672 14 34s20.672 14 34 14z" />
<glyph unicode="&#xe616;" d="M352 480c-88.368 0-160-71.632-160-160 0-10.016 0.928-19.808 2.688-29.312l-194.688-194.688v-96c0-17.68 14.32-32 32-32h32v32h64v64h64v64h64l41.52 41.52c17.008-6.16 35.344-9.52 54.48-9.52 88.368 0 160 71.632 160 160s-71.632 160-160 160zM399.936 319.936c-26.512 0-48 21.488-48 48s21.488 48 48 48 48-21.488 48-48-21.488-48-48-48z" />
<glyph unicode="&#xe617;" d="M504.301 414.13h-340.896l-160.738-99.53v-343.933h356.067l145.568 99.4v344.064zM179.534 381.8l82.352 0.005-104.752-67.493h-84.933l107.334 67.488zM327.688 12.4h-283.966v264.704h88.654v-105.635l25.186 16.211 26.315-16.211 24.538 16.768 24.293-16.768v105.635h94.979v-264.704zM253.486 314.312l96.555 66.904h87.848l-93.158-66.904h-91.245zM461.486 90.64l-81.89-54.757v245.877l81.89 58.774v-249.894z" />
<glyph unicode="&#xe618;" d="M1489.662 267.521l-106.756 170.807c-15.586 24.959-42.955 40.14-72.399 40.14h-1225.105c-47.164-0.001-85.402-38.24-85.402-85.404v-341.612c0-47.163 38.238-85.403 85.402-85.403h1225.104c29.444 0 56.793 15.182 72.399 40.16l106.756 170.807c17.337 27.648 17.337 62.814 0.001 90.505zM1453.451 199.646l-106.754-170.85c-7.836-12.553-21.395-20.048-36.191-20.048h-1225.104c-23.55 0-42.701 19.173-42.701 42.702v341.614c0 23.55 19.151 42.701 42.701 42.701h1225.104c14.797 0 28.354-7.516 36.19-20.049l106.754-170.806c8.605-13.77 8.605-31.534 0.001-45.264zM1310.506 286.31c-35.4 0-64.052-28.674-64.052-64.051 0-35.38 28.65-64.053 64.052-64.053 35.358 0 64.053 28.694 64.053 64.053 0 35.377-28.694 64.051-64.053 64.051zM1310.506 179.534c-23.593 0-42.701 19.131-42.701 42.702 0 23.571 19.108 42.702 42.701 42.702 23.571 0 42.701-19.13 42.701-42.702 0-23.549-19.129-42.702-42.701-42.702z" horiz-adv-x="1503" />
<glyph unicode="&#xe619;" d="M117.207 306.515c31.892 0 57.763-33.977 57.763-75.9s-25.872-75.9-57.763-75.9c-31.891 0-57.763 33.977-57.763 75.9 0 41.924 25.871 75.9 57.763 75.9zM2.815 65.325c0 0 6.256 50.212 20.486 59.689 14.203 9.479 55.176 15.788 55.176 15.788s26.558-28.381 37.857-28.381c11.273 0 37.831 28.381 37.831 28.381s40.973-6.284 55.203-15.788c16.71-11.141 20.883-59.689 20.883-59.689h-227.436zM512 96.994h-237.6v36.957h237.6v-36.957zM512 168.025h-237.6v36.96h237.6v-36.96z" />
<glyph unicode="&#xe61a;" d="M448-32h-384c-17.664 0-32.752 6.256-45.248 18.752s-18.752 27.584-18.752 45.248v384c0 17.664 6.256 32.752 18.752 45.248s27.584 18.752 45.248 18.752h384c17.664 0 32.752-6.256 45.248-18.752s18.752-27.584 18.752-45.248v-384c0-17.664-6.256-32.752-18.752-45.248s-27.584-18.752-45.248-18.752zM208 384h-48v48c0 4.336-1.584 8.080-4.752 11.248s-6.912 4.752-11.248 4.752-8.080-1.584-11.248-4.752c-3.168-3.168-4.752-6.912-4.752-11.248v-48h-48c-4.336 0-8.080-1.584-11.248-4.752s-4.752-6.912-4.752-11.248 1.584-8.080 4.752-11.248c3.168-3.168 6.912-4.752 11.248-4.752h48v-48c0-4.336 1.584-8.080 4.752-11.248 3.168-3.168 6.912-4.752 11.248-4.752s8.080 1.584 11.248 4.752c3.168 3.168 4.752 6.912 4.752 11.248v48h48c4.336 0 8.080 1.584 11.248 4.752 3.168 3.168 4.752 6.912 4.752 11.248s-1.584 8.080-4.752 11.248c-3.168 3.168-6.912 4.752-11.248 4.752zM432 384h-128c-4.336 0-8.080-1.584-11.248-4.752-3.152-3.168-4.752-6.912-4.752-11.248s1.6-8.080 4.752-11.248c3.168-3.168 6.912-4.752 11.248-4.752h128c4.336 0 8.080 1.584 11.248 4.752 3.152 3.168 4.752 6.912 4.752 11.248s-1.6 8.080-4.752 11.248c-3.168 3.168-6.912 4.752-11.248 4.752zM432 176h-128c-4.336 0-8.080-1.6-11.248-4.752-3.152-3.168-4.752-6.912-4.752-11.248s1.6-8.080 4.752-11.248c3.168-3.152 6.912-4.752 11.248-4.752h128c4.336 0 8.080 1.6 11.248 4.752 3.152 3.168 4.752 6.912 4.752 11.248s-1.6 8.080-4.752 11.248c-3.168 3.152-6.912 4.752-11.248 4.752zM432 112h-128c-4.336 0-8.080-1.6-11.248-4.752-3.152-3.168-4.752-6.912-4.752-11.248s1.6-8.080 4.752-11.248c3.168-3.152 6.912-4.752 11.248-4.752h128c4.336 0 8.080 1.6 11.248 4.752 3.152 3.168 4.752 6.912 4.752 11.248s-1.6 8.080-4.752 11.248c-3.168 3.152-6.912 4.752-11.248 4.752zM197.632 109.056c-2.336 5.504-5.328 10.272-9.088 14.368-3.76 4.064-8 7.568-12.832 10.48-4.768 2.928-9.664 5.536-14.672 7.872-4.992 2.288-9.872 4.448-14.672 6.512-4.784 2.064-9.088 4.288-12.88 6.624-3.808 2.384-6.816 5.088-9.072 8.096-2.256 3.008-3.376 6.576-3.376 10.736 0 2.768 0.496 5.392 1.504 7.872 1.008 2.464 2.528 4.608 4.592 6.384 2.048 1.728 4.64 3.136 7.696 4.16 3.072 1.008 6.688 1.488 10.832 1.488 5.264 0 10.096-0.64 14.528-1.904 4.384-1.344 8.288-2.72 11.664-4.304 3.344-1.584 6.192-3.040 8.496-4.368 2.304-1.328 3.968-1.984 5.040-1.984 1.056 0 1.888 0.288 2.512 0.848 0.592 0.576 1.072 1.488 1.424 2.752 0.336 1.248 0.56 2.864 0.688 4.736 0.144 1.952 0.224 4.336 0.224 7.12 0 2.464-0.032 4.576-0.128 6.24-0.096 1.664-0.272 3.056-0.496 4.192-0.24 1.104-0.544 2-0.848 2.656-0.352 0.688-1.008 1.488-1.968 2.432-0.976 0.976-2.928 2.16-5.904 3.568-2.96 1.424-6.368 2.736-10.192 3.872-3.872 1.152-8 2.048-12.368 2.704-0.912 0.144-1.856 0.064-2.752 0.224v23.792h-22.64v-23.792c-4.16-0.56-8.208-1.408-12.128-2.528-7.616-2.192-14.24-5.536-19.856-10-5.632-4.448-10.096-10.080-13.392-16.816-3.328-6.768-4.96-14.608-4.96-23.52 0-7.776 1.168-14.448 3.44-20 2.304-5.568 5.312-10.4 9.008-14.496 3.712-4.080 7.888-7.552 12.592-10.48 4.688-2.944 9.552-5.552 14.528-7.84 5.008-2.32 9.84-4.464 14.544-6.544 4.704-2.064 8.896-4.288 12.576-6.624 3.712-2.368 6.704-5.008 9.008-8.048 2.32-3.040 3.472-6.656 3.472-10.896 0-3.648-0.672-6.976-2-9.968-1.36-2.976-3.312-5.456-5.824-7.488-2.528-2.032-5.632-3.568-9.28-4.688-3.648-1.104-7.76-1.664-12.384-1.664-7.008 0-13.2 0.832-18.512 2.4-5.328 1.584-9.904 3.312-13.76 5.248-3.84 1.952-6.992 3.664-9.424 5.264-2.448 1.584-4.336 2.368-5.68 2.368-0.976 0-1.824-0.288-2.512-0.8-0.736-0.512-1.312-1.408-1.728-2.64-0.432-1.28-0.72-2.896-0.944-4.928-0.192-2.016-0.288-4.512-0.288-7.504 0-4.416 0.272-7.792 0.784-10.144 0.528-2.368 1.424-4.192 2.672-5.408 1.232-1.248 3.28-2.64 6.096-4.288 2.848-1.664 6.352-3.152 10.576-4.624 4.208-1.456 9.104-2.736 14.608-3.776 5.52-1.024 11.488-1.536 17.92-1.536 0.288 0 0.544 0.032 0.832 0.032v-22.192h22.64v25.152c1.104 0.304 2.256 0.416 3.312 0.72 8.352 2.496 15.632 6.224 21.904 11.136 6.256 4.96 11.152 11.072 14.848 18.48 3.616 7.392 5.408 15.984 5.408 25.744 0 7.488-1.136 14-3.408 19.52z" />
<glyph unicode="&#xe61b;" d="M502.64 310.624l-160 160c-7.936 7.936-19.439 11.12-30.336 8.432-5.744-1.408-10.88-4.368-14.944-8.432-3.631-3.632-6.367-8.128-7.936-13.152-7.248-23.504-19.775-43.936-38.32-62.464-24.768-24.752-57.024-43.504-91.152-63.328-36.224-20.992-73.648-42.752-104.32-73.408-26.064-26.096-43.808-55.12-54.208-88.816-3.504-11.376-0.448-23.681 7.936-32.097l160-159.999c7.936-7.937 19.44-11.12 30.336-8.433 5.744 1.44 10.88 4.368 14.944 8.433 3.632 3.632 6.368 8.128 7.936 13.184 7.264 23.504 19.792 43.937 38.352 62.464 24.752 24.752 56.992 43.473 91.152 63.28 36.192 21.024 73.632 42.784 104.288 73.44 26.063 26.063 43.808 55.12 54.224 88.815 3.488 11.361 0.416 23.713-7.952 32.081zM192 0c-52.992 52.992-107.008 107.023-160 160 45.472 147.216 242.561 140.784 288 288 52.992-52.976 107.024-107.008 160.032-160-45.488-147.184-242.576-140.784-288.032-288zM312.992 241.6c-5.216 4.368-10.465 7.344-15.744 8.816-5.248 1.472-10.496 2.064-15.809 1.68-5.248-0.4-10.623-1.6-16-3.664-5.375-2.096-10.783-4.368-16.224-7.008-8.592 9.872-17.184 19.632-25.776 28.688 3.872 3.504 7.632 5.28 11.248 5.408 3.632 0.16 7.12-0.224 10.432-1.056 3.376-0.848 6.464-1.568 9.312-2.128 2.88-0.56 5.376 0.064 7.568 1.904 2.32 2 3.6 4.592 3.775 7.712 0.16 3.152-1.023 6.224-3.664 9.216-3.375 3.872-7.439 6.224-12.319 7.088-4.816 0.848-9.744 0.784-14.88-0.336-5.056-1.152-9.872-3.056-14.432-5.744-4.56-2.688-8.224-5.44-10.944-8.128-1.040 0.992-2.080 1.968-3.12 2.944-1.152 1.056-2.592 1.632-4.32 1.6-1.744 0-3.184-0.752-4.368-2.128-1.152-1.344-1.68-2.912-1.472-4.56 0.16-1.712 0.848-3.024 2.032-4.032 1.040-0.88 2.080-1.744 3.12-2.656-4.096-4.944-7.472-10.4-10.128-16.16-2.688-5.776-4.288-11.504-4.88-17.056-0.624-5.6-0.032-10.72 1.68-15.472 1.712-4.784 4.88-8.848 9.504-12.688 7.536-6.256 16.4-8.912 26.688-8.32 10.256 0.625 21.312 3.681 33.201 10.064 9.439-10.912 18.911-21.744 28.367-31.809-4-3.375-7.504-5.312-10.592-5.936-3.088-0.656-5.84-0.592-8.336 0.16-2.496 0.784-4.816 1.904-6.944 3.344-2.128 1.473-4.224 2.721-6.32 3.744-2.064 1.023-4.192 1.6-6.368 1.632-2.176 0.032-4.496-1.024-7.056-3.216-2.624-2.288-3.936-4.943-3.936-7.936 0-2.977 1.376-6 4.064-9.057 2.72-3.056 6.256-5.632 10.528-7.664 4.272-2.031 9.104-3.312 14.416-3.664 5.312-0.367 10.912 0.432 16.815 2.625 5.937 2.159 11.809 6.063 17.601 11.871 2.784-2.72 5.601-5.312 8.4-7.808 1.184-1.024 2.624-1.536 4.368-1.408 1.68 0.063 3.151 0.849 4.319 2.256 1.185 1.44 1.681 3.024 1.504 4.688-0.16 1.68-0.848 2.976-2 3.904-2.815 2.256-5.632 4.623-8.432 7.119 4.784 5.872 8.624 12.064 11.472 18.192 2.849 6.16 4.528 12.096 5.088 17.6 0.561 5.536-0.096 10.528-1.903 15.056-1.791 4.595-4.975 8.531-9.535 12.323zM223.536 230.752c-4.528-0.192-8.48 1.312-11.936 4.656-1.472 1.408-2.496 3.12-3.12 5.152-0.656 2.032-0.88 4.256-0.624 6.688 0.224 2.4 0.944 4.912 2.192 7.44 1.184 2.528 2.944 5.056 5.184 7.504 8.112-8.064 16.208-16.912 24.32-26.064-6.144-3.376-11.488-5.184-16.016-5.376zM299.008 198.721c-1.439-2.656-3.088-5.025-5.023-7.089-8.977 9.056-17.937 19.009-26.881 29.216 2.289 1.024 4.688 2.096 7.28 3.185 2.593 1.088 5.185 1.808 7.776 2.256 2.656 0.4 5.279 0.288 7.904-0.336 2.592-0.656 5.056-2.064 7.344-4.288 2.256-2.256 3.68-4.592 4.256-7.12 0.624-2.56 0.656-5.151 0.225-7.808-0.465-2.673-1.409-5.329-2.881-8.016zM235.472 125.12c3.152 2.544 7.792 2.416 10.688-0.528 3.136-3.119 3.136-8.224 0-11.344-0.256-0.256-0.528-0.432-0.816-0.656l0.032-0.031c-10.128-7.696-18.448-14.625-27.424-23.601-8.112-8.096-15.44-16.624-21.776-25.28l-10.224-14c-0.32-0.576-0.704-1.104-1.184-1.6-3.136-3.12-8.24-3.12-11.36 0-2.72 2.72-3.056 6.912-1.056 10.032l-0.032 0.031 10.944 14.944c6.832 9.344 14.688 18.496 23.376 27.184 9.040 9.072 18.8 17.168 28.8 24.849h0.032zM294.048 356.56c8.097 8.096 15.408 16.592 21.76 25.296l10.624 14.56c0.385 0.688 0.816 1.376 1.408 1.968 3.152 3.152 8.256 3.152 11.408 0 2.992-3.008 3.12-7.76 0.4-10.944l0.031-0.032-10.943-15.008c-6.849-9.344-14.688-18.464-23.377-27.152-9.039-9.040-18.783-17.168-28.783-24.848l-0.064 0.032c-3.184-2.928-8.128-2.864-11.184 0.224-3.152 3.152-3.152 8.288 0 11.44 0.561 0.592 1.216 1.008 1.872 1.376 9.407 7.184 18.48 14.72 26.848 23.088zM458.36 36.967c-12.295 0-23.232 1.077-32.813 3.232-9.58 2.156-15.887 4.87-18.92 8.144 10.857-2.475 22.992-3.713 36.404-3.713 9.819 0 19.14 0.679 27.961 2.036s15.947 3.233 21.375 5.628c5.43 2.396 8.144 4.95 8.144 7.664v7.664h3.832c2.315-0.479 4.171-1.456 5.568-2.934 1.396-1.478 2.096-3.054 2.096-4.73v-7.664c0-2.793-2.396-5.368-7.186-7.724-4.79-2.354-11.296-4.211-19.519-5.568-8.221-1.356-17.202-2.035-26.942-2.035zM450.696 67.622c-7.744 0-14.85 0.419-21.316 1.258-6.466 0.838-11.614 1.836-15.446 2.993-3.832 1.158-7.086 2.396-9.761 3.713-2.675 1.316-4.53 2.455-5.567 3.413-1.038 0.958-1.558 1.636-1.558 2.035v4.67c4.072-3.033 11.097-5.527 21.076-7.484 9.979-1.955 20.836-2.934 32.572-2.934 11.735 0 22.592 0.979 32.571 2.934 9.979 1.957 17.005 4.451 21.076 7.484v-2.754c0-2.714-2.396-5.249-7.186-7.604-4.79-2.355-11.296-4.231-19.519-5.629-8.221-1.396-17.202-2.095-26.942-2.095zM450.696 82.95c-9.74 0-18.722 0.699-26.944 2.096-8.223 1.397-14.729 3.273-19.52 5.628-4.79 2.355-7.185 4.91-7.185 7.664 0 2.755 2.395 5.31 7.185 7.664 4.79 2.355 11.297 4.211 19.52 5.568s17.204 2.036 26.944 2.036c9.739 0 18.721-0.679 26.943-2.036s14.729-3.213 19.519-5.568c4.79-2.354 7.186-4.909 7.186-7.664 0-2.754-2.396-5.309-7.186-7.664-4.79-2.354-11.296-4.23-19.519-5.628-8.222-1.397-17.203-2.096-26.943-2.096zM393.216 75.286c0-2.714 2.715-5.269 8.143-7.664 5.429-2.395 12.555-4.271 21.376-5.628 8.822-1.357 18.142-2.036 27.962-2.036 8.941 0 17.483 0.579 25.626 1.736 8.144 1.158 14.93 2.734 20.357 4.73-0.080-0.16-0.22-0.419-0.418-0.778-0.201-0.358-0.819-1.018-1.856-1.976-1.038-0.958-2.296-1.877-3.773-2.755-1.477-0.878-3.633-1.876-6.466-2.993-2.834-1.118-6.027-2.056-9.58-2.814s-8.084-1.417-13.592-1.976c-5.508-0.56-11.496-0.839-17.962-0.839-9.74 0-18.722 0.699-26.944 2.097-8.223 1.396-14.729 3.272-19.52 5.628-4.79 2.354-7.185 4.89-7.185 7.604v7.664c0 1.916 1.277 3.793 3.832 5.629v-5.629zM393.216 34.931v-5.628c0-2.715 2.715-5.27 8.143-7.664 5.429-2.396 12.555-4.271 21.376-5.629 8.822-1.356 18.142-2.035 27.962-2.035 8.781 0 17.224 0.559 25.326 1.676 8.103 1.118 14.909 2.675 20.418 4.671-1.198-3.992-6.905-7.325-17.124-9.999-10.22-2.675-22.313-4.012-36.284-4.012-9.74 0-18.722 0.679-26.944 2.035-8.223 1.357-14.729 3.214-19.52 5.568-4.79 2.355-7.185 4.931-7.185 7.725v7.664c0 1.916 1.277 3.792 3.832 5.628zM458.36 29.303c8.861 0 17.344 0.578 25.447 1.735 8.103 1.158 14.868 2.734 20.297 4.73-1.118-3.991-6.786-7.344-17.005-10.059-10.218-2.714-22.354-4.071-36.403-4.071-9.74 0-18.722 0.679-26.944 2.035-8.223 1.357-14.729 3.214-19.52 5.568-4.79 2.356-7.185 4.931-7.185 7.725v7.663c0 1.757 1.157 3.553 3.474 5.39 1.196-0.4 2.234-0.719 3.112-0.958-1.517-1.518-2.275-2.994-2.275-4.432 0-2.714 2.675-5.269 8.023-7.663 5.349-2.396 12.414-4.271 21.196-5.629 8.782-1.356 18.043-2.034 27.783-2.034zM500.512 13.975v5.628c2.554-1.836 3.832-3.712 3.832-5.628v-7.664c0-2.794-2.396-5.369-7.186-7.724-4.79-2.355-11.296-4.211-19.519-5.568s-17.204-2.036-26.943-2.036c-14.051 0-26.187 1.357-36.404 4.071-10.219 2.715-15.888 6.067-17.004 10.059 5.428-1.996 12.193-3.571 20.297-4.729 8.103-1.157 16.585-1.736 25.447-1.736 9.819 0 19.14 0.679 27.961 2.036 8.821 1.356 15.947 3.232 21.375 5.628 5.43 2.393 8.144 4.948 8.144 7.663zM348.369 0.683c8.821 1.357 15.947 3.233 21.375 5.628 5.43 2.396 8.144 4.95 8.144 7.664v7.664h3.832c2.315-0.479 4.171-1.456 5.568-2.934 1.396-1.478 2.096-3.054 2.096-4.73v-7.664c0-2.793-2.396-5.368-7.186-7.724-4.79-2.354-11.296-4.211-19.519-5.568-8.223-1.356-17.204-2.035-26.943-2.035-12.295 0-23.232 1.077-32.813 3.232-9.58 2.156-15.887 4.87-18.92 8.144 10.857-2.475 22.992-3.713 36.404-3.713zM328.072 21.639c-7.744 0-14.85 0.419-21.316 1.258-6.466 0.838-11.614 1.836-15.446 2.993-3.832 1.158-7.086 2.396-9.761 3.713-2.675 1.316-4.53 2.455-5.567 3.413-1.038 0.958-1.558 1.637-1.558 2.035v4.67c4.072-3.033 11.097-5.527 21.076-7.484 9.979-1.955 20.836-2.934 32.572-2.934 11.735 0 22.592 0.979 32.571 2.934 9.979 1.957 17.005 4.451 21.076 7.484v-2.754c0-2.714-2.396-5.249-7.186-7.604-4.79-2.355-11.296-4.231-19.519-5.629-8.221-1.396-17.202-2.095-26.942-2.095zM328.072 36.967c-9.74 0-18.722 0.699-26.944 2.096-8.223 1.397-14.729 3.273-19.52 5.628-4.79 2.355-7.185 4.91-7.185 7.664 0 2.755 2.395 5.31 7.185 7.664 4.79 2.355 11.297 4.211 19.52 5.568s17.204 2.036 26.944 2.036c9.739 0 18.721-0.679 26.943-2.036s14.729-3.213 19.519-5.568c4.79-2.354 7.186-4.909 7.186-7.664 0-2.754-2.396-5.309-7.186-7.664-4.79-2.354-11.296-4.23-19.519-5.628-8.222-1.397-17.203-2.096-26.943-2.096zM270.592 29.303c0-2.714 2.715-5.269 8.143-7.664 5.429-2.395 12.555-4.271 21.376-5.628 8.822-1.357 18.142-2.036 27.962-2.036 8.941 0 17.483 0.579 25.626 1.737 8.144 1.157 14.93 2.733 20.357 4.729-0.080-0.159-0.22-0.419-0.418-0.778-0.201-0.358-0.819-1.018-1.856-1.976-1.038-0.958-2.296-1.877-3.773-2.755-1.477-0.878-3.633-1.875-6.466-2.993-2.834-1.118-6.027-2.056-9.58-2.814s-8.084-1.417-13.592-1.976c-5.508-0.56-11.496-0.839-17.962-0.839-9.74 0-18.722 0.699-26.944 2.097-8.223 1.396-14.729 3.272-19.52 5.628-4.79 2.354-7.185 4.89-7.185 7.604v7.664c0 1.916 1.277 3.793 3.832 5.629v-5.629z" />
<glyph unicode="&#xe61c;" d="M347.552 180.736c0 0 9.44 224.928 164.384 258.816-89.248-95.52-112.672-147.872-164.384-258.816zM449.312 214.496c-29.248-46.112-73.504-109.056-100.064-197.184 0 0-42.816 134.624 100.064 197.184zM201.728 480c218.592-259.52 79.968-417.696 37.216-473.344 0 0.032 84 180.896-37.216 473.344zM64.736 394.848c192.96-159.648 125.12-251.68 125.12-251.68-19.2 90.112-76.768 181.216-125.12 251.68zM197.216 42.816l-14.496-74.816c-23.872 69.056 8.032 179.936-182.656 312.8 220.768-102.752 197.152-237.984 197.152-237.984zM479.136 127.072c17.984 9.568-26.24-53.952-87.2-113.056 0 0-2.752 91.68 87.2 113.056z" />
<glyph unicode="&#xe61d;" d="M448 336h-384c-17.664 0-32-14.336-32-32v-224c0-17.664 14.336-32 32-32h384c17.664 0 32 14.336 32 32v224c0 17.664-14.336 32-32 32zM160 259.008c19.328 0 35.008-20.592 35.008-46s-15.68-46-35.008-46-35.008 20.592-35.008 46 15.68 46 35.008 46zM90.672 112.832c0 0 3.792 30.432 12.416 36.176 8.608 5.744 33.44 9.568 33.44 9.568s16.096-17.2 22.944-17.2c6.832 0 22.928 17.2 22.928 17.2s24.832-3.809 33.456-9.568c10.128-6.752 12.656-36.176 12.656-36.176h-137.84zM428.19 186.809c0-4.337-0.269-7.394-0.813-9.181-0.538-1.788-2-3.931-4.387-6.419-1.301-1.3-2.601-0.051-3.9 3.737-0.863 2.494-1.3 4.713-1.3 6.662v20.801c0 2.059-0.762 2.222-2.275 0.487-1.198-1.406-2.173-3.304-2.93-5.688-0.655-2.166-1.412-5.718-2.28-10.644-0.863-4.932-1.082-8.318-0.65-10.156 0.112-0.325 0.325-1.219 0.65-2.682s0.574-2.575 0.736-3.336c0.163-0.757 0.325-1.732 0.488-2.925 0.162-1.194 0.188-2.169 0.086-2.931-0.112-0.762-0.382-1.351-0.813-1.787-0.544-0.65-0.844-1.168-0.895-1.544-0.061-0.376 0-0.681 0.163-0.894 0.162-0.224 0.508-0.6 1.052-1.138 0.543-0.543 0.975-1.087 1.3-1.631 0.329-0.325 0.543-0.705 0.649-1.142 0.106-0.427 0.106-0.863 0-1.301-0.106-0.426-0.219-0.813-0.33-1.137-0.107-0.325-0.295-0.731-0.563-1.215-0.27-0.487-0.482-0.888-0.649-1.219-0.168-0.324-0.463-0.756-0.895-1.3-0.432-0.543-0.701-0.919-0.813-1.138-0.543-0.756-1-2.137-1.381-4.144-0.381-2.005-0.736-4.199-1.057-6.586-0.32-2.381-0.539-3.849-0.649-4.388-0.325-1.406-0.107-3.382 0.649-5.931 0.757-2.55 1.625-4.418 2.601-5.606 0.325-0.538 0.325-1.138 0-1.787-0.325-0.65-0.869-1.387-1.631-2.194-0.757-0.813-1.513-1.544-2.274-2.193-0.762-0.655-1.438-1.198-2.031-1.63l-0.895-0.65h-8.293c-0.218 4.007 0.107 6.82 0.98 8.45 0.107 0.218 1.625 2.98 4.551 8.288 1.625 2.817 2.65 7.805 3.087 14.949 0.218 1.086 0.244 2.168 0.081 3.25-0.162 1.082-0.73 2.275-1.706 3.58-0.649 1.3-0.894 2.6-0.731 3.9 0.163 1.3 0.462 2.813 0.895 4.55 0.437 1.731 0.649 2.868 0.649 3.412-0.325 3.031-1.574 5.307-3.737 6.825-1.087 0.863-1.899 3.031-2.438 6.5-0.543 3.463-0.868 5.362-0.98 5.688-0.756 1.95-1.193 5.419-1.3 10.4-5.418-8.45-9.263-14.788-11.538-19.013-0.756-1.406-1.162-3.626-1.213-6.663-0.056-3.026 0.132-4.813 0.563-5.357 0-0.106 0.106-0.35 0.33-0.736 0.214-0.375 0.351-0.649 0.406-0.808 0.051-0.157 0.132-0.431 0.244-0.813 0.111-0.38 0.137-0.68 0.081-0.894-0.056-0.218-0.193-0.513-0.406-0.894s-0.538-0.736-0.975-1.057c-1.301-0.975-6.774-7.043-16.413-18.2 4.226-2.925 6.5-4.712 6.825-5.362 0.762-1.192 1.087-2.574 0.975-4.144-0.102-1.568-0.589-2.95-1.457-4.144-0.868-1.086-2.087-1.386-3.656-0.894-1.569 0.487-2.355 1.325-2.355 2.514 0.105 1.844-1.356 4.281-4.388 7.313-1.082-1.519-1.813-2.981-2.194-4.388s-0.188-2.387 0.563-2.925c0.543-0.33 0.65-0.762 0.331-1.3-0.32-0.544-0.809-0.976-1.463-1.3l-1.138-0.65h-10.078c-1.952-0.437-3.252 0.106-3.899 1.625-0.325 0.65-0.056 1.249 0.81 1.787 0.868 0.539 2.168 1.107 3.9 1.707 1.736 0.599 2.925 1.056 3.575 1.381 1.63 0.975 3.905 3.144 6.83 6.5-1.625 1.412-5.145 4.388-10.558 8.938-5.419 4.555-8.615 7.262-9.593 8.13-1.3 1.407-1.866 3.438-1.703 6.099 0.162 2.651 0.894 4.632 2.193 5.932 0.434 0.325 0.813 0.757 1.138 1.3 0.327 0.538 0.571 1.001 0.733 1.382 0.162 0.38 0.3 0.894 0.406 1.543 0.106 0.65 0.16 1.138 0.16 1.463v2.763c0.108 0.649 0.434 1.513 0.979 2.6l1.382 2.763c0 0 0.027 0.538 0.083 1.625-0.652 0.432-2.221 0.432-4.709 0-2.491-0.437-4.388-1.030-5.69-1.787-0.759-0.438-1.165-1.193-1.216-2.281-0.054-1.081 0.083-2.33 0.406-3.737 0.321-1.406 0.484-2.274 0.487-2.6-0.107-1.625-1.569-3.905-4.388-6.83-0.975-0.863-1.759-2.544-2.356-5.037-0.597-2.488-0.625-4.226-0.084-5.2 0.435-0.762 0.76-1.595 0.979-2.519 0.218-0.914 0.246-1.783 0.083-2.601-0.162-0.813-0.624-1.324-1.384-1.543-1.084-0.325-2.465-2.682-4.144-7.064-1.678-4.388-2.517-7.662-2.517-9.836-0.218-6.063-1.033-9.369-2.439-9.912-0.975-0.325-1.541-0.863-1.706-1.625-0.163-0.762 0.406-1.301 1.706-1.625 1.193-0.325 1.79-1.412 1.79-3.25h-20.15c-0.109-0.112-0.297-0.163-0.568-0.163-0.27 0-0.569 0.112-0.894 0.325-0.325 0.224-0.488 0.711-0.488 1.463 0 0.975 1.301 1.975 3.9 3.006s4.713 1.655 6.338 1.869c0.975 0.213 2.463 2.274 4.466 6.175 2.003 3.899 3.387 7.368 4.146 10.399 0.325 2.926 0.435 5.394 0.327 7.395-0.109 2.006-0.406 4.712-0.896 8.129-0.487 3.413-0.73 5.551-0.73 6.414-0.652 12.025-0.438 18.911 0.649 20.638 0.866 0.976 1.19 2.25 0.978 3.819-0.216 1.574-1.138 2.63-2.763 3.168-1.406 0.325-3.006-0.457-4.794-2.355-1.789-1.899-3.008-2.844-3.656-2.844-0.759 0-1.49 0.132-2.193 0.406-0.703 0.269-1.219 0.568-1.544 0.894l-0.489 0.325c-0.76-0.214-2.113-0.214-4.061 0-0.868 0.111-1.653 0.462-2.356 1.056-0.703 0.6-1.165 1.168-1.384 1.706l-0.327 0.813c-2.707 1.406-4.766 2.544-6.178 3.413-0.652 0.431-1.138 0.944-1.46 1.544-0.322 0.594-0.487 1.056-0.49 1.381v0.65c-2.493 1.086-4.553 2.224-6.178 3.412-0.865 0.65-1.568 1.763-2.109 3.331-0.541 1.572-1.191 2.791-1.95 3.656-0.759 0.869-1.222 2.494-1.384 4.878-0.162 2.387-0.189 5.096-0.084 8.128 0.106 3.033 0.106 5.037 0 6.012-0.219 3.25 0.079 6.666 0.895 10.238 0.814 3.575 2.25 5.362 4.306 5.362h-15.6v1.056c0 0 0.109 0.838 0.327 2.516 0.219 1.679 0.49 2.732 0.813 3.167 0.32 0.435 0.836 1.272 1.544 2.517 0.706 1.244 1.546 1.625 2.517 1.14h15.6c0.541 0.759 1.19 1.678 1.95 2.76 0.759 1.081 2.060 2.6 3.899 4.55 1.841 1.953 3.356 2.983 4.551 3.090 1.734 0.218 4.387 0.246 7.96 0.082 3.575-0.163 6.121-0.676 7.64-1.544 0.975-0.541 1.625-1.407 1.95-2.6 0.325-1.19 0.435-2.275 0.327-3.25l-0.327-1.46c1.625-0.975 2.981-2.763 4.060-5.363 0.328-1.84 0.409-3.193 0.246-4.060-0.162-0.868-0.597-2.275-1.3-4.228s-1.165-3.415-1.384-4.39c-0.324-1.407-1.193-4.194-2.6-8.366-1.407-4.169-2.112-6.742-2.112-7.716-0.107-0.868 0.38-1.6 1.462-2.193 1.082-0.597 2.11-1.003 3.088-1.219l1.63-0.16c-0.434 4.766-0.325 8.341 0.327 10.728 0.219 0.975 1.003 2.219 2.354 3.737 1.354 1.519 2.951 3.171 4.797 4.957 1.844 1.785 3.090 3.057 3.737 3.816 2.274 2.6 7.366 6.23 15.278 10.89 0.759 0.432 1.409 0.838 1.949 1.216 0.541 0.378 0.947 0.729 1.216 1.057 0.272 0.325 0.597 0.787 0.979 1.383 0.383 0.594 0.652 1.028 0.813 1.3 0.159 0.269 0.457 0.891 0.894 1.866 0.437 0.972 0.762 1.734 0.978 2.277 1.95 4.332 10.674 8.612 26.162 12.837 8.232 2.275 15.925-0.163 23.075-7.31 1.523-1.518 2.823-4.605 3.9-9.263 1.086-4.654 2.274-7.688 3.58-9.1 1.843-1.95 3.874-4.957 6.094-9.016 2.219-4.060 3.986-7.607 5.286-10.644 0.756-2.059 2.706-4.658 5.85-7.8 3.139-3.142 5.033-5.307 5.688-6.5 1.087-1.841 1.625-9.425 1.625-22.75l-0.021 0.009zM369.854 177.292c-0.112 3.413-0.219 6.094-0.33 8.044-2.6-1.407-4.332-2.65-5.2-3.737l0.005 0.010c-0.538-0.762-0.944-2.244-1.219-4.469-0.264-2.214-0.67-3.595-1.214-4.144-0.325-0.325-0.594-0.675-0.807-1.056-0.219-0.376-0.406-0.838-0.569-1.382-0.162-0.544-0.299-0.975-0.406-1.3-0.111-0.325-0.218-0.838-0.325-1.544-0.111-0.711-0.223-1.224-0.33-1.544-0.218-1.3-1.549-2.844-3.986-4.631-2.438-1.792-4.682-3.118-6.743-3.986-0.432-0.106-0.782-0.27-1.057-0.492-0.269-0.214-0.457-0.457-0.563-0.731-0.109-0.27-0.19-0.487-0.246-0.65-0.056-0.162 0-0.406 0.162-0.731 0.162-0.324 0.298-0.568 0.406-0.73 0.107-0.163 0.292-0.462 0.566-0.895 0.269-0.437 0.457-0.705 0.568-0.813 1.402-2.168 5.901-5.85 13.488-11.050 1.188 1.839 2.569 4.251 4.144 7.231 1.568 2.98 2.844 5.499 3.818 7.557l1.458 3.087c-0.757 6.068-1.244 10.024-1.458 11.862 0 0.651-0.056 2.682-0.162 6.094z" />
<glyph unicode="&#xe61e;" d="M260.245 233.258l-89.579 89.578v-56.171h-149.333v-64h149.333v-59.008l89.579 89.6zM192 458.666v-71.829l42.666-42.666v71.829h172.565l-129.899-42.666v-256h-42.666v4.992l-42.666-42.666v-4.992h85.334v-85.334l192 64v405.334z" />
<glyph unicode="&#xe61f;" d="M201.143 187.428q0 15.143-10.714 25.857t-25.857 10.714-25.857-10.714-10.714-25.857q0-10.572 5.429-19.143t14.572-13.428l-19.714-65.428q-1.428-4.286 1.429-8t7.429-3.714h54.857q4.571 0 7.429 3.714t1.429 8l-19.715 65.428q9.143 4.857 14.572 13.428t5.428 19.143zM91.428 260.572h146.286v54.857q0 30.286-21.428 51.714t-51.714 21.429-51.715-21.429-21.428-51.714v-54.857zM329.143 233.143v-164.571q0-11.428-8-19.428t-19.428-8h-274.286q-11.428 0-19.428 8t-8 19.428v164.571q0 11.429 8 19.429t19.428 8h9.143v54.857q0 52.572 37.715 90.286t90.285 37.714 90.285-37.714 37.714-90.286v-54.857h9.143q11.428 0 19.428-8t8-19.428z" horiz-adv-x="329" />
<glyph unicode="&#xe620;" d="M273.12 433.12c-62.496 62.496-163.744 62.496-226.256 0-62.496-62.464-62.496-163.808 0-226.24 0.016 0 113.136-110.88 113.136-238.88 0 128 113.12 238.88 113.12 238.88 62.512 62.432 62.512 163.776 0 226.24zM160 256c-35.376 0-64 28.624-64 64s28.624 64 64 64 64-28.624 64-64-28.624-64-64-64z" horiz-adv-x="320" />
<glyph unicode="&#xe621;" d="M400.78 162.779l-0.22 0.221h0.239v307.2h-307.201v-0.697l-1.226 1.226-92.375-92.374 0.754-0.754h-0.751v-307.2h307.199v1.212l1.207-1.207 92.374 92.373zM100.003 450.501h267.157l-72.9-72.901h-267.158l72.901 72.901zM288 89.6h-268.8v268.8h268.8v-268.8zM307.199 362.681l73.9 73.9v-265.624l-73.9-73.901v265.625zM500.823 111.58l-36.203 36.203-13.929-13.929 18.567-18.567-46.21-10.978 12.953-12.955-90.563-90.125 9.032-9.033 90.489 90.2 13.326-13.326 10.981 46.209 17.628-17.629z" />
<glyph unicode="&#xe622;" d="M505.68 201.44c-15.968 43.728-60.592 69.808-119.344 69.808-2.272 0-4.512-0.080-6.704-0.176l-0.384 52.784c0 0 87.264 15.072 90.208 15.584s3.424 3.040 2.816 5.888c-0.592 2.848-4.272 22.624-4.816 25.008-0.72 3.328-2.64 3.248-5.296 2.784s-83.232-11.824-83.232-11.824-0.288 50.016-0.304 53.216c-0.032 3.2-1.792 4.064-4.96 4.016-3.2-0.048-23.584-0.352-26.272-0.416-2.688-0.032-4.176-1.248-4.128-3.808 0.048-2.56 0.848-59.040 0.848-59.040s-78.384-13.536-80.544-13.904-4.352-1.376-3.84-3.664c0.48-2.272 4.864-27.984 5.328-30 0.432-2.016 1.824-3.248 4.784-2.736s74.88 12.928 74.88 12.928l0.896-51.664c-27.568-7.248-46.112-21.088-57.76-33.36-19.664-20.656-30.896-48.304-30.896-75.856 0-40.656 24.832-64.736 59.568-68.992 80.976-9.904 131.040 78.304 147.712 120.672 28.112-38.528 6.576-111.456-53.6-153.056-1.072-0.8-2.48-3.296-0.816-5.296s13.824-16.944 15.84-19.408c2.016-2.4 5.28-1.456 6.56-0.544 64.256 44.208 93.696 115.504 73.44 171.008zM316.576 119.856c-24.704 3.104-24.144 23.392-24.144 37.2 0 19.792 8.368 40.448 22.4 55.2 8.608 9.040 19.2 15.904 31.456 20.448l2.096-109.488c-9.808-3.36-20.4-4.768-31.824-3.36zM378.72 133.984l1.152 105.184c2.144 0.096 4.272 0.256 6.448 0.256 19.792 0 38.272-3.712 48.288-9.264 10.016-5.552-26.192-69.424-55.888-96.176zM149.584 330.288c-0.768 2.4-2.608 3.68-4.992 3.68h-49.92c-2.352 0-4.224-1.28-4.96-3.68-10.528-33.248-89.12-281.392-89.504-282.656-0.432-1.36-0.288-1.952 1.584-1.952h44.368c1.92 0 2.528 0.592 2.896 1.84 0.416 1.312 25.824 84.944 25.824 84.944h89.504c0 0 25.424-83.664 25.808-84.944 0.416-1.248 0.976-1.84 2.912-1.84h44.336c1.888 0 2.048 0.592 1.584 1.952-0.336 1.248-78.896 249.392-89.44 282.656zM82.608 168.544l37.040 134.4 37.024-134.4h-74.064z" />
<glyph unicode="&#xe623;" d="M256-32c-46.336 0-89.168 11.424-128.496 34.256-39.328 22.848-70.416 53.92-93.248 93.248s-34.256 82.16-34.256 128.496c0 46.336 11.424 89.168 34.256 128.496s53.92 70.4 93.248 93.248c39.328 22.832 82.16 34.256 128.496 34.256 46.336 0 89.168-11.424 128.496-34.256 39.312-22.832 70.4-53.92 93.248-93.248 22.832-39.328 34.256-82.16 34.256-128.496 0-46.336-11.424-89.168-34.256-128.496-22.848-39.328-53.936-70.4-93.248-93.248-39.328-22.832-82.16-34.256-128.496-34.256zM333.008 120.656l37.872 50.992 44.496 42.496c0 0-14.816 17.664-33.152 17.664-8.24 0-15.76-2.352-22.656-7.056-6.864-4.704-13.088-11.744-18.736-21.184-7.872-2.752-14-5.376-18.384-7.856-0.992 9.792-2.16 17.040-3.536 21.744l25.552 99.168c6.048 23.92 7.504 36-6.896 42.384-14.4 6.4-29.12-11.248-36.704-33.744l-24.24-76.576 0.736 98.48c0 24.176-7.632 36.256-22.88 36.256-15.408 0-23.104-10.704-23.104-32.128v-98.448l-24.784 86.24c-6.144 15.264-16.96 30.288-31.36 25.488s-13.712-28.496-9.728-43.664l22.080-84.080-35.616 58.816c-10.896 18.88-29.68 22.528-33.936 18.128-6.768-7.024-11.312-21.984 0.992-43.44l39.28-68.384 35.072-121.504v-23.616h102.4v30.448c11.904 8.144 22.192 19.264 37.232 33.376v0z" />
<glyph unicode="&#xe624;" d="M93.598 470.2v-0.697l-1.226 1.226-92.375-92.374 0.754-0.754h-0.751v-307.2h307.199v1.212l1.207-1.207 92.374 92.374-0.22 0.22h0.239v307.2h-307.201zM100.003 450.501h267.157l-72.9-72.901h-267.158l72.901 72.901zM288 89.6h-268.8v268.8h268.8v-268.8zM307.199 97.056v265.625l73.9 73.9v-265.624l-73.9-73.901zM462.167 409.805h18.318l-0.389-246.557h12.774l0.284 246.557h18.846l-24.916 40.447zM460.801 469.952h51.199v-19.699h-51.199v19.699z" />
<glyph unicode="&#xe625;" d="M256-32c141.385 0 256 114.615 256 256s-114.615 256-256 256-256-114.615-256-256 114.615-256 256-256zM256 432c114.875 0 208-93.125 208-208s-93.125-208-208-208-208 93.125-208 208 93.125 208 208 208zM256 180.62c57.975 0 113.115 15.403 160 42.46-7.287-89.219-76.564-159.080-160-159.080-83.434 0-152.711 69.936-160 159.152 46.885-27.056 102.025-42.532 160-42.532zM128 304c0-26.51 14.327-48 32-48s32 21.49 32 48c0 26.51-14.327 48-32 48-17.673 0-32-21.49-32-48zM320 304c0-26.51 14.327-48 32-48s32 21.49 32 48c0 26.51-14.327 48-32 48-17.673 0-32-21.49-32-48z" />
<glyph unicode="&#xe626;" d="M254.477 469.76v-123.785l-226.907 0.031v-244.207h226.907v-123.559l245.21 245.76z" />
<glyph unicode="&#xe627;" d="M477.504 96c21.936 37.68 34.496 81.248 34.496 128 0 141.376-114.624 256-256 256s-256-114.624-256-256 114.624-256 256-256c70.688 0 134.688 28.624 180.992 75.008l-45.312 45.312c-34.736-34.816-82.736-56.32-135.68-56.32-105.872 0-192 86.128-192 192s86.128 192 192 192 192-86.128 192-192c0-22.752-4.368-44.496-11.68-64.752l-0.512 0.752h-51.808v191.312h-128c-70.688 0-128-57.312-128-128s57.312-128 128-128c29.376 0 56.128 10.32 77.744 26.944 11.632-15.504 29.376-26.256 50.256-26.256h93.504zM320 255.872v-32.56c0-35.312-28.752-64-64-64s-64 28.688-64 64 28.752 64 64 64h64v-31.44z" />
<glyph unicode="&#xe628;" d="M366.864 223.712q0 7.712-5.136 12.864l-26 26q-5.136 5.136-12.864 5.136t-12.864-5.136l-54-54v143.424q0 7.424-5.424 12.864t-12.864 5.424h-36.576q-7.424 0-12.864-5.424t-5.424-12.864v-143.424l-54 54q-5.424 5.424-12.864 5.424t-12.864-5.424l-26-26q-5.136-5.136-5.136-12.864t5.136-12.864l129.424-129.424q5.136-5.136 12.864-5.136t12.864 5.136l129.424 129.424q5.136 5.136 5.136 12.864zM438.864 224q0-59.712-29.424-110.144t-79.856-79.856-110.144-29.424-110.144 29.424-79.856 79.856-29.424 110.144 29.424 110.144 79.856 79.856 110.144 29.424 110.144-29.424 79.856-79.856 29.424-110.144z" horiz-adv-x="432" />
<glyph unicode="&#xe629;" d="M272 64c0 0 99.008 32.992 176-28.992 0 0.992 0 28.992 0 28.992-90 50-176 0-176 0zM32 384v-318c0 0 43.008 31.008 104 31.008s104-31.008 104-31.008v314c0 0-43.008 36-104 36s-104-32-104-32zM64 352h64v-80h-64v80zM208 144h-144v16h144v-16zM208 176h-144v16h144v-16zM208 208h-144v16h144v-16zM208 240h-144v16h144v-16zM144 352h64v-16h-64v16zM144 320h64v-16h-64v16zM144 288h64v-16h-64v16zM360 416c-60.992 0-104-32-104-32v-318c0 0 43.008 31.008 104 31.008s104-31.008 104-31.008v314c0 0-43.008 36-104 36zM432 144h-144v16h144v-16zM432 176h-144v16h144v-16zM432 208h-144v16h144v-16zM432 240h-144v16h144v-16zM432 272h-144v16h144v-16zM432 304h-144v16h144v-16zM432 336h-144v16h144v-16zM48 64c0 0 0-28 0-28.992 76.992 61.984 176 28.992 176 28.992s-86 50-176 0z" />
<glyph unicode="&#xe62a;" d="M496 144q-6.5 0-11.25 4.75t-4.75 11.25v0.5q-0.5 15-19.25 23.25t-44.75 8.25q-32 0-49.5-32h33.5q6.5 0 11.25-4.75t4.75-11.25-4.75-11.25-11.25-4.75h-44.5q-3.5-15.5-3.5-32h48q6.5 0 11.25-4.75t4.75-11.25-4.75-11.25-11.25-4.75h-44.5q5.5-27.5 20.5-45.75t40-18.25q26 0 44.75 8.25t19.25 23.25v0.5q0 6.5 4.75 11.25t11.25 4.75 11.25-4.75 4.75-11.25q0-32-26-48t-70-16q-41.5 0-64.5 26.75t-29 69.25h-18.5q-6.5 0-11.25 4.75t-4.75 11.25 4.75 11.25 11.25 4.75h16q0 16 2.5 32h-18.5q-6.5 0-11.25 4.75t-4.75 11.25 4.75 11.25 11.25 4.75h26q23 64 86 64 44 0 70-16t26-48q0-6.5-4.75-11.25t-11.25-4.75zM464 288h-32q-6.5 0-11.25 4.75t-4.75 11.25v32q0 6.5-4.75 11.25t-11.25 4.75h-48v-28.5q-5-3.5-11.5-3.5t-11.5 3.5l-68 52q-5 3.5-5 8.5t5 8.5l68 52q5 3.5 11.5 3.5t11.5-3.5v-28.5h48q36 0 58-22t22-58v-32q0-6.5-4.75-11.25t-11.25-4.75zM183 3.5q-5-3.5-11.5-3.5t-11.5 3.5v28.5h-48q-36 0-58 22t-22 58v32q0 6.5 4.75 11.25t11.25 4.75h32q6.5 0 11.25-4.75t4.75-11.25v-32q0-6.5 4.75-11.25t11.25-4.75h48v28.5q5 3.5 11.5 3.5t11.5-3.5l68-52q5-3.5 5-8.5t-5-8.5zM112 352q112 0 112-64 0-59-96-63.5v-16.5q0-6.5-4.75-11.25t-11.25-4.75-11.25 4.75-4.75 11.25v16.5q-96 4.5-96 63.5 0 6.5 4.75 11.25t11.25 4.75 11.25-4.75 4.75-11.25v-0.5q0.5-15.5 23.25-23.5t56.75-8q34.5 0 57.25 8.25t22.75 23.75-22.75 23.75-57.25 8.25q-112 0-112 64 0 59 96 63.5v16.5q0 6.5 4.75 11.25t11.25 4.75 11.25-4.75 4.75-11.25v-16.5q96-4.5 96-63.5 0-6.5-4.75-11.25t-11.25-4.75-11.25 4.75-4.75 11.25v0.5q-0.5 15.5-23.25 23.5t-56.75 8q-34.5 0-57.25-8.25t-22.75-23.75 22.75-23.75 57.25-8.25z" />
<glyph unicode="&#xe62b;" d="M401.538 190.811c-8.938-6.030-29.028 11.711-25.619-8.297 5.269-9.020 28.438 12.077 16.892-7.014-7.37-13.324-26.946-42.847-24.395-58.145 0.317-22.299-22.778-4.652-30.738 2.742-5.357 14.809-1.828 40.701-15.822 47.95-15.195 0.667-28.237 2.044-34.125 19.030-3.541 12.152 3.771 30.243 16.797 33.039 19.064 11.979 25.869-14.027 43.754-14.51 5.548 5.811 20.681 7.658 21.938 14.171-11.736 2.065 14.879 9.86-1.13 14.292-8.823-1.038-14.523-9.157-9.826-16.035-17.106-3.989-17.659 24.76-34.106 15.691-0.415-14.339-26.856-4.646-9.144-1.742 6.085 2.66-9.928 10.363-1.275 8.963 4.253 0.235 18.551 5.247 14.685 8.614 7.964 4.948 14.657-11.842 22.452 0.384 5.624 9.397-2.361 11.134-9.413 6.37-3.978 4.453 7.020 14.072 16.726 18.224 3.225 1.387 6.322 2.14 8.684 1.927 4.888-5.643 13.921-6.624 14.396 0.676-12.099 5.796-25.448 8.858-39.261 8.858-19.83 0-38.688-6.297-54.294-17.954 4.192-1.924 6.579-4.313 2.536-7.37-3.14-9.353-15.879-21.912-27.061-20.138-5.805-10.011-9.633-21.046-11.264-32.608 9.365-3.101 11.523-9.232 9.515-11.285-4.771-4.161-7.702-10.062-9.217-16.518 3.050-18.655 11.816-35.845 25.448-49.479 17.184-17.182 40.040-26.647 64.342-26.647 24.306 0 47.157 9.465 64.34 26.647h-0.013c12.816 12.81 21.328 28.768 24.845 46.122-2.742-4.024-5.357-5.522-6.982 3.504-1.664 14.702-15.172 5.307-23.665 10.538zM448 336h-384c-17.664 0-32-14.336-32-32v-224c0-17.664 14.336-32 32-32h384c17.664 0 32 14.336 32 32v224c0 17.664-14.336 32-32 32zM160 259.008c19.328 0 35.008-20.592 35.008-46s-15.68-46-35.008-46-35.008 20.592-35.008 46 15.68 46 35.008 46zM90.672 112.832c0 0 3.792 30.432 12.416 36.176 8.608 5.744 33.44 9.568 33.44 9.568s16.096-17.2 22.944-17.2c6.832 0 22.928 17.2 22.928 17.2s24.832-3.809 33.456-9.568c10.128-6.752 12.656-36.176 12.656-36.176h-137.84zM416.544 121.456c-19.646-19.64-45.767-30.456-73.544-30.456-27.78 0-53.898 10.816-73.541 30.456-19.643 19.646-30.459 45.767-30.459 73.544 0 27.78 10.816 53.898 30.459 73.541 19.643 19.643 45.761 30.459 73.541 30.459 27.777 0 53.898-10.816 73.544-30.459 19.64-19.643 30.456-45.761 30.456-73.541 0-27.777-10.816-53.898-30.456-73.544z" />
<glyph unicode="&#xe62c;" d="M480-32v64h-64v-64h-32v416h128v-416h-32zM416 64h32v32h-32v-32zM416 192h32v32h-32v-32zM448 352h-32v-32h32v32zM480 288h-32v-32h32v32zM480 160h-32v-32h32v32zM288 64h-64v-96h-64v512h192v-512h-64v96zM224 416h-32v-32h32v32zM224 320h-32v-32h32v32zM224 224h-32v-32h32v32zM224 128h-32v-32h32v32zM320 416h-32v-32h32v32zM320 320h-32v-32h32v32zM320 224h-32v-32h32v32zM320 128h-32v-32h32v32zM96 0h-64v-32h-32v256h128v-256h-32v32zM32 32h32v32h-32v-32zM64 192h-32v-32h32v32zM96 128h-32v-32h32v32z" />
<glyph unicode="&#xe62d;" d="M256-32q-69.504 0-128.496 34.256t-93.248 93.248-34.256 128.496 34.256 128.496 93.248 93.248 128.496 34.256 128.496-34.256 93.248-93.248 34.256-128.496-34.256-128.496-93.248-93.248-128.496-34.256zM411.504 309.504l-22 22q-5.008 4.496-11.248 4.496t-11.248-4.496l-151.008-151.008-71.504 71.008q-4.496 4.496-11.008 4.496t-11.008-4.496l-22-22q-4.496-4.496-4.496-11.008t4.496-11.504l76-75.504q0.496-5.504 4-9.008l22-22q5.504-5.504 13.504-4 8-1.504 13.504 4l22 22q3.008 3.504 4 9.008l156 156q4.496 4.496 4.496 11.008t-4.496 11.008z" />
<glyph unicode="&#xe62e;" d="M0 64h512v-64h-512v64zM87.008 349.456h76.8v-253.808h-76.8v253.808zM217.6 248.976h76.8v-153.6h-76.8v153.6zM346.368 450.064h76.816v-354.064h-76.816v354.064z" />
<glyph unicode="&#xe62f;" d="M505.209 416h-345.209c-0.25 64-0.25 64-12.5 64h-147.5v-64h96v-298.51c0-26.51-5.020-21.49 21.49-21.49h365.855c17.673 0 15.154 14.827 15.154 32.5s2.519 31.5-15.154 31.5h-323.345v32h263.609c17.6 0 35.956 13.846 40.791 30.77zM192 8c0-22-18-40-40-40h-16c-22 0-40 18-40 40v16c0 22 18 40 40 40h16c22 0 40-18 40-40v-16zM480 8c0-22-18-40-40-40h-16c-22 0-40 18-40 40v16c0 22 18 40 40 40h16c22 0 40-18 40-40v-16z" />
<glyph unicode="&#xe630;" d="M256 326.4c-74.353 0-128-53.646-128-128 0-74.385 53.647-128 128-128 74.385 0 128 53.615 128 128 0 74.353-53.615 128-128 128zM291.5 158.517c-2.467-5.399-5.834-9.985-10.099-13.75-4.266-3.767-9.2-6.635-14.8-8.599-5.601-1.966-11.566-2.951-17.899-2.951-5.734 0-11.117 0.601-16.149 1.801-5.035 1.2-9.385 2.834-13.050 4.9v17.999c1.8-1.2 3.883-2.35 6.25-3.449 2.365-1.1 4.833-2.068 7.4-2.9 2.565-0.834 5.133-1.517 7.701-2.050 2.565-0.534 4.983-0.8 7.25-0.8 4.133 0 7.883 0.663 11.248 2 3.366 1.332 6.25 3.2 8.649 5.601 2.401 2.401 4.266 5.265 5.601 8.599 1.334 3.333 2 6.965 2 10.901 0 4.264-0.766 7.983-2.3 11.151-1.534 3.165-3.584 5.8-6.15 7.9-2.567 2.1-5.534 3.649-8.899 4.65-3.367 1-6.885 1.466-10.55 1.4-4.535 0-8.899-0.568-13.1-1.7-4.201-1.134-7.966-2.536-11.3-4.2l-4 5.3v64.099h69.999v-16.4h-52.4v-33.302c1 0.134 2.1 0.266 3.3 0.401 1.2 0.133 2.451 0.249 3.75 0.35s2.583 0.165 3.85 0.199c1.266 0.034 2.4 0.051 3.399 0.051 6.334 0 12.2-0.868 17.601-2.6 5.399-1.735 10.048-4.248 13.95-7.55s6.95-7.366 9.151-12.2c2.197-4.836 3.296-10.349 3.296-16.55-0.001-6.8-1.235-12.901-3.7-18.3zM460.8 352h-61.414c-8.448 0-17.562 6.553-20.224 14.567l-15.872 47.641c-2.714 8.038-11.801 14.592-20.25 14.592h-174.080c-8.448 0-17.561-6.554-20.198-14.567l-15.923-47.667c-2.662-8.013-11.751-14.567-20.198-14.567h-61.44c-28.16 0-51.2-23.040-51.2-51.2v-230.4c0-28.16 23.040-51.2 51.2-51.2h409.6c28.185 0 51.2 23.040 51.2 51.2v230.4c0 28.16-23.014 51.2-51.2 51.2zM256 39.68c-94.847 0-158.72 63.869-158.72 158.72 0 94.818 63.873 158.72 158.72 158.72 94.82 0 158.72-63.902 158.72-158.72 0-94.851-63.901-158.72-158.72-158.72zM442.88 265.011c-9.882 0-17.894 8.013-17.894 17.92s8.011 17.92 17.894 17.92c9.907 0 17.92-8.013 17.92-17.92 0-9.907-8.013-17.92-17.92-17.92z" />
<glyph unicode="&#xe631;" d="M256 326.4c-74.353 0-128-53.646-128-128 0-74.385 53.647-128 128-128 74.385 0 128 53.615 128 128 0 74.353-53.615 128-128 128zM302.801 168.418v0h-18.601v-33.4h-19.099v33.4h-54.7l-1.2 5.901c0.733 4.2 2.315 9.031 4.75 14.5 2.433 5.464 5.383 11.163 8.851 17.099 3.465 5.933 7.282 11.9 11.451 17.899 4.166 6 8.333 11.65 12.5 16.951 4.166 5.3 8.166 10.049 12.001 14.25 3.832 4.201 7.183 7.466 10.048 9.799h15.4v-81.3h18.6v-15.098zM263.899 238.217c-1.002-1-2.368-2.535-4.1-4.6-1.733-2.067-3.649-4.5-5.75-7.3-2.1-2.8-4.334-5.901-6.7-9.3-2.368-3.399-4.667-6.969-6.899-10.7-2.234-3.735-4.35-7.534-6.35-11.4-2-3.866-3.734-7.668-5.2-11.401h36.201v50c0 0.933 0 1.983 0 3.15 0 1.166 0.065 2.383 0.2 3.649-0.334-0.335-0.568-0.684-0.7-1.049-0.133-0.365-0.366-0.716-0.7-1.048zM460.8 352h-61.414c-8.448 0-17.562 6.553-20.224 14.567l-15.872 47.641c-2.714 8.038-11.801 14.592-20.25 14.592h-174.080c-8.448 0-17.561-6.554-20.198-14.567l-15.923-47.667c-2.662-8.013-11.751-14.567-20.198-14.567h-61.44c-28.16 0-51.2-23.040-51.2-51.2v-230.4c0-28.16 23.040-51.2 51.2-51.2h409.6c28.185 0 51.2 23.040 51.2 51.2v230.4c0 28.16-23.014 51.2-51.2 51.2zM256 39.68c-94.847 0-158.72 63.869-158.72 158.72 0 94.818 63.873 158.72 158.72 158.72 94.82 0 158.72-63.902 158.72-158.72 0-94.851-63.901-158.72-158.72-158.72zM442.88 265.011c-9.882 0-17.894 8.013-17.894 17.92s8.011 17.92 17.894 17.92c9.907 0 17.92-8.013 17.92-17.92 0-9.907-8.013-17.92-17.92-17.92z" />
<glyph unicode="&#xe632;" d="M256 326.4c-74.353 0-128-53.646-128-128 0-74.385 53.647-128 128-128 74.385 0 128 53.615 128 128 0 74.353-53.615 128-128 128zM290.55 155.967c-2.167-4.767-5.233-8.836-9.2-12.2-3.967-3.368-8.7-5.968-14.2-7.8-5.5-1.833-11.584-2.75-18.25-2.75-5.934 0-11.549 0.618-16.85 1.851-5.3 1.232-10.049 3.114-14.25 5.651v18.299c2.333-1.601 4.833-3.050 7.5-4.35 2.666-1.301 5.333-2.401 8-3.301 2.666-0.9 5.283-1.601 7.85-2.1 2.565-0.498 4.95-0.748 7.149-0.748 8.599 0 14.916 2.015 18.949 6.049 4.033 4.033 6.050 9.516 6.050 16.45 0 3.466-0.748 6.534-2.25 9.2-1.5 2.666-3.634 4.915-6.4 6.75-2.766 1.833-6.049 3.216-9.849 4.151-3.8 0.933-8 1.4-12.601 1.4h-9.6v16.401h6.1c5.133 0 9.6 0.582 13.4 1.75 3.8 1.166 6.95 2.752 9.451 4.752s4.368 4.365 5.601 7.101c1.232 2.732 1.851 5.665 1.851 8.799 0 3.399-0.518 6.299-1.55 8.7-1.036 2.4-2.452 4.365-4.25 5.9-1.8 1.533-3.934 2.65-6.4 3.35-2.467 0.701-5.167 1.049-8.1 1.049-1.935 0-4.118-0.234-6.549-0.701-2.434-0.467-4.985-1.15-7.65-2.050-2.667-0.9-5.351-1.967-8.049-3.2-2.701-1.235-5.25-2.65-7.65-4.25v17.4c4.8 3 9.85 5.184 15.15 6.55 5.3 1.365 10.851 2.050 16.65 2.050 6.065 0 11.465-0.767 16.2-2.3 4.733-1.535 8.733-3.75 12-6.65 3.265-2.9 5.766-6.4 7.5-10.5 1.733-4.1 2.6-8.75 2.6-13.95 0-3.734-0.618-7.217-1.851-10.451-1.234-3.234-2.918-6.166-5.050-8.8-2.134-2.634-4.684-4.95-7.651-6.95s-6.184-3.635-9.65-4.9c4.4-0.8 8.384-2.1 11.95-3.901 3.565-1.8 6.634-4 9.199-6.599s4.534-5.534 5.901-8.8c1.365-3.265 2.049-6.734 2.049-10.397 0-5.868-1.084-11.186-3.25-15.951zM460.8 352h-61.414c-8.448 0-17.562 6.553-20.224 14.567l-15.872 47.641c-2.714 8.038-11.801 14.592-20.25 14.592h-174.080c-8.448 0-17.561-6.554-20.198-14.567l-15.923-47.667c-2.662-8.013-11.751-14.567-20.198-14.567h-61.44c-28.16 0-51.2-23.040-51.2-51.2v-230.4c0-28.16 23.040-51.2 51.2-51.2h409.6c28.185 0 51.2 23.040 51.2 51.2v230.4c0 28.16-23.014 51.2-51.2 51.2zM256 39.68c-94.847 0-158.72 63.869-158.72 158.72 0 94.818 63.873 158.72 158.72 158.72 94.82 0 158.72-63.902 158.72-158.72 0-94.851-63.901-158.72-158.72-158.72zM442.88 265.011c-9.882 0-17.894 8.013-17.894 17.92s8.011 17.92 17.894 17.92c9.907 0 17.92-8.013 17.92-17.92 0-9.907-8.013-17.92-17.92-17.92z" />
<glyph unicode="&#xe633;" d="M460.8 352h-61.414c-8.448 0-17.562 6.553-20.224 14.567l-15.872 47.641c-2.714 8.038-11.801 14.592-20.25 14.592h-174.080c-8.448 0-17.561-6.554-20.198-14.567l-15.923-47.667c-2.662-8.013-11.751-14.567-20.198-14.567h-61.44c-28.16 0-51.2-23.040-51.2-51.2v-230.4c0-28.16 23.040-51.2 51.2-51.2h409.6c28.185 0 51.2 23.040 51.2 51.2v230.4c0 28.16-23.014 51.2-51.2 51.2zM256 39.68c-94.847 0-158.72 63.869-158.72 158.72 0 94.818 63.873 158.72 158.72 158.72 94.82 0 158.72-63.902 158.72-158.72 0-94.851-63.901-158.72-158.72-158.72zM442.88 265.011c-9.882 0-17.894 8.013-17.894 17.92s8.011 17.92 17.894 17.92c9.907 0 17.92-8.013 17.92-17.92 0-9.907-8.013-17.92-17.92-17.92zM256 326.4c-74.353 0-128-53.646-128-128 0-74.385 53.647-128 128-128 74.385 0 128 53.615 128 128 0 74.353-53.615 128-128 128zM295.001 135.017h-77v14.101l30.5 37.7c3.2 3.998 6.115 7.663 8.751 11 2.632 3.332 4.884 6.599 6.75 9.798 1.865 3.2 3.3 6.502 4.3 9.9 0.998 3.399 1.498 7.168 1.498 11.302 0 6.6-1.616 11.733-4.849 15.4-3.234 3.666-7.952 5.5-14.149 5.5-2.734 0-5.634-0.417-8.7-1.25-3.067-0.834-6.084-1.95-9.050-3.35-2.966-1.4-5.8-3-8.5-4.8-2.701-1.8-5.017-3.667-6.95-5.601v18.1c1.934 1.8 4.201 3.5 6.8 5.099s5.416 3 8.45 4.201c3.033 1.2 6.25 2.166 9.65 2.9 3.399 0.733 6.899 1.1 10.5 1.1 5.801 0 11.032-0.817 15.701-2.451 4.666-1.635 8.616-3.984 11.849-7.050 3.231-3.067 5.733-6.75 7.499-11.050 1.767-4.3 2.651-9.117 2.651-14.45 0-5.535-0.684-10.551-2.051-15.049s-3.267-8.8-5.699-12.901c-2.434-4.1-5.3-8.168-8.599-12.2-3.3-4.034-6.917-8.418-10.851-13.15l-21.9-26.601h53.4v-16.197z" />
<glyph unicode="&#xe634;" d="M460.8 352h-61.414c-8.448 0-17.562 6.553-20.224 14.567l-15.872 47.641c-2.714 8.038-11.801 14.592-20.25 14.592h-174.080c-8.448 0-17.561-6.554-20.198-14.567l-15.923-47.667c-2.662-8.013-11.751-14.567-20.198-14.567h-61.44c-28.16 0-51.2-23.040-51.2-51.2v-230.4c0-28.16 23.040-51.2 51.2-51.2h409.6c28.185 0 51.2 23.040 51.2 51.2v230.4c0 28.16-23.014 51.2-51.2 51.2zM256 39.68c-94.847 0-158.72 63.869-158.72 158.72 0 94.818 63.873 158.72 158.72 158.72 94.82 0 158.72-63.902 158.72-158.72 0-94.851-63.901-158.72-158.72-158.72zM442.88 265.011c-9.882 0-17.894 8.013-17.894 17.92s8.011 17.92 17.894 17.92c9.907 0 17.92-8.013 17.92-17.92 0-9.907-8.013-17.92-17.92-17.92zM256 326.4c-74.353 0-128-53.646-128-128 0-74.385 53.647-128 128-128 74.385 0 128 53.615 128 128 0 74.353-53.615 128-128 128zM274.101 135.019v0h-19.201v105.098c-1.067-0.935-2.217-1.917-3.45-2.95-1.235-1.034-2.417-1.984-3.55-2.85l-25.2-18v19.1l39.1 29.4h12.3v-129.798z" />
<glyph unicode="&#xe635;" d="M256 275.2c-42.394 0-76.8-34.406-76.8-76.8 0-42.419 34.406-76.8 76.8-76.8 42.419 0 76.8 34.381 76.8 76.8 0 42.394-34.381 76.8-76.8 76.8zM460.8 352h-61.414c-8.448 0-17.562 6.553-20.224 14.567l-15.872 47.641c-2.714 8.038-11.801 14.592-20.25 14.592h-174.080c-8.448 0-17.561-6.554-20.198-14.567l-15.923-47.667c-2.662-8.013-11.751-14.567-20.198-14.567h-61.44c-28.16 0-51.2-23.040-51.2-51.2v-230.4c0-28.16 23.040-51.2 51.2-51.2h409.6c28.185 0 51.2 23.040 51.2 51.2v230.4c0 28.16-23.014 51.2-51.2 51.2zM256 70.4c-70.707 0-128 57.293-128 128 0 70.682 57.293 128 128 128 70.682 0 128-57.318 128-128 0-70.707-57.318-128-128-128zM442.88 265.011c-9.882 0-17.894 8.013-17.894 17.92s8.013 17.92 17.894 17.92c9.907 0 17.92-8.013 17.92-17.92s-8.013-17.92-17.92-17.92z" />
<glyph unicode="&#xe636;" d="M256 32v-64h352v64h-352zM256 160v-64h352v64h-352zM256 352v-64h352v64h-352zM256 480v-64h352v64h-352zM0 160v-192h192v192h-192zM0 480v-192h192v192h-192z" horiz-adv-x="608" />
<glyph unicode="&#xe637;" d="M394.005 80.726c-5.269 24.512-42.666 55.808-103.339 64.768v22.293c17.75 17.216 34.666 45.632 34.666 85.718 0 48.49-17.322 87.83-69.334 87.83s-69.334-39.339-69.334-87.83c0-40.085 16.917-68.501 34.666-85.718v-22.293c-60.672-8.96-98.070-40.256-103.338-64.768h-0.662c0-0.64 0.234-1.344 0.427-2.005l1.898-3.861c10.88-14.57 60.246-32.192 136.341-32.192s125.462 17.622 136.363 32.214l1.899 3.861c0.192 0.661 0.426 1.344 0.426 2.005h-0.683zM500.714 164.779c-4.864 22.656-39.382 51.52-95.382 59.798v20.544c16.406 15.893 32 42.133 32 79.126 0 44.8-16 81.088-64 81.088-40.064 0-49.962-7.254-55.317-46.059 26.005-20.202 40.235-55.594 40.235-103.766 0-48.619-10.582-75.072-27.584-95.51 21.334 0 49.984-27.712 69.952-43.84 72.064 1.834 89.067 30.464 98.582 43.2l1.75 3.541c0.171 0.618 0.384 1.259 0.384 1.856h-0.618zM138.667 405.334c-48 0-64-36.288-64-81.088 0-36.992 15.594-63.232 32-79.125v-20.565c-56-8.277-90.517-37.142-95.382-59.798h-0.619c0-0.598 0.213-1.238 0.384-1.856l1.749-3.52c9.514-12.757 26.538-41.365 98.603-43.2 19.947 16.106 48.597 43.818 69.931 43.818-17.024 20.438-27.584 46.87-27.584 95.51 0 48.171 14.25 83.563 40.256 103.765-5.355 38.806-15.274 46.059-55.339 46.059z" />
<glyph unicode="&#xe638;" d="M481.601 367.788h-363.801c-16.781 0-30.4-13.619-30.4-30.4v-212.8c0-16.781 13.619-30.4 30.4-30.4h363.8c16.78 0 30.399 13.619 30.399 30.4v212.8c0.001 16.78-13.618 30.4-30.398 30.4zM208 294.645c18.361 0 33.258-19.563 33.258-43.7s-14.896-43.7-33.258-43.7-33.257 19.563-33.257 43.7c0 24.138 14.896 43.7 33.257 43.7zM142.139 155.777c0 0 3.602 28.91 11.795 34.367 8.178 5.457 31.768 9.090 31.768 9.090s15.292-16.34 21.796-16.34c6.491 0 21.782 16.34 21.782 16.34s23.591-3.617 31.783-9.090c9.623-6.414 12.021-34.367 12.021-34.367h-130.945zM418.2 208c-5.978 0-11.709 1.050-17.021 2.975l-12.979-12.975h-20v-20h-20v-20h-20v-10h-10c-5.527 0-10 4.473-10 10v30l60.84 60.84c-0.547 2.969-0.84 6.030-0.84 9.16 0 27.617 22.383 50 50 50s50-22.383 50-50-22.383-50-50-50zM433.181 287.98c-8.286 0-15-6.719-15-15 0-8.286 6.714-15 15-15 8.281 0 15 6.714 15 15 0 8.281-6.719 15-15 15zM73.353 324.599c-16.781 0-30.4-13.619-30.4-30.4v-212.8c0-16.779 13.619-30.398 30.4-30.398h364.801c16.779 0 30.398 13.619 30.398 30.398l-355.911 0.305c-24.701 0.012-39.268 17.27-39.289 37.221v205.674zM30.4 283.599c-16.781 0-30.4-13.619-30.4-30.399v-212.801c0-16.78 13.619-30.399 30.4-30.399h364.801c16.779 0 30.398 13.619 30.398 30.398l-355.911 0.305c-24.701 0.012-39.268 17.27-39.289 37.221v205.675z" />
<glyph unicode="&#xe639;" d="M631.332 73c0-8.291 6.71-15 15-15h15v15h30v30h30v30h30l19.47 19.462c7.967-2.888 16.564-4.462 25.53-4.462 41.426 0 75 33.574 75 75s-33.574 75-75 75-75-33.574-75-75c0-4.695 0.439-9.287 1.26-13.74l-91.26-91.26v-45zM818.803 267.97c12.423 0 22.5-10.079 22.5-22.499 0-12.431-10.079-22.5-22.5-22.5-12.429 0-22.5 10.069-22.5 22.5 0 12.42 10.071 22.499 22.5 22.499zM721.385 29.947l-237.553-61.947h543.333l-243.979 61.947zM1441.248 479.988l-1375.832 0.024c-36.761 0.013-65.416-28.643-65.416-63.987v-448.025c104.455 0 466.807 0 466.807 0l0.108 102.436c-74.96 50.348-94.581 204.15 113.969 261.451 92.015 25.283 174.341 61.897 174.341 79.321 0-17.424 66.959-50.094 171.689-79.321 201.199-56.147 180.723-215.752 114.191-260.798l0.059-103.089 461.5-0.045v449.212c0 33.333-29.832 62.833-61.416 62.821z" horiz-adv-x="1503" />
<glyph unicode="&#xe63a;" d="M108.864 131.295h-54.432v-54.431h-54.432v-54.433h54.432v-54.431h54.432v54.431h54.435v54.433h-54.435zM481.601 367.788h-322.801c-16.781 0-30.4-13.619-30.4-30.4v-212.8c0-16.781 13.619-30.4 30.4-30.4h322.8c16.78 0 30.399 13.619 30.399 30.4v212.8c0.001 16.78-13.618 30.4-30.398 30.4zM218 294.645c18.361 0 33.258-19.563 33.258-43.7s-14.896-43.7-33.258-43.7-33.257 19.563-33.257 43.7c0 24.138 14.896 43.7 33.257 43.7zM152.139 155.777c0 0 3.602 28.91 11.795 34.367 8.178 5.457 31.768 9.090 31.768 9.090s15.292-16.34 21.796-16.34c6.491 0 21.782 16.34 21.782 16.34s23.591-3.617 31.783-9.090c9.623-6.414 12.021-34.367 12.021-34.367h-130.945zM425.2 208c-5.977 0-11.709 1.050-17.021 2.975l-12.979-12.975h-20v-20h-20v-20h-20v-10h-10c-5.527 0-10 4.473-10 10v30l60.84 60.84c-0.547 2.969-0.84 6.030-0.84 9.16 0 27.617 22.383 50 50 50s50-22.383 50-50-22.383-50-50-50zM440.181 287.98c-8.286 0-15-6.719-15-15 0-8.286 6.714-15 15-15 8.281 0 15 6.714 15 15 0 8.281-6.719 15-15 15z" />
<glyph unicode="&#xe63b;" d="M448 336h-384c-17.664 0-32-14.336-32-32v-224c0-17.664 14.336-32 32-32h384c17.664 0 32 14.336 32 32v224c0 17.664-14.336 32-32 32zM160 259.008c19.328 0 35.008-20.592 35.008-46s-15.68-46-35.008-46-35.008 20.592-35.008 46 15.68 46 35.008 46zM90.672 112.832c0 0 3.792 30.432 12.416 36.176 8.608 5.744 33.44 9.568 33.44 9.568s16.096-17.2 22.944-17.2c6.832 0 22.928 17.2 22.928 17.2s24.832-3.809 33.456-9.568c10.128-6.752 12.656-36.176 12.656-36.176h-137.84zM381.8 172c-5.978 0-11.709 1.050-17.021 2.975l-12.979-12.975h-20v-20h-20v-20h-20v-10h-10c-5.527 0-10 4.473-10 10v30l60.84 60.84c-0.547 2.969-0.84 6.030-0.84 9.16 0 27.617 22.383 50 50 50s50-22.383 50-50-22.383-50-50-50zM396.78 251.98c-8.286 0-15-6.719-15-15 0-8.286 6.714-15 15-15 8.281 0 15 6.713 15 15 0 8.281-6.718 15-15 15z" />
</font>
</defs>
</svg>
