<?xml version="1.0" standalone="no"?>
<!DOCTYPE svg PUBLIC "-//W3C//DTD SVG 1.1//EN" "http://www.w3.org/Graphics/SVG/1.1/DTD/svg11.dtd" >
<svg xmlns="http://www.w3.org/2000/svg">
<metadata></metadata>
<defs>
<font id="bembobold" horiz-adv-x="1174" >
<font-face units-per-em="2048" ascent="1638" descent="-410" />
<missing-glyph horiz-adv-x="682" />
<glyph horiz-adv-x="2048" />
<glyph horiz-adv-x="2048" />
<glyph unicode="&#xd;" horiz-adv-x="682" />
<glyph unicode=" "  horiz-adv-x="682" />
<glyph unicode="&#x09;" horiz-adv-x="682" />
<glyph unicode="&#xa0;" horiz-adv-x="682" />
<glyph unicode="!" horiz-adv-x="641" d="M156 117q0 58 48 97.5t115 39.5q71 0 118.5 -39.5t47.5 -97.5t-47 -99t-119 -41q-71 0 -117 40.5t-46 99.5zM166 1261q0 25 12 34.5t49 9.5h185q37 0 49.5 -8.5t12.5 -34.5q0 -19 -3 -41l-117 -762h-69l-115 762q-4 26 -4 40z" />
<glyph unicode="&#x22;" horiz-adv-x="1130" d="M176 1151q0 66 42.5 110t105.5 44q62 0 104.5 -44t42.5 -110q0 -52 -20 -129l-103 -383h-49l-102 383q-21 78 -21 129zM659 1151q0 66 42.5 110t105.5 44t105 -44t42 -110q0 -52 -20 -129l-103 -383h-49l-102 383q-21 78 -21 129z" />
<glyph unicode="#" horiz-adv-x="1368" d="M86 326v143h219l74 350h-293v144h322l86 397h143l-86 -397h399l84 397h144l-84 -397h188v-144h-215l-74 -350h289v-143h-317l-84 -396h-144l84 396h-401l-84 -396h-143l83 396h-190zM449 469h401l74 350h-402z" />
<glyph unicode="$" horiz-adv-x="981" d="M59 258q0 50 31.5 83.5t79.5 33.5q42 0 72.5 -24t56 -126t62.5 -135.5t83 -40.5v496q-185 89 -267.5 184t-82.5 221q0 135 90 225t260 113v88h64v-88q149 -7 251.5 -81t102.5 -158q0 -43 -31 -74t-75 -31q-38 0 -68 20.5t-67 127t-113 125.5v-410q218 -105 309.5 -203.5 t91.5 -236.5q0 -151 -109.5 -261t-291.5 -126v-170h-64v170q-166 9 -275.5 92.5t-109.5 185.5zM285 1055q0 -122 159 -213v381q-72 -11 -115.5 -58.5t-43.5 -109.5zM508 47q85 14 137.5 76.5t52.5 142.5q0 143 -190 244v-463z" />
<glyph unicode="%" horiz-adv-x="1835" d="M125 954q0 157 73 254t189 97q117 0 190.5 -97t73.5 -254q0 -150 -75 -247t-189 -97q-113 0 -187.5 97t-74.5 247zM303 811q0 -147 84 -147q86 0 86 147v299q0 143 -86 143q-84 0 -84 -143v-299zM389 -57l911 1364h146l-911 -1364h-146zM1184 328q0 156 73 253t189 97 q117 0 190.5 -96.5t73.5 -253.5q0 -151 -75 -247.5t-189 -96.5q-113 0 -187.5 96.5t-74.5 247.5zM1362 184q0 -147 84 -147q86 0 86 147v299q0 144 -86 144q-84 0 -84 -144v-299z" />
<glyph unicode="&#x26;" horiz-adv-x="1536" d="M117 319q0 227 329 359q-151 138 -151 270q0 110 94.5 179t245.5 69q136 0 217.5 -58.5t81.5 -154.5q0 -148 -186 -238q132 -91 282 -296q64 93 112 191t48 130q0 35 -94 35h-25v78h406v-78h-33q-81 0 -112 -27t-111 -176t-142 -231q112 -202 152 -234.5t78 -32.5 q56 0 114 54l39 -74q-128 -113 -291 -113q-96 0 -155.5 43t-124.5 144q-186 -187 -416 -187q-151 0 -254.5 98t-103.5 250zM369 399q0 -112 72.5 -196t168.5 -84q110 0 236 119q-91 172 -332 389q-145 -88 -145 -228zM518 1008q0 -55 32.5 -99t123.5 -114q88 81 88 180 q0 64 -37 103.5t-96 39.5q-51 0 -81 -30t-30 -80z" />
<glyph unicode="'" horiz-adv-x="575" d="M141 1151q0 66 42.5 110t105.5 44t105 -44t42 -110q0 -52 -20 -129l-103 -383h-49l-102 383q-21 78 -21 129z" />
<glyph unicode="(" horiz-adv-x="725" d="M137 451q0 473 447 854h86q-283 -321 -283 -854t283 -854h-86q-447 380 -447 854z" />
<glyph unicode=")" horiz-adv-x="725" d="M55 -403q283 321 283 854t-283 854h86q447 -381 447 -854q0 -474 -447 -854h-86z" />
<glyph unicode="*" horiz-adv-x="1067" d="M74 938l24 78l326 -29l70 318h75l72 -318l328 29l24 -78l-282 -162l129 -301l-66 -41l-246 215l-241 -215l-68 41l133 301z" />
<glyph unicode="+" horiz-adv-x="1366" d="M135 590v155h469v469h156v-469h469v-155h-469v-469h-156v469h-469z" />
<glyph unicode="," horiz-adv-x="641" d="M131 117q0 61 43.5 99t114.5 38q101 0 161 -64t60 -172q0 -137 -94 -228t-242 -89l-16 86q103 9 164 57t61 113q0 31 -30 31q-8 0 -31 -3t-37 -3q-72 0 -113 36t-41 99z" />
<glyph unicode="-" horiz-adv-x="854" d="M72 313v201h708v-201h-708z" />
<glyph unicode="." horiz-adv-x="641" d="M156 117q0 58 48 97.5t115 39.5q71 0 118.5 -39.5t47.5 -97.5t-47 -99t-119 -41q-71 0 -117 40.5t-46 99.5z" />
<glyph unicode="/" horiz-adv-x="1087" d="M96 -37l731 1350h166l-731 -1350h-166z" />
<glyph unicode="0" horiz-adv-x="1024" d="M86 637q0 309 121.5 488.5t304.5 179.5q180 0 302 -177t122 -491q0 -319 -124 -492.5t-300 -173.5q-183 0 -304.5 178t-121.5 488zM348 387q0 -185 37.5 -262.5t124.5 -77.5q91 0 127.5 81.5t36.5 291.5v452q0 357 -160 357q-89 0 -127.5 -72.5t-38.5 -236.5v-533z" />
<glyph unicode="1" horiz-adv-x="1024" d="M145 1001q243 119 404 304h115v-1143q0 -92 75 -92h131v-70h-651v70h123q72 0 72 84v895q-106 -69 -242 -109z" />
<glyph unicode="2" horiz-adv-x="1024" d="M66 0v72q291 321 370.5 414t124.5 184.5t45 199.5q0 123 -56 194t-151 71q-81 0 -147 -62t-86 -166h-80q26 183 140 290.5t268 107.5t257 -104.5t103 -260.5q0 -134 -65.5 -226.5t-230.5 -244.5t-255 -256h387q72 0 104 34t44 124h67l-41 -371h-798z" />
<glyph unicode="3" horiz-adv-x="1024" d="M57 141q0 46 31.5 76.5t77.5 30.5q31 0 61 -15t72.5 -75.5t74.5 -76t66 -15.5q79 0 128.5 76.5t49.5 201.5q0 131 -57.5 212t-148.5 81q-30 0 -66 -14l-35 59q211 165 211 309q0 68 -41.5 112t-105.5 44q-113 0 -195 -150l-59 27q48 135 144.5 208t219.5 73 q117 0 197 -65.5t80 -160.5q0 -165 -215 -286l4 -5q134 6 221.5 -92.5t87.5 -249.5q0 -204 -144 -340.5t-362 -136.5q-126 0 -211.5 50.5t-85.5 121.5z" />
<glyph unicode="4" horiz-adv-x="1024" d="M68 319v93l585 893h109v-850h174v-136h-174v-350h-250v350h-444zM190 455h322v487h-4z" />
<glyph unicode="5" horiz-adv-x="1024" d="M92 135q0 46 29.5 74.5t77.5 28.5q32 0 61.5 -16t68.5 -75.5t65 -74.5t55 -15q80 0 135 77t55 194q0 136 -68 219.5t-178 83.5q-84 0 -160 -41l-59 31l23 653h456q65 0 74 35h68l-35 -236h-486l-10 -246q88 25 166 25q196 0 322.5 -121t126.5 -309q0 -195 -142 -324 t-358 -129q-126 0 -206.5 47.5t-80.5 118.5z" />
<glyph unicode="6" horiz-adv-x="1024" d="M88 508q0 294 185 512t513 287l39 -64q-377 -132 -446 -522q103 72 211 72q155 0 251.5 -108t96.5 -282q0 -190 -114.5 -311t-293.5 -121q-197 0 -319.5 148t-122.5 389zM350 430q0 -383 170 -383q75 0 115.5 64.5t40.5 267.5q0 182 -39 248.5t-113 66.5q-78 0 -162 -67 q-12 -82 -12 -197z" />
<glyph unicode="7" horiz-adv-x="1024" d="M74 920l28 354h830v-82l-471 -1223h-203l461 1075h-410q-92 0 -119 -20t-43 -104h-73z" />
<glyph unicode="8" horiz-adv-x="1024" d="M94 311q0 200 248 301q-225 158 -225 346q0 147 112.5 247t278.5 100q161 0 276 -91.5t115 -216.5q0 -178 -242 -282q271 -141 271 -365q0 -155 -124.5 -268t-297.5 -113q-168 0 -290 100.5t-122 241.5zM309 317q0 -127 55.5 -199.5t151.5 -72.5q90 0 149.5 58t59.5 147 q0 94 -58.5 156t-248.5 161q-109 -83 -109 -250zM317 1053q0 -88 67.5 -156t211.5 -139q102 82 102 237q0 111 -52 172.5t-146 61.5q-81 0 -132 -49t-51 -127z" />
<glyph unicode="9" horiz-adv-x="1024" d="M82 874q0 184 118 307.5t294 123.5q200 0 321 -147t121 -400q0 -284 -186.5 -502t-511.5 -287l-48 68q369 121 453 520q-111 -70 -211 -70q-152 0 -251 109.5t-99 277.5zM344 911q0 -202 38 -264.5t107 -62.5q78 0 170 63q15 140 15 215q0 367 -176 367 q-77 0 -115.5 -67.5t-38.5 -250.5z" />
<glyph unicode=":" horiz-adv-x="641" d="M156 117q0 58 48 97.5t115 39.5q71 0 118.5 -39.5t47.5 -97.5t-47 -99t-119 -41q-71 0 -117 40.5t-46 99.5zM156 721q0 58 48 97.5t115 39.5q71 0 118.5 -39.5t47.5 -97.5t-47 -98.5t-119 -40.5q-71 0 -117 40t-46 99z" />
<glyph unicode=";" horiz-adv-x="641" d="M131 117q0 61 43.5 99t114.5 38q101 0 161 -64t60 -172q0 -137 -94 -228t-242 -89l-16 86q103 9 164 57t61 113q0 31 -30 31q-8 0 -31 -3t-37 -3q-72 0 -113 36t-41 99zM162 721q0 58 48 97.5t116 39.5q70 0 118 -39.5t48 -97.5t-47.5 -98.5t-118.5 -40.5q-72 0 -118 40 t-46 99z" />
<glyph unicode="&#x3c;" horiz-adv-x="1366" d="M135 596v143l1094 459v-170l-881 -360l881 -361v-170z" />
<glyph unicode="=" horiz-adv-x="1366" d="M135 356v156h1094v-156h-1094zM135 827v156h1094v-156h-1094z" />
<glyph unicode="&#x3e;" horiz-adv-x="1366" d="M137 137v170l881 361l-881 360v170l1094 -459v-143z" />
<glyph unicode="?" horiz-adv-x="748" d="M90 1167q0 62 54.5 100t146.5 38q168 0 276.5 -117t108.5 -299q0 -114 -56.5 -201.5t-186 -126t-146.5 -52t-17 -30.5q0 -34 35 -100h-72q-86 144 -86 233q0 59 39 103t180 83t176.5 76.5t35.5 88.5q0 56 -38 93.5t-96 37.5q-42 0 -113.5 -17.5t-115.5 -17.5 q-125 0 -125 108zM129 117q0 58 48 97.5t116 39.5q70 0 118 -39.5t48 -97.5t-47 -99t-119 -41q-71 0 -117.5 40.5t-46.5 99.5z" />
<glyph unicode="@" horiz-adv-x="1898" d="M92 436q0 412 274.5 682.5t692.5 270.5q322 0 520.5 -187t198.5 -489q0 -301 -174.5 -507t-425.5 -206q-95 0 -149 47.5t-54 130.5q0 58 24 133l-4 4q-97 -170 -175.5 -242.5t-166.5 -72.5q-76 0 -121 61t-45 164q0 274 180.5 506t333.5 232q123 0 142 -156h4l33 119 l243 10l-184 -629q-29 -105 -29 -153q0 -34 23.5 -57t58.5 -23q126 0 278 180.5t152 439.5q0 279 -178.5 455t-462.5 176q-402 0 -643 -275.5t-241 -648.5q0 -345 219.5 -566.5t562.5 -221.5q273 0 503.5 150.5t313.5 402.5h64q-121 -297 -350 -452.5t-533 -155.5 q-385 0 -635 248t-250 630zM743 279q0 -41 17 -68t43 -27q69 0 183 193.5t114 380.5q0 60 -20.5 96.5t-51.5 36.5q-80 0 -182.5 -228.5t-102.5 -383.5z" />
<glyph unicode="A" horiz-adv-x="1516" d="M18 0v80h31q77 0 120 41.5t81 146.5l350 977l-22 60h303l409 -1041q43 -108 87 -144t118 -40v-80h-666v80h72q122 0 122 76q0 31 -19 80l-97 237h-448l-86 -240q-19 -52 -19 -78q0 -75 181 -75h26v-80h-543zM500 586h360l-188 479z" />
<glyph unicode="B" horiz-adv-x="1430" d="M20 0v80q133 0 190.5 33.5t57.5 138.5v762q0 118 -29 149t-149 31h-51v80l590 31q641 0 641 -332q0 -186 -252 -240v-4q152 -34 237.5 -128t85.5 -216q0 -166 -144 -275.5t-384 -109.5h-793zM551 276q0 -100 37.5 -142t148.5 -42q287 0 287 285q0 137 -82 221t-242 84 q-51 0 -149 -6v-400zM551 764q94 -4 158 -4q256 0 256 215q0 250 -306 250q-57 0 -108 -6v-455z" />
<glyph unicode="C" horiz-adv-x="1516" d="M104 633q0 280 228 476t557 196q148 0 264.5 -42t128.5 -42q24 0 41 20h51l19 -358h-80q-106 317 -408 317q-219 0 -357 -151.5t-138 -393.5q0 -247 150 -415t368 -168q291 0 428 295h82q-31 -185 -115 -373q-46 14 -121 14q-42 0 -154 -18.5t-198 -18.5 q-314 0 -530 192.5t-216 469.5z" />
<glyph unicode="D" horiz-adv-x="1686" d="M43 0v80q114 0 152 32t38 111v791q0 114 -38 147t-152 33v80l610 26q412 0 580.5 -81t257 -226.5t88.5 -324.5q0 -259 -194.5 -463.5t-690.5 -204.5h-651zM516 238q0 -113 33.5 -134.5t144.5 -21.5q284 0 432 154t148 405q0 239 -138 401t-460 162q-88 0 -160 -10v-956z " />
<glyph unicode="E" horiz-adv-x="1323" d="M-4 0v80h84q84 0 122 33.5t38 113.5v817q0 90 -39.5 120t-139.5 30h-20v80h1128l21 -297h-78q-13 99 -40.5 141.5t-100.5 42.5h-449v-461h332q85 0 119.5 33t34.5 115h82v-408h-82q0 100 -42.5 124t-142.5 24h-301v-369q0 -60 13.5 -83t62.5 -23h342q125 0 170.5 56 t65.5 153h77l-24 -322h-1233z" />
<glyph unicode="F" horiz-adv-x="1217" d="M78 0v80h33q68 0 94 26t26 91v829q0 92 -27 131t-100 39h-26v78h1034v-289h-74q-4 93 -29 134.5t-100 41.5h-395v-461h285q103 0 140.5 29t37.5 121h82v-408h-82q0 81 -33 113.5t-108 32.5h-322v-330q0 -104 24 -141t113 -37h39v-80h-612z" />
<glyph unicode="G" horiz-adv-x="1599" d="M104 653q0 281 210.5 466.5t535.5 185.5q134 0 276.5 -36t167.5 -36q42 0 62 27h51v-375h-82q-43 159 -155 245.5t-269 86.5q-217 0 -354 -156.5t-137 -405.5q0 -251 141.5 -418t353.5 -167q126 0 219 53v283q0 76 -47.5 100.5t-204.5 28.5v77h680v-77q-76 -1 -110.5 -28 t-34.5 -101v-306q-289 -129 -535 -129q-365 0 -566.5 183.5t-201.5 498.5z" />
<glyph unicode="H" horiz-adv-x="1706" d="M45 0v80h35q151 0 151 149v815q0 150 -153 150h-33v80h657v-80h-28q-88 0 -124 -35t-36 -115v-321h676v315q0 86 -37 121t-127 35h-18v80h655v-80h-37q-83 0 -118 -35t-35 -115v-811q0 -84 36.5 -118.5t120.5 -34.5h33v-80h-655v80h28q154 0 154 158v364h-676v-369 q0 -83 36.5 -118t121.5 -35h30v-80h-657z" />
<glyph unicode="I" horiz-adv-x="748" d="M47 0v80h29q149 0 149 141v819q0 86 -35 120t-116 34h-27v80h651v-80h-34q-156 0 -156 -154v-811q0 -84 37.5 -116.5t122.5 -32.5h30v-80h-651z" />
<glyph unicode="J" horiz-adv-x="705" d="M-246 -346q0 50 43.5 89.5t100.5 39.5q58 0 117.5 -61.5t86.5 -61.5q101 0 101 201v1181q0 83 -36 117.5t-116 34.5h-37v80h650v-80h-31q-148 0 -148 -154v-895q0 -260 -133.5 -435t-376.5 -175q-221 0 -221 119z" />
<glyph unicode="K" horiz-adv-x="1516" d="M41 0v80h37q87 0 122.5 36t35.5 117v805q0 87 -37 121.5t-123 34.5h-35v80h668v-80h-35q-83 0 -119.5 -29.5t-36.5 -134.5v-368q163 25 316 206t153 258q0 68 -123 68h-22v80h547v-80q-144 -10 -189.5 -42.5t-164 -201t-208.5 -233.5q79 -43 217 -219l179 -228 q83 -107 151.5 -148.5t159.5 -41.5v-80h-698v80q143 0 143 55q0 33 -133.5 187.5t-199.5 213t-128 58.5v-365q0 -79 36.5 -114t125.5 -35h29v-80h-668z" />
<glyph unicode="L" horiz-adv-x="1237" d="M27 0v80h34q91 0 130.5 32.5t39.5 114.5v820q0 147 -161 147h-39v80h694v-80h-59q-152 0 -152 -143v-844q0 -56 20 -75t82 -19h261q84 0 142 44t173 199h82l-150 -356h-1097z" />
<glyph unicode="M" horiz-adv-x="1898" d="M41 0v80q113 1 139.5 40t34.5 177l45 741q1 15 1 29q0 67 -21 93q-25 30 -117 34v80h432l399 -860l383 860h441v-80q-85 -3 -118 -14t-33 -79q0 -18 3 -63l49 -755q7 -111 24 -152t157 -51v-80h-646v80h35q83 0 120.5 22t37.5 111q0 33 -4 96l-47 727h-4l-459 -1036h-49 l-467 1012h-4l-45 -729q-3 -42 -3 -63q0 -75 34 -107t137 -33v-80h-455z" />
<glyph unicode="N" horiz-adv-x="1665" d="M49 0v80h12q82 0 119 27.5t37 101.5v940q-66 45 -164 45v80h422l836 -873v619q0 113 -36 143.5t-159 30.5h-20v80h528v-80h-20q-93 0 -130.5 -22t-37.5 -82v-1096h-113l-981 1026v-774q0 -103 44.5 -134.5t158.5 -31.5v-80h-496z" />
<glyph unicode="O" horiz-adv-x="1729" d="M106 616q0 303 221.5 500t563.5 197q321 0 526 -183t205 -468q0 -292 -212.5 -491.5t-557.5 -199.5q-334 0 -540 186t-206 459zM412 715q0 -293 136 -474.5t351 -181.5q195 0 306.5 146.5t111.5 382.5q0 272 -130.5 454.5t-344.5 182.5q-195 0 -312.5 -139.5 t-117.5 -370.5z" />
<glyph unicode="P" horiz-adv-x="1323" d="M45 1194v80q437 33 657 33q269 0 416.5 -111.5t147.5 -290.5q0 -177 -140 -283t-376 -106q-112 0 -234 21v-304q0 -87 38 -120t140 -33h62v-80h-697v80h31q84 0 113.5 23t29.5 94v878q0 72 -29 95.5t-114 23.5h-45zM516 621q59 -15 148 -15q143 0 220 80.5t77 231.5 q0 141 -79 220t-220 79q-77 0 -146 -15v-581z" />
<glyph unicode="Q" horiz-adv-x="1729" d="M106 623q0 297 223 493.5t562 196.5q321 0 526 -183t205 -466q0 -239 -153.5 -423.5t-399.5 -240.5q80 -47 216 -178t211.5 -162.5t152.5 -32.5l-35 -80q-47 -12 -115 -12q-123 0 -258.5 51t-361.5 237q-184 152 -277 183q-225 58 -360.5 226.5t-135.5 390.5zM412 715 q0 -294 135 -476t350 -182q199 0 309.5 149.5t110.5 387.5q0 254 -128.5 442.5t-348.5 188.5q-194 0 -311 -139t-117 -371z" />
<glyph unicode="R" horiz-adv-x="1579" d="M20 0v80h33q104 0 141 33.5t37 115.5v809q0 93 -39 124.5t-124 31.5h-43v80l600 31q397 0 531 -108.5t134 -266.5q0 -115 -78.5 -202.5t-224.5 -127.5q69 -55 195.5 -229.5t209 -238t218.5 -73.5v-79q-38 -3 -127 -3q-183 0 -279.5 28.5t-156.5 86.5t-180.5 224.5 t-190.5 224.5h-162v-312q0 -80 38 -114.5t124 -34.5h61v-80h-717zM514 627h80q204 0 297.5 71.5t93.5 223.5q0 144 -95.5 219.5t-268.5 75.5h-107v-590z" />
<glyph unicode="S" horiz-adv-x="1153" d="M119 377h80q103 -307 350 -307q101 0 169 57.5t68 142.5q0 68 -49 130.5t-264.5 174.5t-279.5 203.5t-64 192.5q0 146 116.5 240t299.5 94q109 0 205.5 -27t105.5 -27q23 0 45 23h43l39 -332h-82q-36 128 -127 201.5t-207 73.5q-86 0 -143 -41t-57 -101q0 -51 39 -99.5 t255 -161.5t304 -220.5t88 -241.5q0 -158 -127 -269.5t-310 -111.5q-111 0 -224.5 33t-125.5 33q-28 0 -43 -33h-53z" />
<glyph unicode="T" horiz-adv-x="1493" d="M57 926l37 383h66q31 -35 98 -35h975q67 0 98 35h66l37 -383h-84q-30 161 -66.5 201t-155.5 40h-241v-934q0 -92 41 -122.5t137 -30.5h49v-80h-737v80h69q85 0 121.5 35.5t36.5 117.5v934h-242q-118 0 -155 -39.5t-66 -201.5h-84z" />
<glyph unicode="U" horiz-adv-x="1579" d="M10 1194v80h641v-80h-35q-145 0 -145 -139v-611q0 -162 100.5 -248.5t270.5 -86.5q192 0 296.5 99.5t104.5 276.5v498q0 116 -38.5 163.5t-129.5 47.5h-37v80h531v-80h-15q-93 0 -140.5 -34t-47.5 -136v-510q0 -269 -150.5 -406t-424.5 -137q-287 0 -445 123.5 t-158 349.5v611q0 83 -31.5 111t-111.5 28h-35z" />
<glyph unicode="V" horiz-adv-x="1536" d="M10 1194v80h711v-80h-35q-169 0 -169 -85q0 -35 28 -93l321 -684l314 745q8 20 8 37q0 80 -144 80h-40v80h520v-80h-15q-77 0 -124 -35.5t-109 -181.5l-426 -1006h-129l-483 1051q-50 107 -85.5 139.5t-127.5 32.5h-15z" />
<glyph unicode="W" horiz-adv-x="2048" d="M12 1194v80h543v-80q-76 -7 -76 -53q0 -25 23 -72l379 -790l131 268l-242 508q-43 88 -70.5 113.5t-68.5 25.5v80h897v-80q-58 -12 -86.5 -39.5t-69.5 -110.5l-149 -303l215 -436l282 717q22 55 22 90q0 80 -120 82v80h414v-80q-68 -3 -111.5 -38.5t-87.5 -145.5 l-414 -1039h-133l-219 451l-213 -451h-137l-500 1051q-50 107 -83 139.5t-109 32.5h-17zM1028 1156q0 -19 16 -52l117 -236l117 232q19 36 19 55q0 39 -83 39h-110q-76 0 -76 -38z" />
<glyph unicode="X" horiz-adv-x="1642" d="M18 0v80q97 9 169 49.5t173 144.5l322 332l-307 385q-92 115 -154 159t-141 44h-49v80h776v-80h-74q-103 0 -103 -46q0 -28 40 -77l209 -260l206 217q73 78 73 119q0 47 -97 47h-53v80h553v-80q-90 0 -155.5 -35t-156.5 -131l-293 -311l367 -457q89 -110 151.5 -143.5 t149.5 -36.5v-80h-717v80h41q101 0 101 57q0 34 -41 82l-250 295l-316 -324q-32 -32 -32 -57q0 -53 125 -53h45v-80h-562z" />
<glyph unicode="Y" horiz-adv-x="1536" d="M16 1194v80h668v-80h-25q-113 0 -113 -54q0 -22 21 -50l328 -433l238 373q38 61 38 99q0 65 -112 65h-25v80h484v-80q-77 -4 -121.5 -26t-106.5 -117l-350 -539v-281q0 -90 42.5 -120.5t135.5 -30.5h31v-80h-698v80h51q81 0 118 33t37 114v285l-440 586q-46 60 -79 78 t-107 18h-15z" />
<glyph unicode="Z" horiz-adv-x="1536" d="M119 0v113l909 1048h-551q-100 0 -143.5 -56.5t-52.5 -174.5h-78l14 344h1184v-117l-909 -1044h626q120 0 164 68.5t80 228.5h78l-25 -410h-1296z" />
<glyph unicode="[" horiz-adv-x="748" d="M236 -383v1657h491v-68h-55q-107 0 -156 -15t-49 -75v-1341q0 -60 49 -75t156 -15h55v-68h-491z" />
<glyph unicode="\" horiz-adv-x="1087" d="M94 1313h166l731 -1350h-166z" />
<glyph unicode="]" horiz-adv-x="748" d="M20 -315h56q106 0 155.5 15t49.5 75v1341q0 60 -49.5 75t-155.5 15h-56v68h492v-1657h-492v68z" />
<glyph unicode="^" horiz-adv-x="1194" d="M147 651l408 719h82l407 -719h-170l-278 494l-279 -494h-170z" />
<glyph unicode="_" horiz-adv-x="1024" d="M-16 -154h1056v-102h-1056v102z" />
<glyph unicode="`" horiz-adv-x="682" d="M14 1364h330l152 -387h-119z" />
<glyph unicode="a" horiz-adv-x="981" d="M78 193q0 88 49 146.5t190 103.5q167 53 246 120v76q0 59 -36.5 98t-92.5 39q-109 0 -109 -120q0 -18 3 -38l-230 -79q-9 40 -9 72q0 120 141.5 183.5t248.5 63.5q120 0 227 -66.5t107 -183.5v-387q0 -94 45 -94q22 0 55 25l31 -50q-51 -54 -117.5 -88t-115.5 -34 q-121 0 -144 126q-79 -79 -131 -104t-121 -25q-108 0 -172.5 58.5t-64.5 157.5zM324 233q0 -64 28 -102.5t74 -38.5q48 0 137 86v293q-30 -27 -102 -61t-104.5 -68t-32.5 -109z" />
<glyph unicode="b" d="M33 1221v49l311 100h66v-684q184 172 342 172q137 0 233 -114.5t96 -278.5q0 -208 -147.5 -348t-366.5 -140q-153 0 -407 66v1028q0 73 -14.5 90.5t-112.5 59.5zM410 344q0 -146 43.5 -212t140.5 -66q109 0 170 81.5t61 227.5q0 143 -66 232t-169 89q-99 0 -180 -106 v-246z" />
<glyph unicode="c" horiz-adv-x="1004" d="M90 383q0 200 153.5 337.5t377.5 137.5q133 0 221 -50t88 -124q0 -46 -28.5 -74t-76.5 -28q-34 0 -69.5 16.5t-101 91t-122.5 74.5q-75 0 -123.5 -85t-48.5 -224q0 -166 72 -268.5t184 -102.5q139 0 263 145l59 -32q-145 -220 -418 -220q-187 0 -308.5 115t-121.5 291z " />
<glyph unicode="d" d="M88 365q0 205 128 349t349 144q97 0 185 -27v263q0 58 -32 83.5t-106 41.5v49l318 102h69v-1100q0 -87 15.5 -119t66.5 -32q27 0 62 10v-63l-340 -89h-53v164q-184 -164 -330 -164q-144 0 -238 109.5t-94 278.5zM336 473q0 -154 63.5 -248t165.5 -94q96 0 185 102v455 q-96 88 -197 88t-159 -80t-58 -223z" />
<glyph unicode="e" horiz-adv-x="981" d="M86 397q0 202 123.5 331.5t314.5 129.5q128 0 223.5 -66t123.5 -214q15 -78 47 -91v-59h-568q15 -132 89.5 -215.5t162.5 -83.5q109 0 250 147l47 -38q-89 -125 -205.5 -193t-232.5 -68q-166 0 -270.5 117t-104.5 303zM344 508h291q-2 122 -41.5 188t-104.5 66 q-63 0 -109 -73q-37 -60 -38 -143q0 -19 2 -38z" />
<glyph unicode="f" horiz-adv-x="662" d="M18 0v66h37q65 0 90 32t25 111v520h-152v41l154 66q0 240 170.5 390t359.5 150q101 0 184 -43t83 -84q0 -11 -17 -32l-63 -82q-21 -27 -43 -27q-25 0 -109 76t-155 76q-162 0 -162 -222v-202h203l-13 -107h-190v-502q0 -92 38 -126.5t138 -34.5h43v-66h-621z" />
<glyph unicode="g" horiz-adv-x="1130" d="M84 -268q0 35 18.5 64.5t92.5 63.5t90 66q-176 61 -176 193q0 60 59.5 95.5t218.5 76.5v4q-112 7 -190 83.5t-78 166.5q0 132 120 222.5t298 90.5q167 0 276 -82l289 74v-211l-205 47q41 -55 41 -131q0 -126 -113 -205.5t-319 -79.5q-7 0 -65.5 -22.5t-81.5 -39.5 t-23 -34q0 -68 254 -68h180q138 0 224.5 -64.5t86.5 -172.5q0 -144 -164.5 -243t-412.5 -99q-182 0 -301 59.5t-119 145.5zM301 -209q0 -71 89.5 -123.5t213.5 -52.5q127 0 210 49.5t83 122.5q0 102 -170 102h-164q-109 0 -182 17q-80 -58 -80 -115zM371 575 q0 -225 170 -225q143 0 143 180q0 114 -42.5 177t-119.5 63q-71 0 -111 -51.5t-40 -143.5z" />
<glyph unicode="h" horiz-adv-x="1153" d="M18 0v66h29q74 0 93.5 30.5t19.5 118.5v895q0 39 -8.5 57t-57.5 35l-59 21v47l325 100h50v-668q226 156 368 156q223 0 223 -362v-271q0 -99 19 -129t74 -30h20v-66h-483v66h16q63 0 84 29t21 120v309q0 83 -36.5 132t-97.5 49q-88 0 -208 -78v-420q0 -91 23 -116t83 -25 h21v-66h-519z" />
<glyph unicode="i" horiz-adv-x="598" d="M31 0v66h22q65 0 90 32t25 111v393q0 37 -11 54t-59 34l-67 25v49l350 117h37v-686q0 -129 125 -129v-66h-512zM121 1206q0 55 49.5 97.5t114.5 42.5q69 0 115 -40.5t46 -99.5q0 -58 -48 -98.5t-113 -40.5q-71 0 -117.5 40t-46.5 99z" />
<glyph unicode="j" horiz-adv-x="575" d="M-238 -348q0 47 40 85t89 38q59 0 113.5 -68.5t83.5 -68.5q36 0 59 49.5t23 134.5v776q0 47 -10.5 61.5t-57.5 30.5l-69 25v49l346 117h41v-871q0 -207 -119.5 -343t-327.5 -136q-211 0 -211 121zM125 1206q0 55 49.5 97.5t114.5 42.5q69 0 115.5 -40.5t46.5 -99.5 q0 -58 -48.5 -98.5t-113.5 -40.5q-71 0 -117.5 40t-46.5 99z" />
<glyph unicode="k" horiz-adv-x="1110" d="M31 0v66q73 0 99 31t26 112v901q0 39 -8.5 57t-57.5 35l-59 21v47l325 100h50v-891l286 240q15 14 15 27q0 24 -50 24h-49v66h424v-66q-134 0 -268 -113l-129 -108l297 -371q91 -112 158 -112h18v-66h-473v66q50 0 50 23q0 15 -21 42l-254 330h-4v-258q0 -77 28.5 -107 t91.5 -30v-66h-495z" />
<glyph unicode="l" horiz-adv-x="555" d="M8 1208v60l354 102h37v-1161q0 -79 29 -111t94 -32v-66h-508v66h21q64 0 89.5 31.5t25.5 111.5v844q0 68 -9 88.5t-45 34.5z" />
<glyph unicode="m" horiz-adv-x="1898" d="M35 713v49l346 119h37v-236q299 213 442 213q184 0 213 -213q293 213 457 213q113 0 164 -84.5t51 -267.5v-320q0 -65 22 -92.5t93 -27.5v-66h-482v66q64 3 90.5 54.5t26.5 176.5v178q0 227 -127 227q-96 0 -287 -129v-370q0 -137 115 -137v-66h-481v66q66 0 91 31 t25 112v293q0 200 -124 200q-104 0 -289 -129v-376q0 -131 121 -131h16v-66h-516v66h12q66 0 91.5 32t25.5 111v399q0 32 -16.5 51t-116.5 54z" />
<glyph unicode="n" d="M31 713v49l350 119h39v-183q243 160 379 160q113 0 164 -84.5t51 -267.5v-320q0 -64 22.5 -92t93.5 -28v-66h-483v66q63 3 90 54.5t27 176.5v178q0 227 -127 227q-88 0 -217 -90v-415q0 -131 121 -131h18v-66h-518v66h12q66 0 91.5 32t25.5 111v399q0 34 -21.5 56.5 t-117.5 48.5z" />
<glyph unicode="o" d="M88 406q0 192 147.5 322t366.5 130q210 0 346.5 -120.5t136.5 -305.5q0 -193 -147 -324t-367 -131q-211 0 -347 121t-136 308zM358 526q0 -175 73.5 -317.5t197.5 -142.5q88 0 137 66t49 187q0 199 -75.5 325t-190.5 126q-90 0 -140.5 -64t-50.5 -180z" />
<glyph unicode="p" d="M27 -401h24q61 0 86 30.5t25 104.5v860q0 79 -56 98l-75 27v51l327 111h54v-197q127 105 199.5 139.5t142.5 34.5q140 0 236.5 -111.5t96.5 -275.5q0 -198 -128 -346t-338 -148q-92 0 -209 27v-219q0 -103 39.5 -141t162.5 -45v-64h-587v64zM412 154q99 -101 211 -101 q93 0 153 84t60 217q0 152 -61 251.5t-163 99.5q-84 0 -200 -105v-446z" />
<glyph unicode="q" d="M90 367q0 207 144.5 349t355.5 142q158 0 301 -82l88 82h49q-18 -135 -18 -250v-870q0 -71 24 -102.5t99 -36.5v-64h-580v64h80q71 0 99 29t28 116v408q-182 -175 -334 -175q-142 0 -239 112t-97 278zM346 455q0 -139 65.5 -227.5t166.5 -88.5q90 0 182 103v286 q0 242 -178 242q-109 0 -172.5 -84.5t-63.5 -230.5z" />
<glyph unicode="r" horiz-adv-x="811" d="M45 0v66h14q65 0 90 32t25 111v334q0 67 -11 93.5t-118 65.5v52l336 127h43v-230h4q62 123 96.5 165t81.5 42q24 0 41 -6l162 -59q-38 -133 -98 -218q-133 52 -166 52q-56 0 -121 -92v-332q0 -79 31 -108t106 -29h53v-66h-569z" />
<glyph unicode="s" horiz-adv-x="768" d="M86 242h66q26 -84 85 -130t128 -46q43 0 74.5 28t31.5 66q0 29 -25 60t-150.5 108t-167.5 140.5t-42 129.5q0 116 88.5 188t233.5 72q111 0 229 -43l4 -219h-66q-57 174 -192 174q-40 0 -67 -22.5t-27 -55.5q0 -35 27 -69t158.5 -107t174.5 -139t43 -139q0 -114 -74 -186 t-192 -72q-97 0 -152.5 14t-64.5 14q-18 0 -41 -26h-59z" />
<glyph unicode="t" horiz-adv-x="705" d="M49 723v53q93 40 181 133.5t118 182.5h60v-256h268l-31 -113h-237v-496q0 -108 94 -108q71 0 155 102l29 -57q-48 -85 -131 -136t-166 -51q-231 0 -231 254v492h-109z" />
<glyph unicode="u" d="M68 735v47l294 76h41v-522q0 -203 134 -203q76 0 206 84v371q0 57 -12 80.5t-61 38.5l-95 28v47l377 76h41v-627q0 -68 9 -95t51 -27q30 0 61 12v-64l-332 -80h-39v164q-256 -164 -366 -164q-103 0 -163 79.5t-60 201.5v342q0 65 -12 89t-74 46z" />
<glyph unicode="v" horiz-adv-x="1067" d="M8 770v66h520v-66h-71q-45 0 -45 -47q0 -27 18 -68l182 -407l160 360q22 49 22 79q0 69 -143 83v66h408v-66q-78 -7 -110.5 -32t-61.5 -91l-293 -661h-123l-305 657q-31 66 -62 93t-96 34z" />
<glyph unicode="w" horiz-adv-x="1599" d="M8 770v66h490v-66q-80 -5 -80 -67q0 -19 10 -41l164 -392l164 373q-47 127 -129 127v66h465v-66q-91 0 -91 -62q0 -26 15 -61l155 -377l144 351q14 34 14 62q0 82 -117 87v66h377v-66q-73 -7 -108.5 -42.5t-75.5 -131.5l-258 -610h-113l-229 534l-246 -534h-108l-283 659 q-55 125 -160 125z" />
<glyph unicode="x" horiz-adv-x="1087" d="M18 770v66h502v-66q-69 0 -69 -33q0 -14 16 -35l125 -153l113 121q27 28 27 52q0 48 -89 48v66h383v-66q-116 -12 -244 -145l-139 -146l262 -321q75 -92 154 -92h12v-66h-528v66h18q63 0 63 37q0 21 -24 51l-125 155l-108 -114q-50 -54 -50 -87q0 -42 80 -42v-66h-362v66 q82 0 174 94l211 217l-236 282q-87 109 -166 111z" />
<glyph unicode="y" horiz-adv-x="1067" d="M2 770v66h522v-66q-103 0 -103 -57q0 -26 19 -66l170 -352l156 315q19 40 19 72q0 86 -126 88v66h381v-66q-57 -12 -91.5 -36t-84.5 -126l-458 -934q-76 -151 -187 -151q-55 0 -92 33t-37 84q0 114 143 129q65 7 110 35t89 126l41 90l-276 564q-56 115 -93 150.5 t-102 35.5z" />
<glyph unicode="z" horiz-adv-x="1044" d="M61 0v66l541 657h-285q-60 0 -94 -33.5t-82 -140.5h-67l67 344h68q-3 -10 -3 -18q0 -39 70 -39h685v-58l-547 -665h264q102 0 142 27.5t118 144.5h63l-96 -285h-844z" />
<glyph unicode="{" horiz-adv-x="811" d="M129 420v57q92 10 144.5 76t52.5 147q0 57 -27 166t-27 172q0 125 109.5 228.5t302.5 103.5v-47q-96 -14 -145.5 -70t-49.5 -123q0 -64 24 -172t24 -174q0 -114 -87.5 -206.5t-238.5 -126.5v-5q151 -34 238.5 -126.5t87.5 -206.5q0 -62 -24 -170t-24 -176 q0 -67 49.5 -123t145.5 -70v-47q-193 0 -302.5 104t-109.5 228q0 65 27 174t27 164q0 81 -52.5 147t-144.5 76z" />
<glyph unicode="|" horiz-adv-x="1159" d="M500 -276v1589h159v-1589h-159z" />
<glyph unicode="}" horiz-adv-x="811" d="M127 -426q96 14 145.5 70t49.5 123q0 48 -24 164t-24 182q0 114 87.5 206.5t238.5 126.5v5q-151 34 -238.5 126.5t-87.5 206.5q0 65 24 176.5t24 169.5q0 67 -49.5 123t-145.5 70v47q193 0 302.5 -103.5t109.5 -228.5q0 -61 -27 -170t-27 -168q0 -81 52.5 -147t144.5 -76 v-57q-92 -10 -144.5 -76t-52.5 -147q0 -66 27 -175t27 -163q0 -124 -109.5 -228t-302.5 -104v47z" />
<glyph unicode="~" horiz-adv-x="1067" d="M-31 457q10 362 307 362q112 0 389 -102q145 -53 191 -53q87 0 122 36t42 119h80q-10 -362 -316 -362q-116 0 -367 109q-145 63 -206 63q-140 0 -162 -172h-80z" />
<glyph unicode="&#xa1;" horiz-adv-x="641" d="M156 711q0 58 47 98.5t119 40.5q71 0 117 -40.5t46 -98.5t-48 -98t-115 -40q-71 0 -118.5 40t-47.5 98zM166 -436q0 15 4 43l117 762h69l115 -762q4 -26 4 -41q0 -25 -11.5 -34t-49.5 -9h-185q-63 0 -63 41z" />
<glyph unicode="&#xa2;" horiz-adv-x="1004" d="M90 383q0 194 151 334t377 140q34 0 68 -3l96 242h84l-102 -258q166 -44 166 -154q0 -46 -28.5 -74t-74.5 -28q-74 0 -139 71l-207 -518q59 -51 140 -51q133 0 258 145l59 -32q-149 -219 -409 -219q-52 0 -107 10l-131 -332h-84l139 352q-256 105 -256 375zM360 457 q0 -155 62 -254l209 512q-52 49 -99 49q-74 0 -123 -85.5t-49 -221.5z" />
<glyph unicode="&#xa3;" horiz-adv-x="1706" d="M72 -385q0 118 231 248q85 164 156 336h-299l26 77h306l165 355q184 391 351 558t344 167q115 0 201.5 -49.5t86.5 -108.5q0 -43 -36.5 -87t-73.5 -44q-45 0 -117.5 100.5t-122.5 100.5q-47 0 -93 -52t-181.5 -379t-270.5 -561h379l-24 -77h-410q-97 -156 -207 -267l4 -4 q108 35 189 35q79 0 166.5 -34.5t209.5 -137t163 -122t73 -19.5q58 0 94.5 34t36.5 80q0 47 -32.5 109.5t-32.5 106.5q0 43 27 69.5t71 26.5q58 0 93.5 -48t35.5 -128q0 -153 -127 -259t-272 -106q-88 0 -181 33.5t-214 136.5t-167 123t-85 20q-42 0 -142 -36 q-123 -277 -250 -277q-30 0 -50.5 23t-20.5 57z" />
<glyph unicode="&#xa4;" horiz-adv-x="1366" d="M182 274l129 127q-86 124 -86 267q0 140 86 266l-129 127l107 106l129 -129q129 86 264 86q140 0 268 -86l127 129l105 -106l-127 -129q86 -124 86 -266q0 -141 -86 -265l127 -127l-105 -106l-127 127q-126 -86 -264 -86q-140 0 -268 86l-129 -127zM375 668 q0 -127 91 -218.5t218 -91.5q126 0 216.5 91.5t90.5 218.5q0 125 -91 216t-216 91q-127 0 -218 -91t-91 -216z" />
<glyph unicode="&#xa5;" horiz-adv-x="1024" d="M-225 1194v80h657v-80h-24q-132 0 -132 -63q0 -21 19 -46l92 -122h434l43 67q37 57 37 96q0 68 -110 68h-25v80h483v-80q-72 -4 -118.5 -26t-108.5 -117l-57 -88h227v-80h-279l-190 -291h469v-80h-520v-281q0 -90 42.5 -120.5t135.5 -30.5h31v-80h-682v80h51 q81 0 118.5 33t37.5 114v285h-574v80h520l-217 291h-303v80h244l-101 135q-44 60 -77.5 78t-108.5 18h-14zM446 883l170 -234l152 234h-322z" />
<glyph unicode="&#xa6;" horiz-adv-x="1159" d="M500 -276v682h159v-682h-159zM500 633v680h159v-680h-159z" />
<glyph unicode="&#xa7;" horiz-adv-x="961" d="M92 854q0 211 145.5 356.5t329.5 145.5q103 0 183.5 -44t80.5 -98q0 -39 -29.5 -72.5t-64.5 -33.5q-42 0 -125.5 76t-138.5 76q-40 0 -69 -28t-29 -65q0 -35 27.5 -95t187.5 -298.5t219 -391t59 -267.5q0 -191 -151 -333t-355 -142q-85 0 -159 47.5t-74 101.5q0 40 29 69 t67 29q44 0 116 -72.5t132 -72.5q43 0 71.5 27.5t28.5 68.5q0 42 -29.5 107.5t-186 293.5t-211 367.5t-54.5 247.5zM203 915q0 -77 40 -184t194 -356.5t191.5 -357t28.5 -181.5v4l5 -4q96 109 96 242q0 74 -39.5 178.5t-192 350t-193 348.5t-46.5 175q-84 -78 -84 -215z" />
<glyph unicode="&#xa8;" horiz-adv-x="682" d="M20 1145q0 50 36.5 86.5t86.5 36.5q51 0 87 -36.5t36 -86.5q0 -51 -36 -87t-87 -36q-50 0 -86.5 36t-36.5 87zM418 1145q0 50 36 86.5t87 36.5q50 0 86.5 -36.5t36.5 -86.5q0 -51 -36.5 -87t-86.5 -36q-51 0 -87 36t-36 87z" />
<glyph unicode="&#xa9;" horiz-adv-x="1536" d="M59 678q0 292 208.5 500t500.5 208t500.5 -208t208.5 -500t-208.5 -500.5t-500.5 -208.5t-500.5 208.5t-208.5 500.5zM147 678q0 -255 183 -438t438 -183t438 183t183 438t-183 437.5t-438 182.5t-438 -182.5t-183 -437.5zM336 668q0 190 124.5 315t313.5 125 q86 0 157.5 -26.5t86.5 -26.5q38 0 47 51h39v-264h-39q-21 103 -87 160t-159 57q-122 0 -191 -97.5t-69 -271.5q0 -180 69.5 -275.5t186.5 -95.5q149 0 260 140v-72q-123 -127 -319 -127q-185 0 -302.5 114t-117.5 294z" />
<glyph unicode="&#xaa;" horiz-adv-x="748" d="M100 915q0 40 24.5 79.5t128.5 69t163 73.5v45q0 78 -80 78q-39 0 -59.5 -26t-14.5 -65l-149 -47q-5 17 -5 34q0 89 98 123t156 34q76 0 147 -40.5t71 -115.5v-235q0 -48 27 -48q16 0 36 17l23 -31q-80 -74 -154 -74t-94 76q-75 -76 -162 -76q-72 0 -114 35t-42 94z M260 940q0 -86 66 -86q31 0 90 57v170q-22 -21 -69.5 -41t-67 -38.5t-19.5 -61.5z" />
<glyph unicode="&#xab;" horiz-adv-x="874" d="M47 451l344 378h68l-166 -378l166 -379h-68zM469 451l279 352h67l-129 -352l129 -353h-67z" />
<glyph unicode="&#xac;" horiz-adv-x="1366" d="M135 825v158h1094v-629h-158v471h-936z" />
<glyph unicode="&#xad;" horiz-adv-x="854" d="M72 313v201h708v-201h-708z" />
<glyph unicode="&#xae;" horiz-adv-x="1536" d="M59 678q0 292 208.5 500t500.5 208t500.5 -208t208.5 -500t-208.5 -500.5t-500.5 -208.5t-500.5 208.5t-208.5 500.5zM147 678q0 -255 183 -438t438 -183t438 183t183 438t-183 437.5t-438 182.5t-438 -182.5t-183 -437.5zM373 281v32q61 -2 82.5 25.5t21.5 112.5v473 q0 87 -19.5 107.5t-68.5 23.5v35h399q153 0 235.5 -59.5t82.5 -160.5q0 -154 -178 -206l135 -250q49 -92 106 -101v-32h-241l-207 368h-45v-198q0 -85 21.5 -110t99.5 -28v-32h-424zM676 700q24 -4 46 -4q79 0 124 50t45 131q0 170 -166 170h-49v-347z" />
<glyph unicode="&#xaf;" horiz-adv-x="1024" d="M-16 1428v102h1056v-102h-1056z" />
<glyph unicode="&#xb0;" horiz-adv-x="811" d="M59 961q0 142 102 244t245 102q142 0 244 -102t102 -244q0 -143 -102 -245t-244 -102q-143 0 -245 102t-102 245zM190 961q0 -89 63.5 -152.5t152.5 -63.5q88 0 151.5 63.5t63.5 152.5q0 88 -63.5 151.5t-151.5 63.5q-89 0 -152.5 -63.5t-63.5 -151.5z" />
<glyph unicode="&#xb1;" horiz-adv-x="1368" d="M137 -47v156h1094v-156h-1094zM137 762v156h469v468h156v-468h469v-156h-469v-469h-156v469h-469z" />
<glyph unicode="&#xb2;" horiz-adv-x="641" d="M43 623v45q180 163 249.5 244t69.5 163q0 129 -108 129q-102 0 -129 -119h-70q16 100 86 157.5t168 57.5q97 0 160 -54.5t63 -137.5q0 -69 -35 -113t-130.5 -120.5t-151.5 -129.5h193q48 0 65.5 14.5t28.5 65.5h61l-24 -202h-496z" />
<glyph unicode="&#xb3;" horiz-adv-x="641" d="M63 700q0 24 21.5 43t56.5 19q48 0 85 -47t77 -47q41 0 66.5 37t25.5 98q0 64 -30.5 103.5t-79.5 39.5q-19 0 -45 -8l-27 41q125 78 125 160q0 32 -21 52.5t-53 20.5q-63 0 -108 -86l-56 23q63 151 230 151q74 0 124 -35.5t50 -86.5q0 -77 -113 -138v-4q170 -22 170 -180 q0 -107 -88 -178.5t-223 -71.5q-78 0 -132.5 28t-54.5 66z" />
<glyph unicode="&#xb4;" horiz-adv-x="682" d="M178 977l152 387h329l-362 -387h-119z" />
<glyph unicode="&#xb5;" horiz-adv-x="1130" d="M55 -322q0 52 36 191t36 324v643h250v-594q0 -63 32 -98t83 -35q116 0 192 120v607h250v-611q0 -102 67 -102q64 0 78 143h41q1 -144 -78 -219.5t-180 -75.5q-70 0 -107 34t-65 124q-138 -158 -315 -158q-74 0 -152 58q0 -109 30 -204.5t30 -131.5q0 -61 -33 -97t-88 -36 q-107 0 -107 118z" />
<glyph unicode="&#xb6;" horiz-adv-x="1110" d="M0 813q0 160 74.5 269.5t185.5 150.5t332 41h516v-45h-43q-145 0 -145 -139v-1567h-101v1673h-180v-1673h-100v823q-259 0 -399 127.5t-140 339.5z" />
<glyph unicode="&#xb7;" horiz-adv-x="641" d="M156 639q0 58 48 97.5t115 39.5q71 0 118.5 -39.5t47.5 -97.5t-47 -98.5t-119 -40.5q-71 0 -117 40.5t-46 98.5z" />
<glyph unicode="&#xb8;" horiz-adv-x="682" d="M119 -371l18 62q56 -23 115 -23q37 0 63.5 24.5t26.5 57.5q0 70 -117 80l129 180h70l-45 -78q125 -35 125 -161q0 -83 -59 -137t-148 -54q-100 0 -178 49z" />
<glyph unicode="&#xb9;" horiz-adv-x="641" d="M90 1143q147 60 248 157h86v-587q0 -41 29 -41h90v-49h-408v49h88q27 0 27 37v440q-69 -34 -137 -49z" />
<glyph unicode="&#xba;" horiz-adv-x="768" d="M59 1042q0 115 96 193t240 78q137 0 225.5 -72.5t88.5 -183.5q0 -115 -96 -193t-238 -78q-138 0 -227 72.5t-89 183.5zM236 1114q0 -118 49.5 -194t124.5 -76q122 0 122 147q0 118 -48 191t-124 73q-124 0 -124 -141z" />
<glyph unicode="&#xbb;" horiz-adv-x="874" d="M59 98l129 353l-129 352h68l279 -352l-279 -353h-68zM416 72l166 379l-166 378h67l344 -378l-344 -379h-67z" />
<glyph unicode="&#xbc;" horiz-adv-x="1686" d="M84 1147q147 60 248 157h86v-587q0 -41 29 -41h90v-49h-408v49h88q27 0 27 37v440q-69 -34 -137 -49zM233 -57l911 1362h145l-913 -1362h-143zM870 162v55l349 461h84v-434h102v-82h-102v-178h-173v178h-260zM973 244h157v209h-4z" />
<glyph unicode="&#xbd;" horiz-adv-x="1686" d="M84 1147q147 60 248 157h86v-587q0 -41 29 -41h90v-49h-408v49h88q27 0 27 37v440q-69 -34 -137 -49zM233 -57l911 1362h145l-913 -1362h-143zM934 0v45q180 163 249.5 244t69.5 163q0 129 -108 129q-102 0 -129 -119h-70q16 100 86 157.5t168 57.5q97 0 160 -54.5 t63 -137.5q0 -69 -35 -113t-130.5 -120.5t-151.5 -129.5h193q48 0 65.5 14.5t28.5 65.5h61l-24 -202h-496z" />
<glyph unicode="&#xbe;" horiz-adv-x="1686" d="M94 704q0 24 21.5 43t56.5 19q48 0 85 -47t77 -47q41 0 66.5 37t25.5 98q0 64 -30.5 103.5t-79.5 39.5q-19 0 -45 -8l-27 41q125 78 125 160q0 32 -21 52.5t-53 20.5q-63 0 -108 -86l-56 23q63 151 230 151q74 0 124 -35.5t50 -86.5q0 -77 -113 -138v-4q170 -22 170 -180 q0 -107 -88 -178.5t-223 -71.5q-78 0 -132.5 28t-54.5 66zM272 -57l911 1362h145l-913 -1362h-143zM909 162v55l349 461h84v-434h102v-82h-102v-178h-173v178h-260zM1012 244h157v209h-4z" />
<glyph unicode="&#xbf;" horiz-adv-x="748" d="M70 -61q0 114 56.5 201t186 125.5t146 52.5t16.5 30q0 34 -35 101h72q86 -145 86 -234q0 -58 -38.5 -102t-180 -83t-176.5 -77t-35 -88q0 -57 37.5 -94t95.5 -37q43 0 114 17.5t115 17.5q125 0 125 -109q0 -62 -54.5 -99.5t-145.5 -37.5q-169 0 -277 116.5t-108 299.5z M287 711q0 58 47 98.5t119 40.5q71 0 117 -40.5t46 -98.5t-48 -98t-115 -40q-71 0 -118.5 40t-47.5 98z" />
<glyph unicode="&#xc0;" horiz-adv-x="1516" d="M18 0v80h31q77 0 120 41.5t81 146.5l350 977l-22 60h303l409 -1041q43 -108 87 -144t118 -40v-80h-666v80h72q122 0 122 76q0 31 -19 80l-97 237h-448l-86 -240q-19 -52 -19 -78q0 -75 181 -75h26v-80h-543zM432 1784h330l152 -387h-119zM500 586h360l-188 479z" />
<glyph unicode="&#xc1;" horiz-adv-x="1516" d="M18 0v80h31q77 0 120 41.5t81 146.5l350 977l-22 60h303l409 -1041q43 -108 87 -144t118 -40v-80h-666v80h72q122 0 122 76q0 31 -19 80l-97 237h-448l-86 -240q-19 -52 -19 -78q0 -75 181 -75h26v-80h-543zM500 586h360l-188 479zM596 1397l152 387h329l-362 -387h-119z " />
<glyph unicode="&#xc2;" horiz-adv-x="1516" d="M18 0v80h31q77 0 120 41.5t81 146.5l350 977l-22 60h303l409 -1041q43 -108 87 -144t118 -40v-80h-666v80h72q122 0 122 76q0 31 -19 80l-97 237h-448l-86 -240q-19 -52 -19 -78q0 -75 181 -75h26v-80h-543zM440 1397l163 387h303l173 -387h-160l-162 217l-154 -217h-163 zM500 586h360l-188 479z" />
<glyph unicode="&#xc3;" horiz-adv-x="1516" d="M18 0v80h31q77 0 120 41.5t81 146.5l350 977l-22 60h303l409 -1041q43 -108 87 -144t118 -40v-80h-666v80h72q122 0 122 76q0 31 -19 80l-97 237h-448l-86 -240q-19 -52 -19 -78q0 -75 181 -75h26v-80h-543zM383 1446q0 134 63 217.5t162 83.5q65 0 165.5 -52t133.5 -52 q70 0 97 102h131q-8 -134 -72 -215.5t-151 -81.5q-65 0 -168 51t-136 51q-70 0 -96 -104h-129zM500 586h360l-188 479z" />
<glyph unicode="&#xc4;" horiz-adv-x="1516" d="M18 0v80h31q77 0 120 41.5t81 146.5l350 977l-22 60h303l409 -1041q43 -108 87 -144t118 -40v-80h-666v80h72q122 0 122 76q0 31 -19 80l-97 237h-448l-86 -240q-19 -52 -19 -78q0 -75 181 -75h26v-80h-543zM438 1565q0 50 36.5 86.5t86.5 36.5q51 0 87 -36.5t36 -86.5 q0 -51 -36 -87t-87 -36q-50 0 -86.5 36t-36.5 87zM500 586h360l-188 479zM836 1565q0 50 36 86.5t87 36.5q50 0 86.5 -36.5t36.5 -86.5q0 -51 -36.5 -87t-86.5 -36q-51 0 -87 36t-36 87z" />
<glyph unicode="&#xc5;" horiz-adv-x="1516" d="M18 0v80h31q77 0 120 41.5t81 146.5l350 977l-22 60h303l409 -1041q43 -108 87 -144t118 -40v-80h-666v80h72q122 0 122 76q0 31 -19 80l-97 237h-448l-86 -240q-19 -52 -19 -78q0 -75 181 -75h26v-80h-543zM500 586h360l-188 479zM561 1578q0 83 58 141t141 58t141 -58 t58 -141q0 -82 -58 -140t-141 -58t-141 58t-58 140zM633 1578q0 -52 37.5 -89.5t89.5 -37.5t89.5 37.5t37.5 89.5t-37.5 89.5t-89.5 37.5t-89.5 -37.5t-37.5 -89.5z" />
<glyph unicode="&#xc6;" horiz-adv-x="1835" d="M-33 0v80h27q130 0 242 217l397 776q27 52 27 78q0 43 -76 43h-66v80h1159l21 -297h-78q-13 99 -40.5 141.5t-100.5 42.5h-363v-467h230q84 0 118.5 33t34.5 115h82v-408h-82q0 100 -42.5 124t-141.5 24h-199v-363q0 -60 13.5 -83t62.5 -23h260q125 0 170.5 56t65.5 153 h77l-24 -322h-1112v80h45q84 0 122 33.5t38 113.5v209h-396l-106 -207q-24 -46 -24 -80q0 -69 93 -69h37v-80h-471zM496 549h338v657h-9z" />
<glyph unicode="&#xc7;" horiz-adv-x="1516" d="M104 633q0 280 228 476t557 196q148 0 264.5 -42t128.5 -42q24 0 41 20h51l19 -358h-80q-106 317 -408 317q-219 0 -357 -151.5t-138 -393.5q0 -247 150 -415t368 -168q291 0 428 295h82q-31 -185 -115 -373q-46 14 -121 14q-41 0 -156.5 -18.5t-214.5 -18.5l-22 -39 q125 -35 125 -161q0 -83 -59 -137t-148 -54q-100 0 -178 49l18 62q56 -23 115 -23q37 0 63.5 24.5t26.5 57.5q0 70 -117 80l105 145q-296 36 -476 223t-180 435z" />
<glyph unicode="&#xc8;" horiz-adv-x="1323" d="M-4 0v80h84q84 0 122 33.5t38 113.5v817q0 90 -39.5 120t-139.5 30h-20v80h1128l21 -297h-78q-13 99 -40.5 141.5t-100.5 42.5h-449v-461h332q85 0 119.5 33t34.5 115h82v-408h-82q0 100 -42.5 124t-142.5 24h-301v-369q0 -60 13.5 -83t62.5 -23h342q125 0 170.5 56 t65.5 153h77l-24 -322h-1233zM336 1784h330l152 -387h-119z" />
<glyph unicode="&#xc9;" horiz-adv-x="1323" d="M-4 0v80h84q84 0 122 33.5t38 113.5v817q0 90 -39.5 120t-139.5 30h-20v80h1128l21 -297h-78q-13 99 -40.5 141.5t-100.5 42.5h-449v-461h332q85 0 119.5 33t34.5 115h82v-408h-82q0 100 -42.5 124t-142.5 24h-301v-369q0 -60 13.5 -83t62.5 -23h342q125 0 170.5 56 t65.5 153h77l-24 -322h-1233zM500 1397l152 387h329l-362 -387h-119z" />
<glyph unicode="&#xca;" horiz-adv-x="1323" d="M-4 0v80h84q84 0 122 33.5t38 113.5v817q0 90 -39.5 120t-139.5 30h-20v80h1128l21 -297h-78q-13 99 -40.5 141.5t-100.5 42.5h-449v-461h332q85 0 119.5 33t34.5 115h82v-408h-82q0 100 -42.5 124t-142.5 24h-301v-369q0 -60 13.5 -83t62.5 -23h342q125 0 170.5 56 t65.5 153h77l-24 -322h-1233zM344 1397l163 387h303l173 -387h-160l-162 217l-154 -217h-163z" />
<glyph unicode="&#xcb;" horiz-adv-x="1323" d="M-4 0v80h84q84 0 122 33.5t38 113.5v817q0 90 -39.5 120t-139.5 30h-20v80h1128l21 -297h-78q-13 99 -40.5 141.5t-100.5 42.5h-449v-461h332q85 0 119.5 33t34.5 115h82v-408h-82q0 100 -42.5 124t-142.5 24h-301v-369q0 -60 13.5 -83t62.5 -23h342q125 0 170.5 56 t65.5 153h77l-24 -322h-1233zM342 1565q0 50 36.5 86.5t86.5 36.5q51 0 87 -36.5t36 -86.5q0 -51 -36 -87t-87 -36q-50 0 -86.5 36t-36.5 87zM740 1565q0 50 36 86.5t87 36.5q50 0 86.5 -36.5t36.5 -86.5q0 -51 -36.5 -87t-86.5 -36q-51 0 -87 36t-36 87z" />
<glyph unicode="&#xcc;" horiz-adv-x="748" d="M47 0v80h29q149 0 149 141v819q0 86 -35 120t-116 34h-27v80h651v-80h-34q-156 0 -156 -154v-811q0 -84 37.5 -116.5t122.5 -32.5h30v-80h-651zM47 1784h330l152 -387h-119z" />
<glyph unicode="&#xcd;" horiz-adv-x="748" d="M47 0v80h29q149 0 149 141v819q0 86 -35 120t-116 34h-27v80h651v-80h-34q-156 0 -156 -154v-811q0 -84 37.5 -116.5t122.5 -32.5h30v-80h-651zM211 1397l152 387h329l-362 -387h-119z" />
<glyph unicode="&#xce;" horiz-adv-x="748" d="M47 0v80h29q149 0 149 141v819q0 86 -35 120t-116 34h-27v80h651v-80h-34q-156 0 -156 -154v-811q0 -84 37.5 -116.5t122.5 -32.5h30v-80h-651zM55 1397l163 387h303l173 -387h-160l-162 217l-154 -217h-163z" />
<glyph unicode="&#xcf;" horiz-adv-x="748" d="M47 0v80h29q149 0 149 141v819q0 86 -35 120t-116 34h-27v80h651v-80h-34q-156 0 -156 -154v-811q0 -84 37.5 -116.5t122.5 -32.5h30v-80h-651zM53 1565q0 50 36.5 86.5t86.5 36.5q51 0 87 -36.5t36 -86.5q0 -51 -36 -87t-87 -36q-50 0 -86.5 36t-36.5 87zM451 1565 q0 50 36 86.5t87 36.5q50 0 86.5 -36.5t36.5 -86.5q0 -51 -36.5 -87t-86.5 -36q-51 0 -87 36t-36 87z" />
<glyph unicode="&#xd0;" horiz-adv-x="1686" d="M43 0v80q114 0 152 32t38 111v348h-190v123h190v320q0 114 -38 147t-152 33v80l610 26q412 0 580.5 -81t257 -226.5t88.5 -324.5q0 -259 -194.5 -463.5t-690.5 -204.5h-651zM516 238q0 -113 33.5 -134.5t144.5 -21.5q284 0 432 154t148 405q0 239 -138 401t-460 162 q-88 0 -160 -10v-500h334v-123h-334v-333z" />
<glyph unicode="&#xd1;" horiz-adv-x="1665" d="M49 0v80h12q82 0 119 27.5t37 101.5v940q-66 45 -164 45v80h422l836 -873v619q0 113 -36 143.5t-159 30.5h-20v80h528v-80h-20q-93 0 -130.5 -22t-37.5 -82v-1096h-113l-981 1026v-774q0 -103 44.5 -134.5t158.5 -31.5v-80h-496zM457 1446q0 134 63 217.5t162 83.5 q65 0 165.5 -52t133.5 -52q70 0 97 102h131q-8 -134 -72 -215.5t-151 -81.5q-65 0 -168 51t-136 51q-70 0 -96 -104h-129z" />
<glyph unicode="&#xd2;" horiz-adv-x="1729" d="M106 616q0 303 221.5 500t563.5 197q321 0 526 -183t205 -468q0 -292 -212.5 -491.5t-557.5 -199.5q-334 0 -540 186t-206 459zM412 715q0 -293 136 -474.5t351 -181.5q195 0 306.5 146.5t111.5 382.5q0 272 -130.5 454.5t-344.5 182.5q-195 0 -312.5 -139.5 t-117.5 -370.5zM539 1784h330l152 -387h-119z" />
<glyph unicode="&#xd3;" horiz-adv-x="1729" d="M106 616q0 303 221.5 500t563.5 197q321 0 526 -183t205 -468q0 -292 -212.5 -491.5t-557.5 -199.5q-334 0 -540 186t-206 459zM412 715q0 -293 136 -474.5t351 -181.5q195 0 306.5 146.5t111.5 382.5q0 272 -130.5 454.5t-344.5 182.5q-195 0 -312.5 -139.5 t-117.5 -370.5zM702 1397l152 387h329l-362 -387h-119z" />
<glyph unicode="&#xd4;" horiz-adv-x="1729" d="M106 616q0 303 221.5 500t563.5 197q321 0 526 -183t205 -468q0 -292 -212.5 -491.5t-557.5 -199.5q-334 0 -540 186t-206 459zM412 715q0 -293 136 -474.5t351 -181.5q195 0 306.5 146.5t111.5 382.5q0 272 -130.5 454.5t-344.5 182.5q-195 0 -312.5 -139.5 t-117.5 -370.5zM547 1397l163 387h303l173 -387h-160l-162 217l-154 -217h-163z" />
<glyph unicode="&#xd5;" horiz-adv-x="1729" d="M106 616q0 303 221.5 500t563.5 197q321 0 526 -183t205 -468q0 -292 -212.5 -491.5t-557.5 -199.5q-334 0 -540 186t-206 459zM412 715q0 -293 136 -474.5t351 -181.5q195 0 306.5 146.5t111.5 382.5q0 272 -130.5 454.5t-344.5 182.5q-195 0 -312.5 -139.5 t-117.5 -370.5zM489 1446q0 134 63 217.5t162 83.5q65 0 165.5 -52t133.5 -52q70 0 97 102h131q-8 -134 -72 -215.5t-151 -81.5q-65 0 -168 51t-136 51q-70 0 -96 -104h-129z" />
<glyph unicode="&#xd6;" horiz-adv-x="1729" d="M106 616q0 303 221.5 500t563.5 197q321 0 526 -183t205 -468q0 -292 -212.5 -491.5t-557.5 -199.5q-334 0 -540 186t-206 459zM412 715q0 -293 136 -474.5t351 -181.5q195 0 306.5 146.5t111.5 382.5q0 272 -130.5 454.5t-344.5 182.5q-195 0 -312.5 -139.5 t-117.5 -370.5zM545 1565q0 50 36.5 86.5t86.5 36.5q51 0 87 -36.5t36 -86.5q0 -51 -36 -87t-87 -36q-50 0 -86.5 36t-36.5 87zM943 1565q0 50 36 86.5t87 36.5q50 0 86.5 -36.5t36.5 -86.5q0 -51 -36.5 -87t-86.5 -36q-51 0 -87 36t-36 87z" />
<glyph unicode="&#xd7;" horiz-adv-x="1366" d="M174 1063l111 111l397 -398l397 398l111 -111l-397 -397l397 -398l-111 -110l-397 397l-395 -395l-111 110l395 396z" />
<glyph unicode="&#xd8;" horiz-adv-x="1729" d="M106 616q0 303 221.5 500t563.5 197q236 0 418 -105l166 195l59 -47l-162 -189q250 -188 250 -505q0 -292 -212.5 -491.5t-557.5 -199.5q-239 0 -418 101l-180 -209l-55 45l174 203q-267 188 -267 505zM412 715q0 -258 108 -432l656 770q-127 172 -334 172 q-195 0 -312.5 -139.5t-117.5 -370.5zM563 221q132 -162 336 -162q195 0 306.5 146.5t111.5 382.5t-98 401z" />
<glyph unicode="&#xd9;" horiz-adv-x="1579" d="M10 1194v80h641v-80h-35q-145 0 -145 -139v-611q0 -162 100.5 -248.5t270.5 -86.5q192 0 296.5 99.5t104.5 276.5v498q0 116 -38.5 163.5t-129.5 47.5h-37v80h531v-80h-15q-93 0 -140.5 -34t-47.5 -136v-510q0 -269 -150.5 -406t-424.5 -137q-287 0 -445 123.5 t-158 349.5v611q0 83 -31.5 111t-111.5 28h-35zM463 1784h330l152 -387h-119z" />
<glyph unicode="&#xda;" horiz-adv-x="1579" d="M10 1194v80h641v-80h-35q-145 0 -145 -139v-611q0 -162 100.5 -248.5t270.5 -86.5q192 0 296.5 99.5t104.5 276.5v498q0 116 -38.5 163.5t-129.5 47.5h-37v80h531v-80h-15q-93 0 -140.5 -34t-47.5 -136v-510q0 -269 -150.5 -406t-424.5 -137q-287 0 -445 123.5 t-158 349.5v611q0 83 -31.5 111t-111.5 28h-35zM627 1397l152 387h329l-362 -387h-119z" />
<glyph unicode="&#xdb;" horiz-adv-x="1579" d="M10 1194v80h641v-80h-35q-145 0 -145 -139v-611q0 -162 100.5 -248.5t270.5 -86.5q192 0 296.5 99.5t104.5 276.5v498q0 116 -38.5 163.5t-129.5 47.5h-37v80h531v-80h-15q-93 0 -140.5 -34t-47.5 -136v-510q0 -269 -150.5 -406t-424.5 -137q-287 0 -445 123.5 t-158 349.5v611q0 83 -31.5 111t-111.5 28h-35zM471 1397l163 387h303l173 -387h-160l-162 217l-154 -217h-163z" />
<glyph unicode="&#xdc;" horiz-adv-x="1579" d="M10 1194v80h641v-80h-35q-145 0 -145 -139v-611q0 -162 100.5 -248.5t270.5 -86.5q192 0 296.5 99.5t104.5 276.5v498q0 116 -38.5 163.5t-129.5 47.5h-37v80h531v-80h-15q-93 0 -140.5 -34t-47.5 -136v-510q0 -269 -150.5 -406t-424.5 -137q-287 0 -445 123.5 t-158 349.5v611q0 83 -31.5 111t-111.5 28h-35zM469 1565q0 50 36.5 86.5t86.5 36.5q51 0 87 -36.5t36 -86.5q0 -51 -36 -87t-87 -36q-50 0 -86.5 36t-36.5 87zM867 1565q0 50 36 86.5t87 36.5q50 0 86.5 -36.5t36.5 -86.5q0 -51 -36.5 -87t-86.5 -36q-51 0 -87 36t-36 87z " />
<glyph unicode="&#xdd;" horiz-adv-x="1536" d="M16 1194v80h668v-80h-25q-113 0 -113 -54q0 -22 21 -50l328 -433l238 373q38 61 38 99q0 65 -112 65h-25v80h484v-80q-77 -4 -121.5 -26t-106.5 -117l-350 -539v-281q0 -90 42.5 -120.5t135.5 -30.5h31v-80h-698v80h51q81 0 118 33t37 114v285l-440 586q-46 60 -79 78 t-107 18h-15zM606 1397l152 387h329l-362 -387h-119z" />
<glyph unicode="&#xde;" horiz-adv-x="1323" d="M59 0v80h31q84 0 113.5 23t29.5 94v880q0 70 -29.5 93.5t-113.5 23.5h-31v80h631v-80q-115 0 -144.5 -25t-29.5 -141l186 6q273 0 418.5 -109t145.5 -292q0 -177 -140 -283t-376 -106q-112 0 -234 20v-31q0 -87 38 -120t140 -33h62v-80h-697zM516 348q59 -14 148 -14 q143 0 220 80.5t77 230.5q0 141 -79 220t-220 79q-77 0 -146 -14v-582z" />
<glyph unicode="&#xdf;" horiz-adv-x="1153" d="M29 0v66q75 0 98 24.5t23 89.5v627q0 208 33 320t140.5 180.5t272.5 68.5q185 0 298.5 -86t113.5 -225q0 -117 -85.5 -206.5t-238.5 -123.5v-4q188 -22 291.5 -124t103.5 -242q0 -156 -130 -276.5t-347 -113.5v72q221 16 221 289q0 347 -278 369v65q219 8 219 252 q0 135 -55 208t-142 73q-85 0 -126.5 -75.5t-41.5 -248.5v-793q0 -120 103 -120v-66h-473z" />
<glyph unicode="&#xe0;" horiz-adv-x="981" d="M78 193q0 88 49 146.5t190 103.5q167 53 246 120v76q0 59 -36.5 98t-92.5 39q-109 0 -109 -120q0 -18 3 -38l-230 -79q-9 40 -9 72q0 120 141.5 183.5t248.5 63.5q120 0 227 -66.5t107 -183.5v-387q0 -94 45 -94q22 0 55 25l31 -50q-51 -54 -117.5 -88t-115.5 -34 q-121 0 -144 126q-79 -79 -131 -104t-121 -25q-108 0 -172.5 58.5t-64.5 157.5zM164 1364h330l152 -387h-119zM324 233q0 -64 28 -102.5t74 -38.5q48 0 137 86v293q-30 -27 -102 -61t-104.5 -68t-32.5 -109z" />
<glyph unicode="&#xe1;" horiz-adv-x="981" d="M78 193q0 88 49 146.5t190 103.5q167 53 246 120v76q0 59 -36.5 98t-92.5 39q-109 0 -109 -120q0 -18 3 -38l-230 -79q-9 40 -9 72q0 120 141.5 183.5t248.5 63.5q120 0 227 -66.5t107 -183.5v-387q0 -94 45 -94q22 0 55 25l31 -50q-51 -54 -117.5 -88t-115.5 -34 q-121 0 -144 126q-79 -79 -131 -104t-121 -25q-108 0 -172.5 58.5t-64.5 157.5zM324 233q0 -64 28 -102.5t74 -38.5q48 0 137 86v293q-30 -27 -102 -61t-104.5 -68t-32.5 -109zM328 977l152 387h329l-362 -387h-119z" />
<glyph unicode="&#xe2;" horiz-adv-x="981" d="M78 193q0 88 49 146.5t190 103.5q167 53 246 120v76q0 59 -36.5 98t-92.5 39q-109 0 -109 -120q0 -18 3 -38l-230 -79q-9 40 -9 72q0 120 141.5 183.5t248.5 63.5q120 0 227 -66.5t107 -183.5v-387q0 -94 45 -94q22 0 55 25l31 -50q-51 -54 -117.5 -88t-115.5 -34 q-121 0 -144 126q-79 -79 -131 -104t-121 -25q-108 0 -172.5 58.5t-64.5 157.5zM172 977l163 387h303l173 -387h-160l-162 217l-154 -217h-163zM324 233q0 -64 28 -102.5t74 -38.5q48 0 137 86v293q-30 -27 -102 -61t-104.5 -68t-32.5 -109z" />
<glyph unicode="&#xe3;" horiz-adv-x="981" d="M78 193q0 88 49 146.5t190 103.5q167 53 246 120v76q0 59 -36.5 98t-92.5 39q-109 0 -109 -120q0 -18 3 -38l-230 -79q-9 40 -9 72q0 120 141.5 183.5t248.5 63.5q120 0 227 -66.5t107 -183.5v-387q0 -94 45 -94q22 0 55 25l31 -50q-51 -54 -117.5 -88t-115.5 -34 q-121 0 -144 126q-79 -79 -131 -104t-121 -25q-108 0 -172.5 58.5t-64.5 157.5zM115 1026q0 134 63 217.5t162 83.5q65 0 165.5 -52t133.5 -52q70 0 97 102h131q-8 -134 -72 -215.5t-151 -81.5q-65 0 -168 51t-136 51q-70 0 -96 -104h-129zM324 233q0 -64 28 -102.5 t74 -38.5q48 0 137 86v293q-30 -27 -102 -61t-104.5 -68t-32.5 -109z" />
<glyph unicode="&#xe4;" horiz-adv-x="981" d="M78 193q0 88 49 146.5t190 103.5q167 53 246 120v76q0 59 -36.5 98t-92.5 39q-109 0 -109 -120q0 -18 3 -38l-230 -79q-9 40 -9 72q0 120 141.5 183.5t248.5 63.5q120 0 227 -66.5t107 -183.5v-387q0 -94 45 -94q22 0 55 25l31 -50q-51 -54 -117.5 -88t-115.5 -34 q-121 0 -144 126q-79 -79 -131 -104t-121 -25q-108 0 -172.5 58.5t-64.5 157.5zM170 1145q0 50 36.5 86.5t86.5 36.5q51 0 87 -36.5t36 -86.5q0 -51 -36 -87t-87 -36q-50 0 -86.5 36t-36.5 87zM324 233q0 -64 28 -102.5t74 -38.5q48 0 137 86v293q-30 -27 -102 -61 t-104.5 -68t-32.5 -109zM568 1145q0 50 36 86.5t87 36.5q50 0 86.5 -36.5t36.5 -86.5q0 -51 -36.5 -87t-86.5 -36q-51 0 -87 36t-36 87z" />
<glyph unicode="&#xe5;" horiz-adv-x="981" d="M78 193q0 88 49 146.5t190 103.5q167 53 246 120v76q0 59 -36.5 98t-92.5 39q-109 0 -109 -120q0 -18 3 -38l-230 -79q-9 40 -9 72q0 120 141.5 183.5t248.5 63.5q120 0 227 -66.5t107 -183.5v-387q0 -94 45 -94q22 0 55 25l31 -50q-51 -54 -117.5 -88t-115.5 -34 q-121 0 -144 126q-79 -79 -131 -104t-121 -25q-108 0 -172.5 58.5t-64.5 157.5zM293 1159q0 83 58 141t141 58t141 -58t58 -141q0 -82 -58 -140t-141 -58t-141 58t-58 140zM324 233q0 -64 28 -102.5t74 -38.5q48 0 137 86v293q-30 -27 -102 -61t-104.5 -68t-32.5 -109z M365 1159q0 -52 37.5 -89.5t89.5 -37.5t89.5 37.5t37.5 89.5t-37.5 89.5t-89.5 37.5t-89.5 -37.5t-37.5 -89.5z" />
<glyph unicode="&#xe6;" horiz-adv-x="1430" d="M76 193q0 91 54 153t204 105.5t217 99.5q3 26 3 50q0 82 -34.5 129.5t-93.5 47.5q-44 0 -73 -30.5t-29 -78.5q0 -24 8 -51l-236 -81q-6 25 -6 54q0 148 141.5 207.5t245.5 59.5q146 0 246 -80q93 80 244 80q97 0 181.5 -41t117 -95t50.5 -137.5t42 -105.5v-49h-559 q36 -299 256 -299q111 0 243 143l41 -49q-85 -115 -204.5 -181.5t-229.5 -66.5q-186 0 -315 144q-145 -139 -289 -139q-103 0 -164 57t-61 154zM317 231q0 -60 28 -99.5t69 -39.5q72 0 137 80v287q-52 -37 -119 -66.5t-91 -64t-24 -97.5zM799 510h286q0 115 -39.5 183.5 t-105.5 68.5q-141 0 -141 -252z" />
<glyph unicode="&#xe7;" horiz-adv-x="1004" d="M90 383q0 200 153.5 337.5t377.5 137.5q133 0 221 -50t88 -124q0 -46 -28.5 -74t-76.5 -28q-34 0 -69.5 16.5t-101 91t-122.5 74.5q-75 0 -123.5 -85t-48.5 -224q0 -166 72 -268.5t184 -102.5q139 0 263 145l59 -32q-145 -220 -410 -220l-26 -45q125 -35 125 -161 q0 -83 -59 -137t-148 -54q-101 0 -178 49l18 62q56 -23 115 -23q37 0 63.5 24.5t26.5 57.5q0 70 -117 80l111 154q-169 19 -269 131t-100 268z" />
<glyph unicode="&#xe8;" horiz-adv-x="981" d="M86 397q0 202 123.5 331.5t314.5 129.5q128 0 223.5 -66t123.5 -214q15 -78 47 -91v-59h-568q15 -132 89.5 -215.5t162.5 -83.5q109 0 250 147l47 -38q-89 -125 -205.5 -193t-232.5 -68q-166 0 -270.5 117t-104.5 303zM164 1364h330l152 -387h-119zM344 508h291 q-2 122 -41.5 188t-104.5 66q-64 0 -109.5 -73t-35.5 -181z" />
<glyph unicode="&#xe9;" horiz-adv-x="981" d="M86 397q0 202 123.5 331.5t314.5 129.5q128 0 223.5 -66t123.5 -214q15 -78 47 -91v-59h-568q15 -132 89.5 -215.5t162.5 -83.5q109 0 250 147l47 -38q-89 -125 -205.5 -193t-232.5 -68q-166 0 -270.5 117t-104.5 303zM328 977l152 387h329l-362 -387h-119zM344 508h291 q-2 122 -41.5 188t-104.5 66q-64 0 -109.5 -73t-35.5 -181z" />
<glyph unicode="&#xea;" horiz-adv-x="981" d="M86 397q0 202 123.5 331.5t314.5 129.5q128 0 223.5 -66t123.5 -214q15 -78 47 -91v-59h-568q15 -132 89.5 -215.5t162.5 -83.5q109 0 250 147l47 -38q-89 -125 -205.5 -193t-232.5 -68q-166 0 -270.5 117t-104.5 303zM172 977l163 387h303l173 -387h-160l-162 217 l-154 -217h-163zM344 508h291q-2 122 -41.5 188t-104.5 66q-64 0 -109.5 -73t-35.5 -181z" />
<glyph unicode="&#xeb;" horiz-adv-x="981" d="M86 397q0 202 123.5 331.5t314.5 129.5q128 0 223.5 -66t123.5 -214q15 -78 47 -91v-59h-568q15 -132 89.5 -215.5t162.5 -83.5q109 0 250 147l47 -38q-89 -125 -205.5 -193t-232.5 -68q-166 0 -270.5 117t-104.5 303zM170 1145q0 50 36.5 86.5t86.5 36.5q51 0 87 -36.5 t36 -86.5q0 -51 -36 -87t-87 -36q-50 0 -86.5 36t-36.5 87zM344 508h291q-2 122 -41.5 188t-104.5 66q-64 0 -109.5 -73t-35.5 -181zM568 1145q0 50 36 86.5t87 36.5q50 0 86.5 -36.5t36.5 -86.5q0 -51 -36.5 -87t-86.5 -36q-51 0 -87 36t-36 87z" />
<glyph unicode="&#xec;" horiz-adv-x="598" d="M-27 1364h330l152 -387h-119zM31 0v66h22q65 0 90 32t25 111v393q0 37 -11 54t-59 34l-67 25v49l350 117h37v-686q0 -129 125 -129v-66h-512z" />
<glyph unicode="&#xed;" horiz-adv-x="598" d="M31 0v66h22q65 0 90 32t25 111v393q0 37 -11 54t-59 34l-67 25v49l350 117h37v-686q0 -129 125 -129v-66h-512zM137 977l152 387h329l-362 -387h-119z" />
<glyph unicode="&#xee;" horiz-adv-x="598" d="M-18 977l163 387h303l173 -387h-160l-162 217l-154 -217h-163zM31 0v66h22q65 0 90 32t25 111v393q0 37 -11 54t-59 34l-67 25v49l350 117h37v-686q0 -129 125 -129v-66h-512z" />
<glyph unicode="&#xef;" horiz-adv-x="598" d="M-20 1145q0 50 36.5 86.5t86.5 36.5q51 0 87 -36.5t36 -86.5q0 -51 -36 -87t-87 -36q-50 0 -86.5 36t-36.5 87zM31 0v66h22q65 0 90 32t25 111v393q0 37 -11 54t-59 34l-67 25v49l350 117h37v-686q0 -129 125 -129v-66h-512zM378 1145q0 50 36 86.5t87 36.5 q50 0 86.5 -36.5t36.5 -86.5q0 -51 -36.5 -87t-86.5 -36q-51 0 -87 36t-36 87z" />
<glyph unicode="&#xf0;" horiz-adv-x="1153" d="M78 401q0 180 145 318.5t334 138.5q98 0 164 -57l6 2q-51 147 -162 295l-256 -150l-35 64l244 143q-66 79 -178 150l45 65q131 -39 281 -135l237 135l35 -65l-207 -117q344 -305 344 -703q0 -233 -138.5 -370.5t-373.5 -137.5q-227 0 -356 128t-129 296zM348 518 q0 -177 72.5 -318t191.5 -141q85 0 137 65.5t52 194.5q0 184 -74 317.5t-190 133.5q-189 0 -189 -252z" />
<glyph unicode="&#xf1;" d="M31 713v49l350 119h39v-183q243 160 379 160q113 0 164 -84.5t51 -267.5v-320q0 -64 22.5 -92t93.5 -28v-66h-483v66q63 3 90 54.5t27 176.5v178q0 227 -127 227q-88 0 -217 -90v-415q0 -131 121 -131h18v-66h-518v66h12q66 0 91.5 32t25.5 111v399q0 34 -21.5 56.5 t-117.5 48.5zM211 1026q0 134 63 217.5t162 83.5q65 0 165.5 -52t133.5 -52q70 0 97 102h131q-8 -134 -72 -215.5t-151 -81.5q-65 0 -168 51t-136 51q-70 0 -96 -104h-129z" />
<glyph unicode="&#xf2;" d="M88 406q0 192 147.5 322t366.5 130q210 0 346.5 -120.5t136.5 -305.5q0 -193 -147 -324t-367 -131q-211 0 -347 121t-136 308zM260 1364h330l152 -387h-119zM358 526q0 -175 73.5 -317.5t197.5 -142.5q88 0 137 66t49 187q0 199 -75.5 325t-190.5 126q-90 0 -140.5 -64 t-50.5 -180z" />
<glyph unicode="&#xf3;" d="M88 406q0 192 147.5 322t366.5 130q210 0 346.5 -120.5t136.5 -305.5q0 -193 -147 -324t-367 -131q-211 0 -347 121t-136 308zM358 526q0 -175 73.5 -317.5t197.5 -142.5q88 0 137 66t49 187q0 199 -75.5 325t-190.5 126q-90 0 -140.5 -64t-50.5 -180zM424 977l152 387 h329l-362 -387h-119z" />
<glyph unicode="&#xf4;" d="M88 406q0 192 147.5 322t366.5 130q210 0 346.5 -120.5t136.5 -305.5q0 -193 -147 -324t-367 -131q-211 0 -347 121t-136 308zM268 977l163 387h303l173 -387h-160l-162 217l-154 -217h-163zM358 526q0 -175 73.5 -317.5t197.5 -142.5q88 0 137 66t49 187 q0 199 -75.5 325t-190.5 126q-90 0 -140.5 -64t-50.5 -180z" />
<glyph unicode="&#xf5;" d="M88 406q0 192 147.5 322t366.5 130q210 0 346.5 -120.5t136.5 -305.5q0 -193 -147 -324t-367 -131q-211 0 -347 121t-136 308zM211 1026q0 134 63 217.5t162 83.5q65 0 165.5 -52t133.5 -52q70 0 97 102h131q-8 -134 -72 -215.5t-151 -81.5q-65 0 -168 51t-136 51 q-70 0 -96 -104h-129zM358 526q0 -175 73.5 -317.5t197.5 -142.5q88 0 137 66t49 187q0 199 -75.5 325t-190.5 126q-90 0 -140.5 -64t-50.5 -180z" />
<glyph unicode="&#xf6;" d="M88 406q0 192 147.5 322t366.5 130q210 0 346.5 -120.5t136.5 -305.5q0 -193 -147 -324t-367 -131q-211 0 -347 121t-136 308zM266 1145q0 50 36.5 86.5t86.5 36.5q51 0 87 -36.5t36 -86.5q0 -51 -36 -87t-87 -36q-50 0 -86.5 36t-36.5 87zM358 526q0 -175 73.5 -317.5 t197.5 -142.5q88 0 137 66t49 187q0 199 -75.5 325t-190.5 126q-90 0 -140.5 -64t-50.5 -180zM664 1145q0 50 36 86.5t87 36.5q50 0 86.5 -36.5t36.5 -86.5q0 -51 -36.5 -87t-86.5 -36q-51 0 -87 36t-36 87z" />
<glyph unicode="&#xf7;" horiz-adv-x="1368" d="M137 590v155h1094v-155h-1094zM586 256q0 41 28.5 69.5t69.5 28.5t69.5 -28.5t28.5 -69.5t-28.5 -69.5t-69.5 -28.5t-69.5 28.5t-28.5 69.5zM586 1079q0 42 28.5 70.5t69.5 28.5t69.5 -28.5t28.5 -70.5q0 -41 -28.5 -69.5t-69.5 -28.5t-69.5 28.5t-28.5 69.5z" />
<glyph unicode="&#xf8;" d="M88 406q0 191 147 321.5t365 130.5q147 0 264 -61l131 155l58 -51l-125 -145q157 -125 157 -324q0 -192 -146.5 -323.5t-363.5 -131.5q-135 0 -264 60l-112 -131l-58 47l107 125q-160 127 -160 328zM358 528q0 -139 50 -264l329 387q-69 119 -188 119q-88 0 -139.5 -64.5 t-51.5 -177.5zM440 188q77 -122 189 -122q186 0 186 256q0 138 -43 253z" />
<glyph unicode="&#xf9;" d="M68 735v47l294 76h41v-522q0 -203 134 -203q76 0 206 84v371q0 57 -12 80.5t-61 38.5l-95 28v47l377 76h41v-627q0 -68 9 -95t51 -27q30 0 61 12v-64l-332 -80h-39v164q-256 -164 -366 -164q-103 0 -163 79.5t-60 201.5v342q0 65 -12 89t-74 46zM207 1364h330l152 -387 h-119z" />
<glyph unicode="&#xfa;" d="M68 735v47l294 76h41v-522q0 -203 134 -203q76 0 206 84v371q0 57 -12 80.5t-61 38.5l-95 28v47l377 76h41v-627q0 -68 9 -95t51 -27q30 0 61 12v-64l-332 -80h-39v164q-256 -164 -366 -164q-103 0 -163 79.5t-60 201.5v342q0 65 -12 89t-74 46zM424 977l152 387h329 l-362 -387h-119z" />
<glyph unicode="&#xfb;" d="M68 735v47l294 76h41v-522q0 -203 134 -203q76 0 206 84v371q0 57 -12 80.5t-61 38.5l-95 28v47l377 76h41v-627q0 -68 9 -95t51 -27q30 0 61 12v-64l-332 -80h-39v164q-256 -164 -366 -164q-103 0 -163 79.5t-60 201.5v342q0 65 -12 89t-74 46zM268 977l163 387h303 l173 -387h-160l-162 217l-154 -217h-163z" />
<glyph unicode="&#xfc;" d="M68 735v47l294 76h41v-522q0 -203 134 -203q76 0 206 84v371q0 57 -12 80.5t-61 38.5l-95 28v47l377 76h41v-627q0 -68 9 -95t51 -27q30 0 61 12v-64l-332 -80h-39v164q-256 -164 -366 -164q-103 0 -163 79.5t-60 201.5v342q0 65 -12 89t-74 46zM266 1145q0 50 36.5 86.5 t86.5 36.5q51 0 87 -36.5t36 -86.5q0 -51 -36 -87t-87 -36q-50 0 -86.5 36t-36.5 87zM664 1145q0 50 36 86.5t87 36.5q50 0 86.5 -36.5t36.5 -86.5q0 -51 -36.5 -87t-86.5 -36q-51 0 -87 36t-36 87z" />
<glyph unicode="&#xfd;" horiz-adv-x="1067" d="M2 770v66h522v-66q-103 0 -103 -57q0 -26 19 -66l170 -352l156 315q19 40 19 72q0 86 -126 88v66h381v-66q-57 -12 -91.5 -36t-84.5 -126l-458 -934q-76 -151 -187 -151q-55 0 -92 33t-37 84q0 114 143 129q65 7 110 35t89 126l41 90l-276 564q-56 115 -93 150.5 t-102 35.5zM371 977l152 387h329l-362 -387h-119z" />
<glyph unicode="&#xfe;" d="M27 -401h24q61 0 86 30.5t25 104.5v1349q0 79 -56 99l-75 26v52l327 110h54v-686q127 105 199.5 139.5t142.5 34.5q140 0 236.5 -111.5t96.5 -275.5q0 -198 -128 -346t-338 -148q-92 0 -209 27v-219q0 -103 39.5 -141t162.5 -45v-64h-587v64zM412 154q99 -101 211 -101 q93 0 153 84t60 217q0 152 -61 251.5t-163 99.5q-84 0 -200 -105v-446z" />
<glyph unicode="&#xff;" horiz-adv-x="1067" d="M2 770v66h522v-66q-103 0 -103 -57q0 -26 19 -66l170 -352l156 315q19 40 19 72q0 86 -126 88v66h381v-66q-57 -12 -91.5 -36t-84.5 -126l-458 -934q-76 -151 -187 -151q-55 0 -92 33t-37 84q0 114 143 129q65 7 110 35t89 126l41 90l-276 564q-56 115 -93 150.5 t-102 35.5zM213 1145q0 50 36.5 86.5t86.5 36.5q51 0 87 -36.5t36 -86.5q0 -51 -36 -87t-87 -36q-50 0 -86.5 36t-36.5 87zM611 1145q0 50 36 86.5t87 36.5q50 0 86.5 -36.5t36.5 -86.5q0 -51 -36.5 -87t-86.5 -36q-51 0 -87 36t-36 87z" />
<glyph unicode="&#x152;" horiz-adv-x="2177" d="M104 639q0 260 187 454.5t522 194.5q31 0 138.5 -7t183.5 -7h893l20 -297h-78q-13 99 -40.5 141.5t-100.5 42.5h-402v-467h269q85 0 119 33t34 115h82v-408h-82q0 100 -42 124t-142 24h-238v-363q0 -60 13.5 -83t62.5 -23h295q125 0 170.5 56t65.5 153h77l-24 -322h-1012 q-20 0 -92 -5t-180 -5q-328 0 -513.5 190t-185.5 459zM408 680q0 -246 145.5 -421t347.5 -175q244 0 244 307v541q0 148 -68 208t-209 60q-206 0 -333 -143t-127 -377z" />
<glyph unicode="&#x153;" horiz-adv-x="1599" d="M90 416q0 186 139 312t344 126q184 0 314 -92q129 96 272 96q93 0 191 -46.5t143 -204.5q23 -80 49 -118v-59h-528q16 -140 82 -215.5t164 -75.5q110 0 223 125l49 -47q-76 -110 -190.5 -171.5t-231.5 -61.5q-129 0 -248 82q-158 -89 -313 -89q-194 0 -326.5 127 t-132.5 312zM350 541q0 -166 69 -320.5t185 -154.5q80 0 128 61t48 164q0 183 -68 329t-190 146q-76 0 -124 -62t-48 -163zM1010 510h262q-7 260 -133 260q-129 0 -129 -260z" />
<glyph unicode="&#x178;" horiz-adv-x="1536" d="M16 1194v80h668v-80h-25q-113 0 -113 -54q0 -22 21 -50l328 -433l238 373q38 61 38 99q0 65 -112 65h-25v80h484v-80q-77 -4 -121.5 -26t-106.5 -117l-350 -539v-281q0 -90 42.5 -120.5t135.5 -30.5h31v-80h-698v80h51q81 0 118 33t37 114v285l-440 586q-46 60 -79 78 t-107 18h-15zM449 1565q0 50 36.5 86.5t86.5 36.5q51 0 87 -36.5t36 -86.5q0 -51 -36 -87t-87 -36q-50 0 -86.5 36t-36.5 87zM847 1565q0 50 36 86.5t87 36.5q50 0 86.5 -36.5t36.5 -86.5q0 -51 -36.5 -87t-86.5 -36q-51 0 -87 36t-36 87z" />
<glyph unicode="&#x2c6;" horiz-adv-x="682" d="M23 977l163 387h303l173 -387h-160l-162 217l-154 -217h-163z" />
<glyph unicode="&#x2dc;" horiz-adv-x="682" d="M-35 1026q0 134 63 217.5t162 83.5q65 0 165.5 -52t133.5 -52q70 0 97 102h131q-8 -134 -72 -215.5t-151 -81.5q-65 0 -168 51t-136 51q-70 0 -96 -104h-129z" />
<glyph unicode="&#x2000;" horiz-adv-x="892" />
<glyph unicode="&#x2001;" horiz-adv-x="1784" />
<glyph unicode="&#x2002;" horiz-adv-x="892" />
<glyph unicode="&#x2003;" horiz-adv-x="1784" />
<glyph unicode="&#x2004;" horiz-adv-x="594" />
<glyph unicode="&#x2005;" horiz-adv-x="446" />
<glyph unicode="&#x2006;" horiz-adv-x="297" />
<glyph unicode="&#x2007;" horiz-adv-x="297" />
<glyph unicode="&#x2008;" horiz-adv-x="223" />
<glyph unicode="&#x2009;" horiz-adv-x="356" />
<glyph unicode="&#x200a;" horiz-adv-x="99" />
<glyph unicode="&#x2010;" horiz-adv-x="854" d="M72 313v201h708v-201h-708z" />
<glyph unicode="&#x2011;" horiz-adv-x="854" d="M72 313v201h708v-201h-708z" />
<glyph unicode="&#x2012;" horiz-adv-x="854" d="M72 313v201h708v-201h-708z" />
<glyph unicode="&#x2013;" horiz-adv-x="1024" d="M-12 420v184h1048v-184h-1048z" />
<glyph unicode="&#x2014;" horiz-adv-x="2048" d="M-12 420v184h2072v-184h-2072z" />
<glyph unicode="&#x2018;" horiz-adv-x="641" d="M131 995q0 138 94 229t242 89l16 -86q-103 -9 -164 -57t-61 -113q0 -31 30 -31q8 0 31 3t37 3q72 0 113 -36t41 -99q0 -61 -43.5 -99t-114.5 -38q-101 0 -161 64t-60 171z" />
<glyph unicode="&#x2019;" horiz-adv-x="641" d="M131 1176q0 61 43.5 99t114.5 38q101 0 161 -64t60 -172q0 -138 -94 -228.5t-242 -88.5l-16 86q103 9 164 57t61 113q0 31 -30 31q-8 0 -31 -3.5t-37 -3.5q-72 0 -113 36.5t-41 99.5z" />
<glyph unicode="&#x201a;" horiz-adv-x="641" d="M131 117q0 61 43.5 99t114.5 38q101 0 161 -64t60 -172q0 -137 -94 -228t-242 -89l-16 86q103 9 164 57t61 113q0 31 -30 31q-8 0 -31 -3t-37 -3q-72 0 -113 36t-41 99z" />
<glyph unicode="&#x201c;" horiz-adv-x="1194" d="M125 995q0 138 94 229t242 89l16 -86q-103 -9 -164 -57t-61 -113q0 -31 30 -31q8 0 31 3t37 3q72 0 113 -36t41 -99q0 -61 -43.5 -99t-114.5 -38q-101 0 -161 64t-60 171zM690 995q0 138 94 229t242 89l16 -86q-103 -9 -164 -57t-61 -113q0 -31 30 -31q8 0 31.5 3t36.5 3 q73 0 113.5 -36t40.5 -99q0 -61 -43.5 -99t-114.5 -38q-101 0 -161 64t-60 171z" />
<glyph unicode="&#x201d;" horiz-adv-x="1194" d="M125 1176q0 61 43.5 99t114.5 38q100 0 160.5 -64t60.5 -172q0 -138 -94 -228.5t-242 -88.5l-16 86q103 9 164 57t61 113q0 31 -30 31q-8 0 -31.5 -3.5t-36.5 -3.5q-73 0 -113.5 36.5t-40.5 99.5zM690 1176q0 61 43.5 99t114.5 38q101 0 161 -64t60 -172 q0 -138 -94 -228.5t-242 -88.5l-16 86q103 9 164 57t61 113q0 31 -30 31q-8 0 -31 -3.5t-37 -3.5q-72 0 -113 36.5t-41 99.5z" />
<glyph unicode="&#x201e;" horiz-adv-x="1194" d="M125 117q0 61 43.5 99t114.5 38q100 0 160.5 -64t60.5 -172q0 -137 -94 -228t-242 -89l-16 86q103 9 164 57t61 113q0 31 -30 31q-8 0 -31.5 -3t-36.5 -3q-73 0 -113.5 36t-40.5 99zM690 117q0 61 43.5 99t114.5 38q101 0 161 -64t60 -172q0 -137 -94 -228t-242 -89 l-16 86q103 9 164 57t61 113q0 31 -30 31q-8 0 -31 -3t-37 -3q-72 0 -113 36t-41 99z" />
<glyph unicode="&#x2022;" horiz-adv-x="725" d="M78 637q0 118 83.5 201.5t200.5 83.5q118 0 202.5 -84t84.5 -201q0 -118 -84.5 -202.5t-202.5 -84.5q-117 0 -200.5 84.5t-83.5 202.5z" />
<glyph unicode="&#x2026;" horiz-adv-x="2048" d="M176 117q0 58 48 97.5t116 39.5q71 0 118.5 -39.5t47.5 -97.5t-47 -99t-119 -41q-71 0 -117.5 40.5t-46.5 99.5zM860 117q0 58 48 97.5t116 39.5q71 0 118.5 -39.5t47.5 -97.5t-47 -99t-119 -41q-71 0 -117.5 40.5t-46.5 99.5zM1544 117q0 58 48 97.5t116 39.5 q71 0 118.5 -39.5t47.5 -97.5t-47 -99t-119 -41q-71 0 -117.5 40.5t-46.5 99.5z" />
<glyph unicode="&#x202f;" horiz-adv-x="356" />
<glyph unicode="&#x2039;" horiz-adv-x="512" d="M43 451l344 378h68l-166 -378l166 -379h-68z" />
<glyph unicode="&#x203a;" horiz-adv-x="512" d="M57 72l166 379l-166 378h68l344 -378l-344 -379h-68z" />
<glyph unicode="&#x205f;" horiz-adv-x="446" />
<glyph unicode="&#x20ac;" horiz-adv-x="1167" d="M61 510l15 78h100l-2 39q0 24 4 67h-117l15 78h112q41 236 189 383.5t336 147.5q109 0 219 -60q40 -22 53 -22q16 0 31 20h35l10 -305h-66q-29 131 -101 208t-173 77q-252 0 -281 -449h533l-15 -78h-522v-106h506l-16 -78h-484q20 -216 100.5 -331.5t215.5 -115.5 q88 0 155.5 44.5t147.5 152.5l47 -33q-70 -109 -166.5 -183.5t-239.5 -74.5q-200 0 -340 148t-180 393h-121z" />
<glyph unicode="&#x2122;" horiz-adv-x="2048" d="M-4 1130v226h776v-226h-35q-5 92 -47 133.5t-145 41.5h-37v-588q0 -80 16 -106.5t84 -26.5v-35h-452v35q73 4 87.5 23.5t14.5 113.5v584h-33q-184 0 -196 -175h-33zM883 549v35q75 3 92.5 24t17.5 109v469q0 79 -16.5 106t-75.5 27l-18 -2v39h368l232 -496l223 496h352 v-39q-75 0 -88.5 -28.5t-13.5 -102.5v-496q0 -106 102 -106v-35h-461v35q73 0 91 23t18 106v504h-4l-309 -668h-25l-315 668h-4v-515q0 -83 25.5 -100.5t88.5 -17.5v-35h-280z" />
<glyph unicode="&#xe000;" horiz-adv-x="835" d="M0 0v835h835v-835h-835z" />
</font>
</defs>
</svg>
