<?xml version="1.0" standalone="no"?>
<!DOCTYPE svg PUBLIC "-//W3C//DTD SVG 1.1//EN" "http://www.w3.org/Graphics/SVG/1.1/DTD/svg11.dtd" >
<svg xmlns="http://www.w3.org/2000/svg">
<metadata></metadata>
<defs>
<font id="bembo_stdregular" horiz-adv-x="1067" >
<font-face units-per-em="2048" ascent="1376" descent="-672" />
<missing-glyph horiz-adv-x="569" />
<glyph unicode="&#xfb01;" horiz-adv-x="1130" d="M37 721v35q84 18 151 55q8 147 40 236.5t118 175.5q66 66 157 109.5t189 43.5q96 0 170 -40t74 -76q0 -19 -36.5 -49.5t-51.5 -30.5q-8 0 -31.5 18.5t-51 40.5t-73.5 40.5t-94 18.5q-107 0 -189.5 -85.5t-82.5 -227.5v-174h260l12 -90h-272v-561q0 -70 32 -95.5 t119 -25.5h64v-39h-492v39q88 0 113.5 27t25.5 114v541h-151zM666 0v39q47 0 74.5 7.5t42 27t18.5 44.5t4 70v412q0 63 -18 83.5t-91 35.5v35l215 90h31v-688q0 -117 148 -117v-39h-424z" />
<glyph unicode="&#xfb02;" d="M33 721v35q84 18 151 55q0 135 30.5 225.5t113.5 173.5q129 129 295 129q50 0 77 -5t48 -5q34 0 58 14t32 33h49v-1214q0 -123 119 -123h34v-39h-460v39q96 0 133 31t37 106v545h-428v-561q0 -70 32 -95.5t119 -25.5v-39h-428v39q88 0 113.5 27t25.5 114v541h-151z M322 811h428v375q-39 30 -97.5 55t-109.5 25q-63 0 -107 -26t-68.5 -76.5t-35 -115.5t-10.5 -153v-84z" />
<glyph unicode="&#xfb03;" horiz-adv-x="1622" d="M47 0v39q35 1 58.5 4t39.5 13t24 18.5t12 31t4.5 39t0.5 54.5v522h-139v35q57 10 139 55q2 98 21 164.5t82 146.5q68 84 153 134.5t179 50.5q63 0 132.5 -26t102.5 -87q24 28 51.5 54t69.5 56.5t95 49t108 18.5t108 -17.5t83 -40t30 -38.5q0 -15 -26 -56.5t-40 -41.5 q-3 0 -19 11.5t-33.5 24.5t-22.5 15q-79 51 -168 51q-33 0 -69 -12.5t-75.5 -52t-56.5 -99.5q-14 -49 -14 -147v-158h157l23 -90h-180v-524q0 -36 3 -62t11.5 -43.5t19 -28t29 -16t36.5 -7t48 -1.5v-39h-434v39q28 0 49 1.5t37 6.5t26.5 9t18 16t11 20t5 28.5t2 33.5t0.5 43 v2v522h-415v-524q0 -71 12.5 -104t39.5 -43.5t87 -10.5v-39h-416zM324 811h415q3 134 11.5 183.5t44.5 111.5q-22 6 -35.5 14.5t-69.5 50.5q-78 60 -166 60q-32 0 -64.5 -14t-64 -45t-51.5 -90t-20 -138v-133zM1133 723v35l264 86h33v-645q0 -96 23.5 -128t100.5 -32v-39 h-403v39q36 0 59.5 2.5t39.5 12.5t24.5 18.5t12.5 32t4.5 40t0.5 54.5v399q0 70 -4 76q-9 15 -88 33z" />
<glyph unicode="&#xfb04;" horiz-adv-x="1622" d="M55 0v39q33 2 54.5 5t36.5 12t22 16.5t11 29t4.5 37t0.5 51.5v531h-129v33q80 23 129 57q5 57 10 87.5t19 78t42.5 91.5t74.5 91q142 150 301 150q82 0 150.5 -35.5t90.5 -87.5q45 61 131 108t185 47q28 0 65 -5t47 -5q80 0 105 55h35v-1196q0 -94 21.5 -122t97.5 -29 v-39h-404v39q32 0 54.5 3.5t39 7.5t26.5 16t16 21t8.5 30.5t3 36t0.5 45.5v522h-422v-541q0 -48 7.5 -76.5t27 -42.5t43 -18t67.5 -4v-39h-432v39q28 0 49.5 1.5t37 7t26.5 10t18 16t10.5 19t5 25.5t2 28.5t0.5 35.5v539h-421v-533q0 -52 5.5 -80.5t24.5 -44.5t45 -20t76 -4 v-39h-418zM322 811h421q-2 179 70 293q-43 14 -94 53q-36 27 -55.5 39.5t-52.5 23.5t-72 11q-45 0 -80.5 -15t-57.5 -36.5t-38 -58.5t-24 -66t-12 -75t-4.5 -70.5t-0.5 -65.5v-33zM881 811h422v379q-4 1 -86 39q-70 31 -132 31q-52 0 -96.5 -33.5t-73.5 -89.5 q-22 -47 -28 -91t-6 -112v-123z" />
<glyph horiz-adv-x="2048" />
<glyph horiz-adv-x="2048" />
<glyph unicode="&#xd;" horiz-adv-x="2048" />
<glyph unicode=" "  horiz-adv-x="569" />
<glyph unicode="&#x09;" horiz-adv-x="569" />
<glyph unicode="&#xa0;" horiz-adv-x="569" />
<glyph unicode="!" horiz-adv-x="532" d="M162 72q0 42 29.5 69t74.5 27q44 0 74.5 -26.5t30.5 -69.5q0 -44 -30.5 -70.5t-74.5 -26.5q-45 0 -74.5 27.5t-29.5 69.5zM170 1286q-2 28 7.5 36.5t43.5 8.5h92q34 0 43 -9.5t6 -39.5l-75 -917h-41z" />
<glyph unicode="&#x22;" horiz-adv-x="831" d="M133 1196q0 47 28 78t72 31t72.5 -31t28.5 -78q0 -24 -4 -53.5t-12 -76t-9 -50.5l-51 -295h-49l-51 295q-1 4 -9 50.5t-12 76t-4 53.5zM498 1196q0 47 28 78t72 31t72 -31t28 -78q0 -33 -24 -180l-51 -295h-50l-51 295q-24 147 -24 180z" />
<glyph unicode="#" horiz-adv-x="1368" d="M94 369v88h232l84 405h-316v88h336l86 416h88l-86 -416h453l88 416h88l-88 -416h213v-88h-232l-84 -405h316v-88h-332l-88 -416h-88l88 416h-457l-88 -416h-88l88 416h-213zM414 457h454l84 405h-454z" />
<glyph unicode="$" horiz-adv-x="937" d="M53 211q0 28 21 49t47 21q28 0 46 -18.5t29 -47.5t23 -60.5t38 -63t65 -48.5v584q-119 73 -175.5 143.5t-56.5 163.5q0 92 63.5 164.5t168.5 103.5v133h53v-127q69 9 137 0v127h53v-133q113 -32 176.5 -80t63.5 -100q0 -26 -17.5 -45t-42.5 -19q-23 0 -42.5 16t-33.5 38 t-42 58t-62 65v-473q172 -107 231.5 -181.5t59.5 -177.5q0 -116 -75 -197t-216 -118v-197h-53v182q-65 -6 -137 2v-184h-53v197q-111 24 -190 88t-79 135zM203 1006q0 -54 27.5 -98t91.5 -91v342q-54 -19 -86.5 -60.5t-32.5 -92.5zM375 29q49 -21 137 -15v492l-137 94v-571z M375 782l137 -96v467q-39 24 -137 14v-385zM565 29q168 72 168 225q0 65 -34.5 111t-133.5 114v-450z" />
<glyph unicode="%" horiz-adv-x="1472" d="M47 958q0 146 76 246.5t186 100.5t187 -100.5t77 -246.5t-76.5 -246t-187.5 -100q-110 0 -186 100t-76 246zM162 958q0 -160 36 -237.5t111 -77.5q150 0 150 315q0 316 -150 316q-147 0 -147 -316zM195 -55l995 1394h84l-993 -1394h-86zM899 332q0 146 76 246t186 100 q111 0 187.5 -100t76.5 -246t-76.5 -246t-187.5 -100q-110 0 -186 100t-76 246zM1014 332q0 -316 147 -316q150 0 150 316q0 315 -150 315q-75 0 -111 -77.5t-36 -237.5z" />
<glyph unicode="&#x26;" horiz-adv-x="1492" d="M84 309q0 127 82.5 215t275.5 166q-66 57 -105.5 128.5t-39.5 137.5q0 107 76 172.5t202 65.5q114 0 187.5 -55.5t73.5 -143.5q0 -71 -60 -138t-172 -122q211 -143 357 -362q86 108 171 237.5t85 167.5q0 23 -23.5 32t-89.5 9v37h362v-37q-83 0 -117 -8t-57 -31 q-15 -15 -57.5 -85.5t-110.5 -172.5t-139 -184q27 -42 58.5 -96.5t49.5 -84.5t40.5 -60t46 -43t51.5 -13q59 0 160 70l18 -33q-135 -107 -252 -107q-33 0 -56.5 4t-46 16.5t-39.5 28t-39.5 48.5t-41.5 66t-51 91q-114 -121 -236 -187.5t-231 -66.5q-140 0 -236 98t-96 240z M252 334q0 -117 68.5 -188.5t179.5 -71.5q89 0 191.5 53t168.5 133q-137 232 -389 406q-117 -82 -168 -159.5t-51 -172.5zM426 1006q0 -130 152 -246q71 41 102 93t31 128q0 78 -41 125t-109 47q-63 0 -99 -39.5t-36 -107.5z" />
<glyph unicode="'" horiz-adv-x="362" d="M82 1196q0 47 28 78t72 31t72.5 -31t28.5 -78q0 -24 -4 -53.5t-12 -76t-9 -50.5l-51 -295h-49l-52 295q-24 147 -24 180z" />
<glyph unicode="(" horiz-adv-x="618" d="M174 455q0 255 91 464t274 433l57 -52q-110 -144 -174 -263.5t-99.5 -263.5t-35.5 -318q0 -254 72.5 -442.5t236.5 -403.5l-57 -51q-183 224 -274 433t-91 464z" />
<glyph unicode=")" horiz-adv-x="618" d="M23 -391q164 215 236.5 403.5t72.5 442.5q0 174 -35.5 318t-99.5 263.5t-174 263.5l57 52q120 -147 196 -276.5t122 -288t46 -332.5t-46 -332.5t-122 -288t-196 -276.5z" />
<glyph unicode="*" horiz-adv-x="1044" d="M55 997l17 58l352 -45l70 348h63l64 -348l352 45l18 -58l-313 -172l156 -323l-56 -37l-256 237l-254 -237l-53 37l154 323z" />
<glyph unicode="+" horiz-adv-x="1366" d="M145 610v90h492v492h90v-492h494v-90h-494v-493h-90v493h-492z" />
<glyph unicode="," horiz-adv-x="532" d="M139 68q0 41 32.5 70.5t78.5 29.5q62 0 102.5 -48.5t40.5 -121.5q0 -95 -63 -179t-164 -122l-14 37q157 91 157 205q0 43 -28 43q-4 0 -12 -1t-11 -1q-20 -5 -27 -5q-40 0 -66 26.5t-26 66.5z" />
<glyph unicode="-" horiz-adv-x="811" d="M72 350v103h667v-103h-667z" />
<glyph unicode="." horiz-adv-x="532" d="M162 72q0 42 29.5 69t74.5 27q44 0 74.5 -26.5t30.5 -69.5q0 -44 -30.5 -70.5t-74.5 -26.5q-45 0 -74.5 27.5t-29.5 69.5z" />
<glyph unicode="/" horiz-adv-x="937" d="M94 -29l662 1334h88l-662 -1334h-88z" />
<glyph unicode="0" horiz-adv-x="1003" d="M76 637q0 187 59.5 342t157 240.5t209.5 85.5q117 0 215.5 -92.5t154.5 -246t56 -329.5q0 -185 -58 -339t-156 -240.5t-212 -86.5q-80 0 -156.5 48.5t-136.5 133.5t-96.5 211.5t-36.5 272.5zM229 637q0 -315 62 -471t211 -156q54 0 96.5 19.5t72 59t50 92t32 125.5 t16.5 152t5 179q0 96 -4.5 173t-16 150.5t-31.5 127t-49.5 95t-72.5 62.5t-98 21q-63 0 -110.5 -30t-78 -83.5t-49.5 -133.5t-27 -172.5t-8 -209.5z" />
<glyph unicode="1" horiz-adv-x="1003" d="M182 1001q88 59 194.5 155t143.5 149h72v-1188q0 -47 14.5 -62.5t61.5 -15.5h114v-39h-516v39h111q48 0 63 16.5t15 63.5v1022q-51 -44 -125.5 -93t-130.5 -75z" />
<glyph unicode="2" horiz-adv-x="1003" d="M61 0v33q62 79 159 177.5t176.5 176t155 164t118.5 178.5t43 184q0 116 -78 195.5t-193 79.5q-109 0 -197.5 -76.5t-123.5 -200.5h-33q19 175 133.5 284.5t280.5 109.5q161 0 269 -104t108 -259q0 -180 -148 -328q-16 -16 -91 -76.5t-195.5 -168.5t-251.5 -242h538 q43 0 67.5 6t41.5 26.5t26 47t21 80.5h33l-39 -287h-820z" />
<glyph unicode="3" horiz-adv-x="1003" d="M70 117q0 28 19 48.5t44 20.5q30 0 67.5 -25t69.5 -54.5t80.5 -54.5t98.5 -25q120 0 207 109.5t87 260.5q0 120 -64 202.5t-159 82.5q-73 0 -143 -55l-19 28q146 121 212.5 200t66.5 157t-58 133t-141 55q-78 0 -154 -55.5t-118 -145.5l-37 15q53 134 155.5 212.5 t223.5 78.5q114 0 190 -65.5t76 -162.5q0 -78 -55 -153.5t-156 -135.5l4 -4q138 13 234 -88t96 -245q0 -125 -72 -236t-192 -177.5t-254 -66.5q-124 0 -216.5 43.5t-92.5 102.5z" />
<glyph unicode="4" horiz-adv-x="1003" d="M72 373v47l604 885h57v-830h205v-102h-205v-402h-137v402h-524zM168 475h428v635h-4z" />
<glyph unicode="5" horiz-adv-x="1003" d="M96 100q0 26 20 45t48 19q30 0 58.5 -15t51 -36t46 -42t55 -36t67.5 -15q114 0 197.5 102.5t83.5 242.5q0 141 -86.5 233t-218.5 92q-118 0 -217 -76l-21 15l29 649h485q45 0 60 27h39l-23 -160h-518l-16 -369q92 51 221 51q113 0 209.5 -56.5t153.5 -153t57 -209.5 q0 -186 -138.5 -311.5t-343.5 -125.5q-123 0 -211 37.5t-88 91.5z" />
<glyph unicode="6" horiz-adv-x="1003" d="M92 504q0 284 182.5 497t503.5 304l23 -31q-239 -98 -370 -252.5t-165 -378.5q83 65 149.5 92t141.5 27q151 0 257 -110t106 -267q0 -169 -118 -291.5t-282 -122.5q-189 0 -308.5 149t-119.5 384zM246 463q0 -99 16.5 -179t44 -131t64 -85t74.5 -48t79 -14 q109 0 175.5 95.5t66.5 265.5q0 160 -67.5 253t-172.5 93q-116 0 -270 -123q-10 -48 -10 -127z" />
<glyph unicode="7" horiz-adv-x="1003" d="M76 1022l14 252h811v-43l-500 -1260h-112l495 1170h-563q-60 0 -81.5 -22t-30.5 -97h-33z" />
<glyph unicode="8" horiz-adv-x="1003" d="M102 307q0 217 297 336q-144 64 -212 144.5t-68 185.5q0 135 111 233.5t264 98.5q154 0 261 -86t107 -209q0 -193 -266 -299q161 -72 234 -158t73 -205q0 -160 -116.5 -268.5t-286.5 -108.5q-166 0 -282 98t-116 238zM231 311q0 -131 77 -217t194 -86q115 0 192.5 81.5 t77.5 201.5q0 101 -75.5 175t-256.5 157q-209 -114 -209 -312zM240 1036q0 -90 68 -158t259 -149q172 108 172 283q0 110 -70 183t-177 73q-106 0 -179 -67.5t-73 -164.5z" />
<glyph unicode="9" horiz-adv-x="1003" d="M84 891q0 169 117.5 291.5t281.5 122.5q189 0 308.5 -149t119.5 -384q0 -284 -182.5 -497t-503.5 -304l-22 31q239 98 369.5 252.5t164.5 378.5q-83 -65 -149.5 -92t-141.5 -27q-151 0 -256.5 110t-105.5 267zM238 911q0 -163 67 -255.5t172 -92.5q53 0 130 34t141 91 q10 45 10 125q0 121 -24.5 213t-65.5 143t-88.5 76t-100.5 25q-110 0 -175.5 -95.5t-65.5 -263.5z" />
<glyph unicode=":" horiz-adv-x="532" d="M162 72q0 42 29.5 69t74.5 27q44 0 74.5 -26.5t30.5 -69.5q0 -44 -30.5 -70.5t-74.5 -26.5q-45 0 -74.5 27.5t-29.5 69.5zM162 735q0 42 29.5 69t74.5 27q44 0 74.5 -26.5t30.5 -69.5q0 -44 -30 -70t-75 -26t-74.5 27t-29.5 69z" />
<glyph unicode=";" horiz-adv-x="532" d="M139 68q0 41 32.5 70.5t78.5 29.5q62 0 102.5 -48.5t40.5 -121.5q0 -95 -63 -179t-164 -122l-14 37q157 91 157 205q0 43 -28 43q-4 0 -12 -1t-11 -1q-20 -5 -27 -5q-40 0 -66 26.5t-26 66.5zM168 735q0 42 29.5 69t74.5 27q44 0 74.5 -26.5t30.5 -69.5q0 -44 -30 -70 t-75 -26t-74.5 27t-29.5 69z" />
<glyph unicode="&#x3c;" horiz-adv-x="1366" d="M145 614v82l1074 455v-102l-951 -394l951 -393v-102z" />
<glyph unicode="=" horiz-adv-x="1366" d="M145 475v90h1076v-90h-1076zM145 846v90h1076v-90h-1076z" />
<glyph unicode="&#x3e;" horiz-adv-x="1366" d="M147 160v102l951 393l-951 394v102l1074 -455v-82z" />
<glyph unicode="?" horiz-adv-x="724" d="M104 1200q0 43 43 69.5t136 26.5q151 0 252.5 -100t101.5 -262q0 -79 -20.5 -138.5t-53 -94t-72 -58.5t-78.5 -39t-71.5 -29t-53 -34t-20.5 -49q0 -70 78 -148h-45q-44 47 -72 104t-28 107q0 49 21.5 83.5t55.5 54.5t75 35.5t82.5 32.5t75.5 39.5t55.5 62.5t21.5 95 q0 88 -57.5 135.5t-151.5 47.5q-37 0 -90 -7.5t-68 -7.5q-49 0 -83 17.5t-34 56.5zM213 72q0 42 29.5 69t74.5 27q44 0 74.5 -26.5t30.5 -69.5q0 -44 -30.5 -70.5t-74.5 -26.5q-45 0 -74.5 27.5t-29.5 69.5z" />
<glyph unicode="@" horiz-adv-x="1878" d="M96 444q0 202 74 384t200.5 312t301.5 206.5t370 76.5q319 0 517 -190t198 -496q0 -91 -21 -187.5t-66.5 -189.5t-108.5 -166t-155.5 -118t-199.5 -45q-153 0 -153 137q0 52 16 143l-4 4q-214 -284 -389 -284q-76 0 -129 67t-53 164q0 91 35 192.5t93.5 190t129.5 161 t148.5 115t143.5 42.5q62 0 112.5 -34.5t60.5 -103.5h4l30 111l158 20l-178 -608q-38 -117 -31 -180.5t76 -63.5q55 0 114.5 32t113.5 92t97.5 138.5t69 180.5t25.5 209q0 134 -48 249t-133 196t-205.5 127t-260.5 46q-156 0 -294 -54t-240 -147t-176 -214.5t-111.5 -259.5 t-37.5 -279q0 -233 99.5 -415.5t278.5 -284t407 -101.5q272 0 480.5 144t322.5 409h57q-80 -270 -322 -442t-544 -172q-248 0 -447.5 114.5t-312.5 317t-113 454.5zM647 293q0 -58 34.5 -99.5t82.5 -41.5q62 0 136 54.5t136 139.5t104 199.5t42 224.5q0 63 -35 103t-90 40 q-86 0 -185 -114.5t-162 -261t-63 -244.5z" />
<glyph unicode="A" horiz-adv-x="1386" d="M8 0v39q70 1 104 16t58 53.5t59 133.5l373 1018l-18 45h178l428 -1137q30 -79 68 -104t118 -25v-39h-563v39h53q91 0 125.5 14t34.5 56q0 29 -22 84l-138 372h-424l-118 -321q-3 -9 -12 -31.5t-14 -37.5t-10 -32.5t-5 -27.5q0 -41 40 -58.5t126 -17.5h32v-39h-473z M477 655h354l-180 478z" />
<glyph unicode="B" horiz-adv-x="1300" d="M0 0v39h47q123 0 162 34.5t39 133.5v850q0 49 -4.5 78t-20.5 54t-48 35.5t-85 10.5h-72v39q28 1 128 6t130 6q169 6 308 6q299 0 411 -80q125 -88 125 -227q0 -89 -65.5 -160t-167.5 -90v-4q145 -43 225 -132.5t80 -209.5q0 -51 -14 -102.5t-47 -104t-82 -92.5 t-126.5 -65t-172.5 -25h-750zM418 266q0 -117 52 -164t181 -47q97 0 167.5 28t108.5 76.5t55 104t17 119.5q0 61 -23 117t-66.5 101.5t-113.5 73t-157 27.5h-221v-436zM418 741h223q295 0 295 238q0 119 -81 196.5t-257 77.5q-27 0 -180 -6v-506z" />
<glyph unicode="C" horiz-adv-x="1492" d="M106 621q0 147 55 274t152 217t234 141.5t295 51.5q88 0 167 -13t123 -28t83.5 -28t58.5 -13q29 0 37 12h30l19 -297h-39q-52 144 -176.5 229.5t-290.5 85.5q-253 0 -404 -164.5t-151 -426.5q0 -136 47 -256.5t125.5 -205t184.5 -133.5t221 -49q329 0 499 304h39 q-48 -163 -131 -299q-20 3 -40 3q-26 0 -54 -4q-50 -8 -94.5 -20.5t-119 -23.5t-155.5 -11q-205 0 -368.5 84t-255 233.5t-91.5 336.5z" />
<glyph unicode="D" horiz-adv-x="1556" d="M31 0v39h35q87 0 124 31.5t37 117.5v881q0 99 -32 132.5t-123 33.5h-41v39q105 6 288 12q170 6 345 6q159 0 288.5 -31.5t220 -86.5t152.5 -132.5t90.5 -168t28.5 -193.5q0 -95 -28.5 -189.5t-90 -183.5t-148.5 -157t-214 -109t-277 -41h-655zM397 152q0 -30 2 -45 t10.5 -30.5t26.5 -22t49 -11t80 -4.5q204 0 312 35t204 131q68 66 119 182t51 260q0 276 -164 440q-78 78 -201.5 122t-324.5 44q-64 0 -164 -8v-1093z" />
<glyph unicode="E" horiz-adv-x="1216" d="M6 0v39h57q119 0 156 35.5t37 132.5v864q0 91 -32.5 127.5t-131.5 36.5h-45v39h983l17 -285h-37q-19 123 -55 167t-97 44h-432v-504h367q57 0 84 33.5t34 120.5h39v-389h-39q-11 103 -40.5 132.5t-98.5 29.5h-346v-437q0 -67 25 -89.5t86 -22.5h315q105 0 152 47.5 t86 183.5h36l-32 -305h-1088z" />
<glyph unicode="F" horiz-adv-x="1087" d="M88 1235v39h918v-242h-35q-2 91 -39 129.5t-131 38.5h-389v-481h405q110 0 119 131h35v-361h-35q-3 87 -36.5 121.5t-108.5 34.5h-379v-448q0 -91 33.5 -124.5t144.5 -33.5v-39h-498v39q96 6 123 41.5t27 159.5v802q0 45 -2.5 71t-10.5 52t-25 39.5t-45 21.5t-71 9z" />
<glyph unicode="G" horiz-adv-x="1515" d="M117 612q0 67 13 135t41 136.5t69 130t100 115t130.5 92.5t164 61.5t196.5 22.5q96 0 188 -17.5t149.5 -35t70.5 -17.5q30 0 47 14h29v-331h-41q-39 179 -150.5 257t-269.5 78q-105 0 -194.5 -33.5t-153.5 -92.5t-108.5 -138.5t-66.5 -171.5t-22 -192q0 -121 32.5 -223.5 t86 -172t123.5 -118.5t143 -71t146 -22q156 0 313 78v258q0 88 -36 122t-128 34h-76v37h553v-37q-77 -5 -110 -34t-33 -95v-285q-133 -68 -292.5 -98.5t-256.5 -30.5q-130 0 -240 38.5t-185.5 102.5t-129 148t-78 174t-24.5 182z" />
<glyph unicode="H" horiz-adv-x="1622" d="M61 0v39h13q92 0 127 31t35 118v902q0 79 -31.5 109t-116.5 36v39h487v-39q-107 0 -138 -38t-31 -159v-356h802v403q0 84 -34 117t-127 33h-39v39h526v-39q-92 -3 -124 -37.5t-32 -130.5v-850q0 -106 35 -142t129 -36h21v-39h-580v39h64q96 0 128.5 35t32.5 119v415h-802 v-389q0 -104 32 -142t131 -38h6v-39h-514z" />
<glyph unicode="I" horiz-adv-x="681" d="M92 0v39q95 4 124.5 38.5t29.5 137.5v872q0 82 -33 112.5t-121 35.5v39h498v-39q-100 0 -137 -33t-37 -133v-868q0 -93 35 -127.5t139 -34.5v-39h-498z" />
<glyph unicode="J" horiz-adv-x="618" d="M-223 -367q0 33 21.5 57.5t51.5 24.5q29 0 64 -24t73 -48t74 -24q168 0 168 301v1094q0 139 -29 180t-137 41h-22v39h518v-39q-96 -3 -128 -34.5t-32 -115.5v-874q0 -204 -52.5 -360.5t-148.5 -242t-223 -85.5q-85 0 -141.5 31.5t-56.5 78.5z" />
<glyph unicode="K" horiz-adv-x="1429" d="M39 0v39h37q95 0 129.5 34t34.5 115v899q0 88 -38 118t-126 30h-37v39h553v-39h-19q-92 0 -127.5 -35t-35.5 -127v-442q60 6 112 36t117 95q119 119 202 239t83 170q0 36 -30 50t-112 14v39h539v-39q-108 -1 -166 -19.5t-104 -64.5q-19 -19 -80 -110t-147 -196t-181 -177 q27 -4 60.5 -30.5t103.5 -96.5q126 -126 253.5 -276.5t143.5 -166.5q29 -29 80 -44t148 -15v-39h-601v39q71 2 102.5 15t31.5 42t-53.5 98t-198.5 214q-123 123 -179 157q-47 28 -101 28q-11 0 -23 -1v-383q0 -97 34 -133.5t129 -36.5h27v-39h-561z" />
<glyph unicode="L" horiz-adv-x="1130" d="M41 0v39h68q72 0 100.5 29t28.5 106v907q0 85 -34 119.5t-128 34.5h-29v39h604v-39h-76q-104 0 -135.5 -24.5t-31.5 -116.5v-944q0 -41 18.5 -58.5t62.5 -17.5h302q37 0 65 7.5t49.5 19t51 44t52 61.5t68.5 93h37l-158 -299h-915z" />
<glyph unicode="M" horiz-adv-x="1878" d="M27 0v39q59 0 90 7t51 33.5t26.5 64.5t10.5 114l49 797q2 51 2 84t-12.5 53.5t-38.5 30t-74 12.5v37h309l494 -1032l491 1032h301v-37q-33 -3 -45.5 -4t-34 -4.5t-28 -8t-15.5 -13t-11 -20.5t-1 -30l66 -928q2 -30 3.5 -51t5.5 -40.5t6 -32t10 -24t12 -17.5t17.5 -11 t21 -7t28 -3.5t33 -1.5h41.5v-39h-526v39q83 0 135 30q47 27 47 92v13l-59 918h-5l-509 -1092h-48l-522 1092h-4l-55 -922v-11q-1 -31 9 -53q12 -26 36.5 -39.5t52.5 -19.5t66 -8v-39h-426z" />
<glyph unicode="N" horiz-adv-x="1665" d="M61 0v39h9q93 0 130.5 32.5t37.5 104.5v1008q-69 48 -172 51v39h321l965 -1006v815q0 93 -38.5 121t-162.5 31v39h479v-39q-113 0 -149.5 -22.5t-36.5 -84.5v-1142h-53l-1061 1110v-879q0 -111 38.5 -144.5t168.5 -33.5v-39h-476z" />
<glyph unicode="O" horiz-adv-x="1685" d="M109 608q0 201 96 360.5t267 248t386 88.5q144 0 275.5 -47.5t229.5 -130t156 -201.5t58 -254q0 -202 -99.5 -364.5t-265.5 -251.5t-364 -89q-149 0 -284 47t-236 129.5t-160 203.5t-59 261zM301 672q0 -188 78.5 -338t213 -233t298.5 -83q97 0 179 33t139 89.5t97 131.5 t59 159t19 173q0 285 -162.5 467t-416.5 182q-104 0 -190.5 -37t-143 -96.5t-96 -137t-57 -155.5t-17.5 -155z" />
<glyph unicode="P" horiz-adv-x="1153" d="M41 1235v39q27 1 116.5 5.5t141.5 6.5q150 6 254 6q123 0 218.5 -23t152 -58.5t93 -85t49.5 -96.5t13 -99q0 -180 -134 -285.5t-361 -105.5q-93 0 -174 16v-358q0 -88 34 -123t129 -35h68v-39h-567v39h28q81 0 109.5 24t28.5 95v968q0 58 -22 83.5t-75 25.5h-102z M410 594q72 -16 110 -16q165 0 266 100.5t101 257.5q0 317 -336 317q-92 0 -141 -8v-651z" />
<glyph unicode="Q" horiz-adv-x="1685" d="M109 616q0 144 57 272t155.5 219.5t236 144.5t292.5 53q147 0 280 -46.5t232 -129t157 -203t58 -260.5q0 -241 -149 -429t-398 -249v-4q64 -24 129 -69.5t117 -92t107 -90.5t120.5 -72.5t136.5 -30.5l-32 -43q-50 -12 -95 -12q-90 0 -172 30.5t-149 79.5t-128 101 t-134.5 104.5t-143.5 79.5q-193 13 -347 98t-242 228.5t-88 320.5zM301 672q0 -188 78.5 -337.5t213 -232t298.5 -82.5q97 0 179 33t139 89t97 131t59 158.5t19 172.5q0 285 -162.5 467t-416.5 182q-104 0 -190.5 -37t-143 -96.5t-96 -137t-57 -155.5t-17.5 -155z" />
<glyph unicode="R" horiz-adv-x="1642" d="M39 0v39h35q93 0 128.5 35t35.5 135v862q0 95 -32.5 129.5t-121.5 34.5h-45v39q6 0 258 12q126 6 258 6q273 0 411 -99.5t138 -264.5q0 -116 -73.5 -205.5t-199.5 -126.5q94 -73 234 -213l162 -162q96 -96 192.5 -148t210.5 -59v-37q-41 -2 -78 -2q-60 0 -110 5 q-80 8 -136 22.5t-112 50.5t-94.5 70t-102.5 98l-135 135q-125 125 -211 183q-102 -4 -139 -4q-38 0 -104 4v-346q0 -89 37 -121.5t126 -32.5h47v-39h-579zM408 578q41 -5 127 -5q376 0 376 342q0 76 -19 134t-63 105.5t-124.5 73t-194.5 25.5q-65 0 -102 -4v-671z" />
<glyph unicode="S" horiz-adv-x="1003" d="M90 311h39q32 -134 127.5 -211t218.5 -77q72 0 134.5 25.5t105.5 82t43 133.5q0 60 -36.5 115t-94.5 99.5t-128 89t-140 91t-128 96.5t-94.5 115t-36.5 138q0 128 104 212.5t261 84.5q74 0 128 -13t88.5 -26t61.5 -13q21 0 37 21h33l35 -260h-35q-43 110 -133.5 175.5 t-196.5 65.5q-102 0 -165.5 -53t-63.5 -139q0 -52 28 -100t74.5 -86t105.5 -78.5t120.5 -76t120.5 -80.5t105.5 -90.5t74.5 -106.5t28 -128q0 -151 -118.5 -250.5t-298.5 -99.5q-67 0 -174 28t-111 28q-26 0 -41 -23h-35z" />
<glyph unicode="T" horiz-adv-x="1386" d="M66 973l32 332h39q3 -18 23 -25q18 -6 41 -6h985q58 0 63 31h39l33 -332h-37q-23 133 -54.5 180t-94.5 47h-357v-1012q0 -84 34.5 -116.5t127.5 -32.5h76v-39h-645v39h75q93 0 127.5 32.5t34.5 116.5v1012h-356q-63 0 -95 -47t-55 -180h-36z" />
<glyph unicode="U" horiz-adv-x="1622" d="M37 1235v39h526v-39h-18q-88 0 -125 -32t-37 -118v-569q0 -209 120.5 -325.5t346.5 -116.5q73 0 137.5 12.5t126.5 44t105.5 80.5t70.5 127.5t27 179.5v477q0 78 -7 120.5t-30.5 70t-60 37t-103.5 12.5v39h481v-39q-102 -1 -144 -45t-42 -143v-553q0 -79 -20 -152.5 t-66 -142.5t-114.5 -120t-172.5 -81.5t-233 -30.5q-143 0 -257 39.5t-186.5 109t-110.5 163t-38 204.5v598q0 50 -7.5 79t-29 46t-52.5 22.5t-87 6.5z" />
<glyph unicode="V" horiz-adv-x="1409" d="M8 1235v39h563v-39q-138 -3 -181 -36q-25 -19 -25 -52q0 -23 12 -53l368 -918l324 846q35 87 35 127q0 46 -43.5 66t-147.5 20v39h476v-39q-79 0 -126.5 -40t-84.5 -136l-422 -1092h-103l-444 1108q-28 70 -48.5 100.5t-55 45t-97.5 14.5z" />
<glyph unicode="W" horiz-adv-x="2048" d="M2 1235v39h530v-39h-34q-73 -1 -99 -33q-13 -16 -13 -40t13 -56l373 -938l221 547l-166 403q-29 71 -76 94t-135 23v39h840v-39q-92 0 -134.5 -24t-68.5 -85l-131 -319l269 -639l362 950q12 30 12 51q1 24 -15 38q-28 25 -140 28v39h424v-39q-94 0 -131.5 -32.5 t-83.5 -153.5l-412 -1082h-98l-269 633l-258 -633h-100l-426 1090q-44 113 -91.5 145.5t-150.5 32.5h-12zM973 1159l102 -237l92 225q11 26 11 44q0 44 -62 44h-86q-67 0 -67 -40q0 -15 10 -36z" />
<glyph unicode="X" horiz-adv-x="1536" d="M18 0v39q108 9 171.5 49.5t170.5 169.5l318 383l-318 399q-95 120 -158 156t-184 39v39h611v-39h-15q-55 -1 -89 -7q-38 -8 -49.5 -24.5t-4 -38t32.5 -53.5l278 -344l222 264q91 107 91 157q0 24 -22 35q-21 11 -61 11h-60v39h492v-39q-99 0 -177.5 -48.5t-170.5 -160.5 l-262 -321l385 -480q89 -113 141.5 -144.5t169.5 -41.5v-39h-565v39q111 -1 129 33q3 6 3 15q0 37 -61 114l-307 379l-326 -392q-52 -59 -52 -96q1 -8 3 -14q14 -38 111 -39h41v-39h-488z" />
<glyph unicode="Y" horiz-adv-x="1449" d="M-4 1235v39h545v-39q-116 0 -137 -31q-7 -10 -7 -23q0 -30 35 -79l328 -506l289 491q31 50 31 82v7q-4 32 -36 45.5t-100 13.5v39h463v-39q-98 -7 -154 -45.5t-102 -116.5l-340 -575v-308q0 -83 36 -117t128 -34h26v-39h-563v39h39q92 0 128 34.5t36 112.5v289l-365 569 q-74 117 -126.5 152.5t-153.5 38.5z" />
<glyph unicode="Z" horiz-adv-x="1386" d="M82 0v47l919 1153h-608q-100 0 -138 -42.5t-50 -172.5h-37l10 289h1055v-47l-926 -1153h725q23 0 42 2t35.5 8.5t29 12t24 19.5t19 24t16.5 32.5t14 37.5t13 46.5t12.5 52.5t13.5 62h37l-24 -371h-1182z" />
<glyph unicode="[" horiz-adv-x="618" d="M209 -438v1773h395v-41h-145q-66 0 -89.5 -18.5t-23.5 -61.5v-1531q0 -43 23.5 -61.5t89.5 -18.5h145v-41h-395z" />
<glyph unicode="\" horiz-adv-x="937" d="M94 1305h88l662 -1334h-88z" />
<glyph unicode="]" horiz-adv-x="618" d="M14 -397h146q66 0 89 18t23 62v1531q0 44 -23 62t-89 18h-146v41h396v-1773h-396v41z" />
<glyph unicode="^" horiz-adv-x="960" d="M37 659l428 717h31l428 -717h-95l-350 586l-348 -586h-94z" />
<glyph unicode="_" horiz-adv-x="1024" d="M-16 -154h1056v-102h-1056v102z" />
<glyph unicode="`" horiz-adv-x="681" d="M143 1290q0 26 18 43t46 17q64 0 131 -90l188 -261h-26l-217 146q-75 51 -107.5 83.5t-32.5 61.5z" />
<glyph unicode="a" horiz-adv-x="811" d="M74 143q0 45 18 79t54.5 56.5t74.5 37t94 28.5q86 20 183 78v162q0 35 -1.5 51.5t-9 38t-24.5 41.5q-48 59 -115 59q-49 0 -88 -33t-39 -67q0 -16 10 -39l-139 -68q-6 18 -6 29q0 36 47 92.5t120.5 101t135.5 44.5q54 0 115 -27t100 -82q22 -30 26.5 -60t4.5 -116v-275 q0 -132 7.5 -166t45.5 -34q47 0 100 45l11 -31q-139 -113 -203 -113q-86 0 -94 125q-97 -81 -143.5 -103t-94.5 -22q-88 0 -139 46t-51 122zM205 168q0 -53 36.5 -87t84.5 -34q26 0 57.5 16t114.5 74v244q-42 -25 -121 -57q-56 -23 -81 -35t-50 -30t-33 -39t-8 -52z" />
<glyph unicode="b" horiz-adv-x="1024" d="M12 1257v35l246 84h33v-686q108 77 180 110.5t129 33.5q137 0 236.5 -117.5t99.5 -278.5q0 -197 -137.5 -330t-341.5 -133q-99 0 -303 39v1110q0 80 -13 99t-71 26zM291 250q0 -86 57 -150.5t166 -64.5q126 0 205.5 96t79.5 250q0 153 -80 255.5t-199 102.5 q-95 0 -229 -96v-393z" />
<glyph unicode="c" horiz-adv-x="874" d="M94 371q0 192 138 327.5t333 135.5q97 0 163.5 -34t66.5 -83q0 -26 -17.5 -44t-42.5 -18q-27 0 -51.5 13t-43.5 31.5t-38.5 36.5t-46.5 31t-59 13q-106 0 -185.5 -108.5t-79.5 -255.5q0 -154 82.5 -255.5t206.5 -101.5q143 0 250 148l31 -19q-134 -213 -363 -213 q-71 0 -130 25.5t-97.5 67t-65.5 94.5t-39 105.5t-12 103.5z" />
<glyph unicode="d" horiz-adv-x="1024" d="M88 371q0 126 58.5 232.5t160.5 168.5t225 62q108 0 201 -39v397q0 29 -15.5 40t-64.5 17l-67 8v35l284 84v-1202q0 -74 61 -74q18 0 40 6l49 15v-43l-262 -103h-25v146q-202 -146 -317 -146q-136 0 -232 116t-96 280zM225 440q0 -154 78.5 -265.5t188.5 -111.5 q94 0 241 103v459q-55 81 -113 117t-131 36q-118 0 -191 -95.5t-73 -242.5z" />
<glyph unicode="e" horiz-adv-x="897" d="M98 395q0 82 27.5 160t76.5 140.5t125.5 100.5t166.5 38q78 0 133.5 -20.5t85.5 -54.5t48.5 -68t36 -71t33.5 -53v-47h-598q-8 -62 -8 -86q0 -155 93 -255.5t219 -100.5q76 0 138.5 32t121.5 101l22 -25q-73 -92 -166.5 -151.5t-197.5 -59.5q-151 0 -254 121t-103 299z M240 573h419q-17 100 -72.5 161t-129.5 61q-29 0 -56.5 -8.5t-59 -30.5t-58 -69t-43.5 -114z" />
<glyph unicode="f" horiz-adv-x="555" d="M33 721v35q84 18 151 55q0 134 35.5 233.5t122.5 186.5q145 145 291 145q79 0 145 -34.5t66 -61.5q0 -14 -22.5 -56t-33.5 -42q-9 0 -31 15.5t-48 34.5t-70 34.5t-90 15.5q-110 0 -168.5 -82.5t-58.5 -232.5v-156h206l15 -90h-221v-561q0 -70 32 -95.5t119 -25.5h78v-39 h-506v39q88 0 113.5 27t25.5 114v541h-151z" />
<glyph unicode="g" horiz-adv-x="960" d="M72 -283q0 41 22 74t51.5 53t73 54.5t72.5 70.5q-81 7 -138 51t-57 95q0 33 23.5 56t53 34.5t70 28t62.5 32.5q-95 37 -145.5 102t-50.5 152q0 132 104 223t256 91q144 0 229 -82q89 0 269 20v-129q-103 7 -205 25q35 -67 35 -131q0 -121 -98 -209t-261 -88q-45 0 -94 16 q-12 -13 -45 -30.5t-56.5 -35t-23.5 -38.5q0 -38 69 -55t224 -19q179 -2 254 -16t119 -58q61 -61 61 -143q0 -41 -21 -86t-67 -90.5t-110 -81t-158 -58t-203 -22.5q-151 0 -233 56.5t-82 137.5zM199 -215q0 -75 90.5 -140t212.5 -65q131 0 234.5 74t103.5 170q0 54 -39 85 t-99 36q-24 3 -181 7.5t-189 8.5q-18 -22 -56.5 -54.5t-57.5 -59t-19 -62.5zM246 561q0 -48 12.5 -95.5t37 -90.5t68 -69.5t99.5 -26.5q89 0 142.5 66.5t53.5 172.5q0 129 -59.5 203t-155.5 74q-33 0 -64.5 -10.5t-63 -34.5t-51 -73t-19.5 -116z" />
<glyph unicode="h" d="M51 0v39q83 4 111 37.5t28 120.5v981q0 35 -10 49t-41 18l-88 12v35l244 84h33v-671q113 67 189 98t149 31q118 0 172.5 -75t54.5 -231q0 -226 -10 -411q3 -43 35 -60.5t120 -17.5v-39h-442v39q82 0 115 33q27 27 36 113t9 317q0 63 -13.5 110t-32.5 72.5t-46 41t-49 20 t-46 4.5q-87 0 -241 -97v-491q0 -72 27 -97.5t106 -25.5v-39h-410z" />
<glyph unicode="i" horiz-adv-x="532" d="M37 0v39q94 0 132 33.5t38 115.5v412q0 58 -11.5 75t-52.5 25l-96 19v33l266 92h31v-688q0 -117 148 -117v-39h-455zM172 1227q0 32 25.5 55t62.5 23t63.5 -23t26.5 -55t-26.5 -55t-63.5 -23t-62.5 23t-25.5 55z" />
<glyph unicode="j" horiz-adv-x="512" d="M-215 -371q0 38 18.5 66.5t42.5 28.5q20 0 47.5 -19t52 -42.5t58.5 -42.5t66 -19q137 0 137 223v794q0 45 -13 60.5t-55 23.5l-92 17v33l268 92h29v-881q0 -204 -97 -322t-243 -118q-92 0 -155.5 31t-63.5 75zM168 1227q0 32 25.5 55t62.5 23t63.5 -23t26.5 -55 t-26.5 -55t-63.5 -23t-62.5 23t-25.5 55z" />
<glyph unicode="k" horiz-adv-x="1024" d="M45 0v39q79 0 111 34t32 103v989q0 43 -11.5 59.5t-47.5 20.5l-84 12v35l250 84h31v-889l295 211q40 29 27 51.5t-70 22.5h-35v39h405v-39q-99 -4 -160.5 -32.5t-154.5 -96.5l-189 -135l328 -334q78 -79 126 -106.5t118 -28.5v-39h-441v39q93 0 93 36q0 21 -31 54 l-311 324v-314q0 -56 24.5 -78t93.5 -22h21v-39h-420z" />
<glyph unicode="l" horiz-adv-x="491" d="M12 0v39q96 0 133 31t37 106v989q0 45 -11 61.5t-52 20.5l-92 10v35l262 84h30v-1214q0 -123 119 -123h35v-39h-461z" />
<glyph unicode="m" horiz-adv-x="1622" d="M43 0v39q85 0 115 37.5t30 120.5v401q0 59 -11.5 79t-47.5 25l-80 11v35l246 86h31v-164q110 78 206 121t158 43q75 0 127.5 -44.5t67.5 -119.5q67 42 103 63.5t89 49t93.5 39.5t76.5 12q107 0 156 -78.5t49 -231.5q0 -268 -6 -393q0 -38 25 -65t83 -27h66v-39h-461v39 h19q75 0 104 29q21 21 27 91t6 199v160q0 234 -154 234q-98 0 -272 -115v-471q0 -76 25.5 -101.5t101.5 -25.5v-39h-420v39q86 0 121 35t35 123v378q0 89 -45 133t-107 44q-94 0 -274 -119v-467q0 -79 28 -103t115 -24v-39h-426z" />
<glyph unicode="n" d="M53 0v39q67 0 102 34t35 95v430q0 57 -10.5 75t-50.5 25l-70 15v32l236 86h33v-159q161 101 220 128q76 34 132 34q106 0 162.5 -78t56.5 -230q0 -120 -3.5 -201.5t-7.5 -130t-5 -73.5v-6q0 -38 25 -56q27 -20 89 -20h45v-39h-440v39q81 3 117 39q27 27 35 129.5t8 331.5 q0 114 -46 164.5t-116 50.5q-84 0 -272 -131v-445q0 -85 27 -112t110 -27v-39h-412z" />
<glyph unicode="o" d="M92 399q0 102 39 186.5t103 137.5t142 82t159 29q187 0 313.5 -124t126.5 -307q0 -181 -125.5 -304.5t-308.5 -123.5q-191 0 -320 122t-129 302zM246 469q0 -186 92.5 -315t224.5 -129q98 0 178 91t80 236q0 115 -42.5 214.5t-115.5 158.5t-157 59q-103 0 -181.5 -92.5 t-78.5 -222.5z" />
<glyph unicode="p" horiz-adv-x="1024" d="M12 -438h21q78 0 107.5 32t29.5 119v903q0 31 -11 45t-46 23l-66 16v39l219 135h41v-196q197 149 318 149q120 0 211.5 -115t91.5 -266q0 -122 -59.5 -228t-160 -169t-214.5 -63q-77 0 -187 41v-332q0 -73 34.5 -103t102.5 -30h52v-39h-484v39zM307 160q57 -51 121.5 -81 t120.5 -30q103 0 172.5 89t69.5 216q0 78 -17.5 142.5t-45.5 106t-64 70.5t-72 41.5t-70 12.5q-98 0 -215 -100v-467z" />
<glyph unicode="q" horiz-adv-x="1024" d="M94 385q0 188 125.5 318.5t306.5 130.5q121 0 258 -70q28 41 68 65h35q-13 -60 -13 -104v-1038q0 -62 34 -93.5t85 -31.5h23v-39h-496v39h80q79 0 108 34t29 123v408q-165 -143 -309 -143q-145 0 -239.5 114t-94.5 287zM231 438q0 -157 81.5 -262.5t201.5 -105.5 q52 0 113.5 28t109.5 76v365q0 107 -66 175t-165 68q-125 0 -200 -93t-75 -251z" />
<glyph unicode="r" horiz-adv-x="681" d="M53 0v39q77 1 107 36t30 118v473l-137 49v35l234 81h41v-217h4q82 135 114 171t80 36q26 0 70 -18q6 -3 106 -31l-49 -123q-51 7 -108 33q-46 20 -72 20q-43 0 -80 -53q-42 -58 -65 -102v-397q0 -63 28.5 -87t104.5 -24h78v-39h-486z" />
<glyph unicode="s" horiz-adv-x="618" d="M66 207h32q18 -91 71.5 -142t123.5 -51q61 0 103 40t42 96q0 34 -12.5 59t-52.5 65q-38 38 -87 73t-84.5 58t-68.5 50.5t-50 64t-17 84.5q0 102 72.5 166t189.5 64q80 0 164 -33l4 -187h-35q-10 77 -56 123.5t-108 46.5q-52 0 -88.5 -32t-36.5 -82q0 -36 21 -68.5 t54.5 -58t74.5 -51t81.5 -54t74 -60t54.5 -75t21 -94.5q0 -100 -73.5 -167t-180.5 -67q-47 0 -90 15q-46 12 -55 12q-19 0 -35 -25h-31z" />
<glyph unicode="t" horiz-adv-x="598" d="M59 721v33q123 60 197 260h35v-203h293l-33 -90h-260v-477q0 -45 14.5 -80.5t37 -54.5t44 -28t39.5 -9q66 0 125 102l33 -31q-37 -80 -95.5 -124t-128.5 -44q-90 0 -148 67.5t-58 170.5v508h-95z" />
<glyph unicode="u" d="M51 743v31l264 57v-573q0 -89 54.5 -136.5t130.5 -47.5q109 0 243 112v441q0 61 -13 80t-62 28l-103 19v28l316 49v-690q-1 -42 19 -53q10 -6 29 -6t46 6l43 8v-37l-275 -84v164q-228 -164 -348 -164q-84 0 -150.5 55.5t-66.5 153.5v455q0 38 -11.5 56.5t-43.5 27.5z" />
<glyph unicode="v" horiz-adv-x="980" d="M14 774v37h418v-37q-50 -2 -78 -6.5t-44 -17.5t-13.5 -35t20.5 -58l218 -510l208 474q16 40 16 70q-1 3 -1 5q-2 32 -38 52.5t-108 25.5v37h357v-37q-58 -10 -95 -45t-67 -104l-283 -643h-59l-297 680q-22 52 -43 74.5t-47 27.5z" />
<glyph unicode="w" horiz-adv-x="1515" d="M16 774v37h398v-37q-88 -4 -104 -34q-5 -10 -6 -24q0 -30 24 -79l221 -494l201 475q-34 79 -66.5 111.5t-85.5 38.5l-49 6v37h424v-37q-77 -2 -97 -30q-8 -11 -9 -31q0 -28 18 -74l200 -487l197 479q18 45 18 74q0 25 -12 39q-26 30 -125 30v37h344v-37 q-59 -6 -98.5 -39.5t-69.5 -107.5l-264 -645h-55l-244 577l-246 -577h-57l-305 688q-23 51 -54 74t-98 30z" />
<glyph unicode="x" horiz-adv-x="1003" d="M16 0v41q72 0 113 21.5t96 84.5l219 246l-198 260q-42 57 -90 87.5t-125 33.5v37h413v-37q-70 0 -84 -20q-5 -7 -4 -16q0 -19 21 -48l153 -203l134 150q38 43 38 75q0 14 -6 24q-21 38 -100 38v37h395v-37l-59 -6q-63 -7 -107 -36t-94 -85l-174 -192l246 -308 q45 -57 84 -81.5t104 -24.5v-41h-409v41q76 1 93 19q5 6 5 14q0 19 -25 53l-182 233l-180 -202q-26 -31 -26 -55q-1 -16 11 -29q30 -33 119 -33v-41h-381z" />
<glyph unicode="y" horiz-adv-x="960" d="M-10 774v37h411v-37q-91 -1 -111 -31q-8 -11 -8 -27q0 -27 21 -67l232 -499l174 434q23 58 28 94.5t-9.5 57.5t-41.5 28.5t-76 9.5v37h340v-37q-60 -7 -99.5 -47.5t-70.5 -116.5l-348 -868q-47 -118 -87.5 -168.5t-92.5 -50.5q-37 0 -60.5 20t-23.5 51q0 29 20 46.5 t45.5 23.5t57 17.5t47.5 27.5q40 40 70 117l61 154l-317 673q-30 65 -64.5 92.5t-97.5 28.5z" />
<glyph unicode="z" horiz-adv-x="831" d="M63 0v39l519 698h-281h-65q-33 0 -50 -30.5t-47 -127.5q-3 -8 -4 -12.5t-3 -12t-5 -13.5h-39l64 325h34q0 -34 19 -44.5t78 -10.5h487v-37l-516 -700h375q49 0 78 33.5t63 115.5h37l-84 -223h-660z" />
<glyph unicode="{" horiz-adv-x="980" d="M211 432v35q100 19 163.5 76t63.5 129q0 45 -24 147q-23 102 -23 172q0 138 108 254t269 131v-37q-106 -10 -168.5 -81t-62.5 -156q0 -74 18 -162q20 -98 20 -160q0 -100 -77 -193.5t-207 -133.5v-4q130 -40 207 -135t77 -195q0 -60 -20 -158q-18 -88 -18 -164 q0 -85 62.5 -156t168.5 -81v-37q-161 15 -269 131t-108 254q0 74 23 172q24 106 24 147q0 72 -63.5 129t-163.5 76z" />
<glyph unicode="|" horiz-adv-x="1044" d="M479 -477v1782h88v-1782h-88z" />
<glyph unicode="}" horiz-adv-x="980" d="M213 -440q106 10 168.5 81t62.5 156q0 66 -20 164q-18 88 -18 158q0 100 77 195t207 135v4q-130 40 -207 133.5t-77 193.5q0 72 18 160q20 98 20 162q0 85 -62.5 156t-168.5 81v37q161 -15 269 -131t108 -254q0 -62 -25 -172q-22 -94 -22 -147q0 -72 63.5 -129t163.5 -76 v-35q-100 -19 -163.5 -76t-63.5 -129q0 -50 22 -147q25 -106 25 -172q0 -138 -108 -254t-269 -131v37z" />
<glyph unicode="~" horiz-adv-x="1110" d="M14 487q3 151 73.5 228.5t191.5 77.5q38 0 93.5 -15.5t88 -28.5t114.5 -47q75 -32 113.5 -47t92.5 -31t89 -16q71 0 116 49.5t52 135.5h58q-6 -149 -75.5 -227.5t-189.5 -78.5q-43 0 -100 15t-99 31.5t-108 44.5q-159 68 -215 81q-37 9 -65 9q-71 0 -113 -44.5 t-59 -136.5h-58z" />
<glyph unicode="&#xa1;" horiz-adv-x="532" d="M158 782q0 44 30 70.5t74 26.5q45 0 75 -27.5t30 -69.5t-30 -69t-75 -27q-44 0 -74 26.5t-30 69.5zM166 -428l76 917h41l75 -921q2 -28 -7.5 -36.5t-43.5 -8.5h-92q-34 0 -43 9.5t-6 39.5z" />
<glyph unicode="&#xa2;" horiz-adv-x="874" d="M94 371q0 95 39.5 183t107 153t166.5 100t211 24l107 261h66l-111 -275q115 -36 115 -100q0 -26 -17.5 -44t-42.5 -18q-49 0 -102 50l-244 -613q73 -33 133 -33q73 0 131.5 35t118.5 113l29 -19q-76 -123 -191 -178.5t-262 -21.5l-135 -332h-66l144 352 q-95 53 -146 152.5t-51 210.5zM231 416q0 -164 107 -283l248 612q-53 35 -90 35q-106 0 -185.5 -108.5t-79.5 -255.5z" />
<glyph unicode="&#xa3;" horiz-adv-x="1556" d="M29 -399q0 50 74 119t167 104q62 109 136 307h-302l11 49h311l160 414q79 206 159 350.5t191 255.5q80 80 159.5 116t170.5 36q98 0 169.5 -43.5t71.5 -102.5q0 -28 -18 -45.5t-47 -17.5q-24 0 -46.5 14.5t-41.5 35t-41 40.5t-54.5 34.5t-70.5 14.5q-32 0 -73 -19 t-77 -55q-58 -58 -136.5 -235t-177 -418t-169.5 -375h352l-10 -49h-365q-73 -152 -174 -276l4 -5q103 56 224 56q73 0 142 -26.5t121.5 -64t102 -75t105.5 -64t110 -26.5q77 0 131 44t54 107q0 34 -29 82.5t-29 67.5q0 32 21 54t51 22q40 0 65 -38.5t25 -97.5 q0 -132 -116.5 -237t-264.5 -105q-76 0 -145 30t-121 72.5t-101 84.5t-107 72t-118 30q-70 0 -166 -47q-52 -106 -117 -171.5t-116 -65.5q-22 0 -38.5 14t-16.5 33z" />
<glyph unicode="&#xa4;" horiz-adv-x="1366" d="M215 250l125 123q-55 76 -77.5 139t-22.5 143t22.5 144.5t77.5 138.5l-125 123l61 63l125 -123q76 55 139.5 77t143.5 22t143 -22t140 -79l125 125l61 -63l-125 -123q55 -75 77.5 -138t22.5 -145q0 -78 -22.5 -141t-77.5 -139l125 -125l-61 -62l-125 125 q-76 -57 -139.5 -79.5t-143.5 -22.5q-79 0 -143.5 23t-139.5 77l-125 -123zM328 655q0 -147 104.5 -251.5t251.5 -104.5q146 0 251 105t105 251q0 147 -105 252t-251 105q-148 0 -252 -104.5t-104 -252.5z" />
<glyph unicode="&#xa5;" horiz-adv-x="1024" d="M-217 1235v39h545v-39q-116 0 -137.5 -31.5t28.5 -101.5l109 -166h420l88 151q45 83 20 115.5t-125 32.5v39h463v-39q-99 -7 -154.5 -45t-101.5 -117l-80 -137h227v-68h-268l-190 -321h458v-68h-487v-289q0 -83 36 -117t128 -34h26v-39h-563v39h39q92 0 128 34.5 t36 112.5v293h-549v68h504l-207 321h-297v68h254l-70 108q-74 117 -126.5 152.5t-153.5 38.5zM371 868l176 -272l160 272h-336z" />
<glyph unicode="&#xa6;" horiz-adv-x="1044" d="M479 279h88v-756h-88v756zM479 549v756h88v-756h-88z" />
<glyph unicode="&#xa7;" horiz-adv-x="960" d="M106 831q0 137 60.5 256.5t167.5 192t233 72.5q97 0 179.5 -42t82.5 -91q0 -28 -21 -47t-52 -19q-28 0 -56.5 21.5t-50.5 47t-60 47t-83 21.5q-76 0 -131.5 -49t-55.5 -117q0 -64 97 -210q31 -46 162 -228q71 -98 114.5 -167t83.5 -151t58 -162.5t18 -168.5 q0 -111 -45 -206.5t-115 -156t-150.5 -94t-156.5 -33.5q-97 0 -174.5 39.5t-77.5 89.5q0 26 20 46t46 20q24 0 46 -14t40.5 -33.5t40 -39.5t54.5 -34t75 -14q75 0 130.5 48.5t55.5 111.5q0 56 -55 149.5t-133.5 200.5t-157.5 222.5t-134 247t-55 244.5zM182 852 q0 -65 16 -130t51.5 -136t51.5 -99t57 -94q35 -56 101.5 -151.5t110.5 -160t85 -146.5t52 -146q67 100 67 227q0 68 -11.5 130.5t-27 109.5t-51 110t-62 103.5t-81.5 120.5q-158 228 -206 312q-77 133 -81 206h-4q-31 -47 -49.5 -117t-18.5 -139z" />
<glyph unicode="&#xa8;" horiz-adv-x="681" d="M53 1145q0 37 26.5 63.5t63.5 26.5t63.5 -26.5t26.5 -63.5t-26.5 -63.5t-63.5 -26.5t-63.5 26.5t-26.5 63.5zM451 1145q0 37 26.5 63.5t63.5 26.5t63.5 -26.5t26.5 -63.5t-26.5 -63.5t-63.5 -26.5t-63.5 26.5t-26.5 63.5z" />
<glyph unicode="&#xa9;" horiz-adv-x="1556" d="M70 678q0 144 56 275t151 226t226 151t275 56t275.5 -56t226.5 -151t151 -226t56 -275q0 -115 -36 -223.5t-101.5 -195.5t-152.5 -152.5t-195.5 -101.5t-223.5 -36q-144 0 -275 56t-226 151t-151 226.5t-56 275.5zM131 678q0 -176 86.5 -325t235.5 -235.5t325 -86.5 t325 86.5t235.5 235.5t86.5 325t-86.5 325t-235.5 235.5t-325 86.5t-325 -86.5t-235.5 -235.5t-86.5 -325zM317 672q0 197 143 330t355 133q55 0 101.5 -11.5t77 -22.5t46.5 -11q34 0 47 45h39l21 -281h-39q-71 238 -303 238q-148 0 -235 -105.5t-87 -284.5q0 -213 92 -313 t240 -100q195 0 311 162l39 -19q-139 -203 -385 -203q-196 0 -329.5 127.5t-133.5 315.5z" />
<glyph unicode="&#xaa;" horiz-adv-x="532" d="M43 893q0 40 29 66.5t66.5 37.5t90.5 27.5t84 34.5v112q0 37 -27.5 61.5t-56.5 24.5q-30 0 -54.5 -24t-4.5 -53l-111 -50q-21 26 8.5 68.5t85.5 74.5t103 32q65 0 117.5 -36.5t52.5 -92.5v-263q0 -29 4.5 -42t18.5 -13q34 0 69 35l12 -35q-87 -72 -143 -72q-58 0 -70 64 q-52 -39 -79.5 -51.5t-65.5 -12.5q-57 0 -93 30t-36 77zM152 907q0 -28 17.5 -46.5t45.5 -18.5q13 0 98 47v129q-23 -11 -53 -22t-46 -17.5t-32 -16.5t-23 -23t-7 -32z" />
<glyph unicode="&#xab;" horiz-adv-x="724" d="M70 449l301 376h37l-195 -376l195 -377h-37zM358 449l240 346h37l-133 -346l133 -347h-37z" />
<glyph unicode="&#xac;" horiz-adv-x="1366" d="M145 856v90h1076v-577h-93v487h-983z" />
<glyph unicode="&#xad;" horiz-adv-x="811" d="M72 350v103h667v-103h-667z" />
<glyph unicode="&#xae;" horiz-adv-x="1556" d="M70 678q0 144 56 275t151 226t226 151t275 56t275.5 -56t226.5 -151t151 -226t56 -275q0 -115 -36 -223.5t-101.5 -195.5t-152.5 -152.5t-195.5 -101.5t-223.5 -36q-144 0 -275 56t-226 151t-151 226.5t-56 275.5zM131 678q0 -176 86.5 -325t235.5 -235.5t325 -86.5 t325 86.5t235.5 235.5t86.5 325t-86.5 325t-235.5 235.5t-325 86.5t-325 -86.5t-235.5 -235.5t-86.5 -325zM373 248v33q55 0 79.5 22t24.5 66v622q0 44 -19 65t-73 21v37h385q135 0 217 -62t82 -163q0 -166 -223 -221l209 -299q33 -49 58.5 -67t62.5 -21v-33h-185l-295 405 h-73v-295q0 -42 25 -59.5t91 -17.5v-33h-366zM623 696h39q104 0 174.5 45.5t70.5 137.5q0 82 -57 136t-145 54q-33 0 -82 -14v-359z" />
<glyph unicode="&#xaf;" horiz-adv-x="681" d="M59 1087v119h564v-119h-564z" />
<glyph unicode="&#xb0;" horiz-adv-x="811" d="M98 1001q0 127 90 217.5t218 90.5q127 0 217 -90t90 -218q0 -127 -89.5 -217t-217.5 -90t-218 90t-90 217zM182 1001q0 -92 66 -157.5t158 -65.5t157.5 65.5t65.5 157.5t-65.5 158t-157.5 66t-158 -66t-66 -158z" />
<glyph unicode="&#xb1;" horiz-adv-x="1366" d="M145 -37v90h1076v-90h-1076zM145 772v90h492v492h90v-492h494v-90h-494v-493h-90v493h-492z" />
<glyph unicode="&#xb2;" horiz-adv-x="618" d="M16 840v24q45 50 230 209q155 134 155 240q0 60 -44.5 96.5t-102.5 36.5q-31 0 -62.5 -10t-67 -44t-52.5 -87h-41q11 105 86 160t170 55q97 0 166 -53.5t69 -137.5q0 -33 -9.5 -61t-22.5 -48.5t-42.5 -47t-52 -43.5t-69.5 -50q-94 -68 -201 -161h262q71 0 88 11t29 70h43 l-25 -159h-506z" />
<glyph unicode="&#xb3;" horiz-adv-x="618" d="M14 905q0 19 16 31t36 12q18 0 33 -8t59 -39q46 -29 73 -34q9 -1 19 -1q61 0 111.5 53t50.5 130q0 68 -38 103.5t-81 35.5q-44 0 -88 -35l-23 29q168 105 168 180q0 42 -32.5 66t-71.5 24q-11 0 -22.5 -2t-36.5 -10.5t-51 -32.5t-46 -61l-43 14q38 82 104.5 120t133.5 38 q71 0 120.5 -34.5t49.5 -88.5q0 -76 -111 -142q87 -7 134.5 -58t47.5 -120q0 -96 -95 -173t-224 -77q-69 0 -131 23t-62 57z" />
<glyph unicode="&#xb4;" horiz-adv-x="681" d="M143 999l189 261q67 90 131 90q28 0 45.5 -17t17.5 -43q0 -29 -32 -61.5t-107 -83.5l-217 -146h-27z" />
<glyph unicode="&#xb5;" horiz-adv-x="1024" d="M55 -334q0 39 31 167t31 241v737h137v-442q0 -159 35.5 -222t130.5 -63q76 0 138 33t128 110v584h137v-616q0 -53 20.5 -84t49.5 -31q62 0 80 123h43q-5 -104 -52.5 -168t-123.5 -64q-64 0 -108.5 51.5t-45.5 139.5q-96 -96 -176.5 -143.5t-163.5 -47.5q-53 0 -87 18.5 t-69 67.5q-9 -85 18.5 -215.5t27.5 -175.5q0 -44 -27.5 -76t-65.5 -32q-39 0 -63.5 29.5t-24.5 78.5z" />
<glyph unicode="&#xb6;" horiz-adv-x="917" d="M-14 897q0 177 119 277t331 100h494v-55h-131v-1696h-74v1696h-186v-1696h-74v995q-243 0 -361 101t-118 278z" />
<glyph unicode="&#xb7;" horiz-adv-x="532" d="M162 662q0 42 29.5 69t74.5 27q44 0 74.5 -26.5t30.5 -69.5q0 -44 -30.5 -70.5t-74.5 -26.5q-45 0 -74.5 27.5t-29.5 69.5z" />
<glyph unicode="&#xb8;" horiz-adv-x="681" d="M209 -254l160 264h30l-65 -110q64 12 111 -37t47 -115q0 -73 -51.5 -124.5t-123.5 -51.5q-38 0 -88 16l15 29q27 -8 53 -8q44 0 76.5 30.5t32.5 73.5q0 34 -17.5 54t-48.5 20q-47 0 -131 -41z" />
<glyph unicode="&#xb9;" horiz-adv-x="618" d="M109 1358q48 29 109 75.5t95 84.5h62v-605q0 -24 8 -32.5t29 -8.5h75v-32h-327v32h67q29 0 36 7.5t7 33.5v496q-81 -51 -145 -78z" />
<glyph unicode="&#xba;" horiz-adv-x="704" d="M53 1047q0 43 19.5 87.5t55 83t93.5 63t127 24.5q66 0 119 -20t85 -49.5t53.5 -66t29.5 -67t8 -55.5q0 -99 -83.5 -180t-211.5 -81q-66 0 -119 20.5t-85 50.5t-53.5 67t-29.5 68t-8 55zM178 1085q0 -106 56 -181t135 -75q66 0 109.5 53.5t43.5 133.5q0 100 -56.5 173 t-133.5 73q-66 0 -110 -51t-44 -126z" />
<glyph unicode="&#xbb;" horiz-adv-x="724" d="M90 102l133 347l-133 346h37l240 -346l-240 -347h-37zM317 72l195 377l-195 376h37l301 -376l-301 -377h-37z" />
<glyph unicode="&#xbc;" horiz-adv-x="1472" d="M109 1145q55 31 115.5 79.5t88.5 80.5h62v-611q0 -20 8 -27.5t31 -7.5h73v-32h-327v32h84q26 0 26 33v504q-87 -56 -143 -78zM156 -55l995 1394h84l-995 -1394h-84zM748 190v31l360 457h53v-424h121v-64h-121v-204h-104v204h-309zM834 254h223v287h-4z" />
<glyph unicode="&#xbd;" horiz-adv-x="1472" d="M109 1145q55 31 115.5 79.5t88.5 80.5h62v-611q0 -20 8 -27.5t31 -7.5h73v-32h-327v32h84q26 0 26 33v504q-87 -56 -143 -78zM156 -55l995 1394h84l-995 -1394h-84zM827 0v25q50 51 116 109t108 95.5t82 79.5t59.5 82t19.5 82q0 57 -42 95t-105 38t-111.5 -38t-68.5 -103 h-43q11 95 81.5 154t174.5 59q100 0 167.5 -54.5t67.5 -136.5q0 -51 -19.5 -89t-59 -71t-83.5 -63t-109 -81t-120 -109h281q50 0 67.5 15.5t24.5 70.5h43l-25 -160h-506z" />
<glyph unicode="&#xbe;" horiz-adv-x="1472" d="M55 692q0 17 14.5 30t34.5 13q25 0 55 -20.5t64 -41t68 -20.5q65 0 113.5 55t48.5 128q0 59 -35 99t-86 40q-41 0 -86 -35l-25 29q87 58 128.5 98.5t41.5 81.5q0 38 -31 64t-75 26q-45 0 -87 -28t-69 -78l-41 14q34 73 97.5 115.5t140.5 42.5q72 0 121 -35.5t49 -87.5 q0 -76 -111 -140v-4q83 -6 132.5 -54t49.5 -122q0 -100 -96 -175t-223 -75q-77 0 -135 24t-58 56zM190 -55l996 1394h84l-996 -1394h-84zM782 190v31l361 457h53v-424h121v-64h-121v-204h-104v204h-310zM868 254h224v287h-5z" />
<glyph unicode="&#xbf;" horiz-adv-x="724" d="M88 -115q0 79 20.5 138.5t53 94t71.5 59t78.5 39.5t72 29t53 34t20.5 49q0 69 -78 147h45q44 -47 72 -104t28 -107q0 -49 -21.5 -83.5t-55.5 -54.5t-75.5 -35.5t-82.5 -32.5t-75 -39.5t-55.5 -62.5t-21.5 -95q0 -88 57.5 -135.5t151.5 -47.5q37 0 90 7.5t68 7.5 q49 0 83 -17.5t34 -56.5q0 -43 -43 -69.5t-136 -26.5q-151 0 -252.5 100t-101.5 262zM303 748q0 44 30 70t75 26t74.5 -27t29.5 -69t-29.5 -69.5t-74.5 -27.5q-44 0 -74.5 27t-30.5 70z" />
<glyph unicode="&#xc0;" horiz-adv-x="1386" d="M8 0v39q70 1 104 16t58 53.5t59 133.5l373 1018l-18 45h178l428 -1137q30 -79 68 -104t118 -25v-39h-563v39h53q91 0 125.5 14t34.5 56q0 29 -22 84l-138 372h-424l-118 -321q-3 -9 -12 -31.5t-14 -37.5t-10 -32.5t-5 -27.5q0 -41 40 -58.5t126 -17.5h32v-39h-473z M477 655h354l-180 478zM496 1726q0 26 17.5 43t45.5 17q64 0 131 -90l189 -260h-27l-217 145q-75 51 -107 83.5t-32 61.5z" />
<glyph unicode="&#xc1;" horiz-adv-x="1386" d="M8 0v39q70 1 104 16t58 53.5t59 133.5l373 1018l-18 45h178l428 -1137q30 -79 68 -104t118 -25v-39h-563v39h53q91 0 125.5 14t34.5 56q0 29 -22 84l-138 372h-424l-118 -321q-3 -9 -12 -31.5t-14 -37.5t-10 -32.5t-5 -27.5q0 -41 40 -58.5t126 -17.5h32v-39h-473z M477 655h354l-180 478zM496 1436l188 260q67 90 131 90q28 0 46 -17t18 -43q0 -29 -32.5 -61.5t-107.5 -83.5l-217 -145h-26z" />
<glyph unicode="&#xc2;" horiz-adv-x="1386" d="M8 0v39q70 1 104 16t58 53.5t59 133.5l373 1018l-18 45h178l428 -1137q30 -79 68 -104t118 -25v-39h-563v39h53q91 0 125.5 14t34.5 56q0 29 -22 84l-138 372h-424l-118 -321q-3 -9 -12 -31.5t-14 -37.5t-10 -32.5t-5 -27.5q0 -41 40 -58.5t126 -17.5h32v-39h-473z M446 1432v34l222 369h57l217 -369v-34l-254 256zM477 655h354l-180 478z" />
<glyph unicode="&#xc3;" horiz-adv-x="1386" d="M8 0v39q70 1 104 16t58 53.5t59 133.5l373 1018l-18 45h178l428 -1137q30 -79 68 -104t118 -25v-39h-563v39h53q91 0 125.5 14t34.5 56q0 29 -22 84l-138 372h-424l-118 -321q-3 -9 -12 -31.5t-14 -37.5t-10 -32.5t-5 -27.5q0 -41 40 -58.5t126 -17.5h32v-39h-473z M418 1477q0 112 44 170.5t122 58.5q60 0 145 -61q5 -4 21.5 -15t23 -15.5t19.5 -12.5t21 -11.5t18.5 -6.5t19.5 -3q85 0 94 125h23q10 -97 -39 -162t-119 -65q-25 0 -52.5 10.5t-45 21.5t-47.5 31q-31 22 -44.5 31t-37.5 20t-43 11q-86 0 -101 -127h-22zM477 655h354 l-180 478z" />
<glyph unicode="&#xc4;" horiz-adv-x="1386" d="M8 0v39q70 1 104 16t58 53.5t59 133.5l373 1018l-18 45h178l428 -1137q30 -79 68 -104t118 -25v-39h-563v39h53q91 0 125.5 14t34.5 56q0 29 -22 84l-138 372h-424l-118 -321q-3 -9 -12 -31.5t-14 -37.5t-10 -32.5t-5 -27.5q0 -41 40 -58.5t126 -17.5h32v-39h-473z M406 1581q0 37 26.5 63.5t63.5 26.5t63.5 -26.5t26.5 -63.5t-26.5 -63.5t-63.5 -26.5t-63.5 26.5t-26.5 63.5zM477 655h354l-180 478zM803 1581q0 37 26.5 63.5t63.5 26.5t63.5 -26.5t26.5 -63.5t-26.5 -63.5t-63.5 -26.5t-63.5 26.5t-26.5 63.5z" />
<glyph unicode="&#xc5;" horiz-adv-x="1386" d="M8 0v39q70 1 104 16t58 53.5t59 133.5l373 1018l-18 45h178l428 -1137q30 -79 68 -104t118 -25v-39h-563v39h53q91 0 125.5 14t34.5 56q0 29 -22 84l-138 372h-424l-118 -321q-3 -9 -12 -31.5t-14 -37.5t-10 -32.5t-5 -27.5q0 -41 40 -58.5t126 -17.5h32v-39h-473z M477 655h354l-180 478zM508 1569q0 77 55 131.5t131 54.5q77 0 132 -55t55 -131q0 -77 -55.5 -132t-131.5 -55t-131 55t-55 132zM557 1569q0 -57 40 -97t97 -40t97 40t40 97t-40 97t-97 40t-97 -40t-40 -97z" />
<glyph unicode="&#xc6;" horiz-adv-x="1792" d="M-106 0v39q71 0 120 38.5t109 135.5l539 891q78 131 -56 131h-45v39h1045l16 -285h-37q-10 68 -26 112t-37.5 64.5t-41 27.5t-46.5 7h-408v-504h342q57 0 84.5 33.5t34.5 120.5h39v-389h-39q-11 103 -40.5 132.5t-98.5 29.5h-322v-437q0 -67 25 -89.5t86 -22.5h290 q105 0 152 47.5t86 183.5h37l-33 -305h-1063v39h58q82 0 123.5 17.5t55 51t13.5 99.5v299h-450l-203 -330q-24 -42 -27 -72t35.5 -47.5t120.5 -17.5v-39h-438zM449 580h407v643h-18z" />
<glyph unicode="&#xc7;" horiz-adv-x="1492" d="M106 621q0 147 55 274t152 217t234 141.5t295 51.5q88 0 167 -13t123 -28t83.5 -28t58.5 -13q29 0 37 12h30l19 -297h-39q-51 143 -178.5 230t-288.5 87q-120 0 -224.5 -49t-176.5 -130.5t-113 -189t-41 -222.5q0 -172 78 -320.5t211.5 -236t288.5 -87.5q136 0 275 76 t224 226h39q-48 -163 -131 -299q-44 6 -94.5 -1.5t-96 -20t-129.5 -23.5t-180 -11l-41 -67q64 12 111 -37t47 -115q0 -73 -51 -124.5t-123 -51.5q-38 0 -88 16l14 29q27 -8 54 -8q44 0 76 30.5t32 73.5q0 34 -17.5 54t-47.5 20q-48 0 -132 -41l138 225q-142 9 -263 61.5 t-206 137.5t-133 201.5t-48 249.5z" />
<glyph unicode="&#xc8;" horiz-adv-x="1216" d="M6 0v39h57q119 0 156 35.5t37 132.5v864q0 91 -32.5 127.5t-131.5 36.5h-45v39h983l17 -285h-37q-19 123 -55 167t-97 44h-432v-504h367q57 0 84 33.5t34 120.5h39v-389h-39q-11 103 -40.5 132.5t-98.5 29.5h-346v-437q0 -67 25 -89.5t86 -22.5h315q105 0 152 47.5 t86 183.5h36l-32 -305h-1088zM412 1726q0 26 17.5 43t45.5 17q64 0 131 -90l189 -260h-27l-217 145q-75 51 -107 83.5t-32 61.5z" />
<glyph unicode="&#xc9;" horiz-adv-x="1216" d="M6 0v39h57q119 0 156 35.5t37 132.5v864q0 91 -32.5 127.5t-131.5 36.5h-45v39h983l17 -285h-37q-19 123 -55 167t-97 44h-432v-504h367q57 0 84 33.5t34 120.5h39v-389h-39q-11 103 -40.5 132.5t-98.5 29.5h-346v-437q0 -67 25 -89.5t86 -22.5h315q105 0 152 47.5 t86 183.5h36l-32 -305h-1088zM412 1436l188 260q67 90 131 90q28 0 46 -17t18 -43q0 -29 -32.5 -61.5t-107.5 -83.5l-217 -145h-26z" />
<glyph unicode="&#xca;" horiz-adv-x="1216" d="M6 0v39h57q119 0 156 35.5t37 132.5v864q0 91 -32.5 127.5t-131.5 36.5h-45v39h983l17 -285h-37q-19 123 -55 167t-97 44h-432v-504h367q57 0 84 33.5t34 120.5h39v-389h-39q-11 103 -40.5 132.5t-98.5 29.5h-346v-437q0 -67 25 -89.5t86 -22.5h315q105 0 152 47.5 t86 183.5h36l-32 -305h-1088zM362 1432v34l222 369h57l217 -369v-34l-254 256z" />
<glyph unicode="&#xcb;" horiz-adv-x="1216" d="M6 0v39h57q119 0 156 35.5t37 132.5v864q0 91 -32.5 127.5t-131.5 36.5h-45v39h983l17 -285h-37q-19 123 -55 167t-97 44h-432v-504h367q57 0 84 33.5t34 120.5h39v-389h-39q-11 103 -40.5 132.5t-98.5 29.5h-346v-437q0 -67 25 -89.5t86 -22.5h315q105 0 152 47.5 t86 183.5h36l-32 -305h-1088zM322 1581q0 37 26.5 63.5t63.5 26.5t63.5 -26.5t26.5 -63.5t-26.5 -63.5t-63.5 -26.5t-63.5 26.5t-26.5 63.5zM719 1581q0 37 26.5 63.5t63.5 26.5t63.5 -26.5t26.5 -63.5t-26.5 -63.5t-63.5 -26.5t-63.5 26.5t-26.5 63.5z" />
<glyph unicode="&#xcc;" horiz-adv-x="681" d="M92 0v39q95 4 124.5 38.5t29.5 137.5v872q0 82 -33 112.5t-121 35.5v39h498v-39q-100 0 -137 -33t-37 -133v-868q0 -93 35 -127.5t139 -34.5v-39h-498zM143 1726q0 26 18 43t46 17q64 0 131 -90l188 -260h-26l-217 145q-75 51 -107.5 83.5t-32.5 61.5z" />
<glyph unicode="&#xcd;" horiz-adv-x="681" d="M92 0v39q95 4 124.5 38.5t29.5 137.5v872q0 82 -33 112.5t-121 35.5v39h498v-39q-100 0 -137 -33t-37 -133v-868q0 -93 35 -127.5t139 -34.5v-39h-498zM143 1436l189 260q67 90 131 90q28 0 45.5 -17t17.5 -43q0 -29 -32 -61.5t-107 -83.5l-217 -145h-27z" />
<glyph unicode="&#xce;" horiz-adv-x="681" d="M92 0v39q95 4 124.5 38.5t29.5 137.5v872q0 82 -33 112.5t-121 35.5v39h498v-39q-100 0 -137 -33t-37 -133v-868q0 -93 35 -127.5t139 -34.5v-39h-498zM94 1432v34l221 369h58l217 -369v-34l-254 256z" />
<glyph unicode="&#xcf;" horiz-adv-x="681" d="M53 1581q0 37 26.5 63.5t63.5 26.5t63.5 -26.5t26.5 -63.5t-26.5 -63.5t-63.5 -26.5t-63.5 26.5t-26.5 63.5zM92 0v39q95 4 124.5 38.5t29.5 137.5v872q0 82 -33 112.5t-121 35.5v39h498v-39q-100 0 -137 -33t-37 -133v-868q0 -93 35 -127.5t139 -34.5v-39h-498z M451 1581q0 37 26.5 63.5t63.5 26.5t63.5 -26.5t26.5 -63.5t-26.5 -63.5t-63.5 -26.5t-63.5 26.5t-26.5 63.5z" />
<glyph unicode="&#xd0;" horiz-adv-x="1556" d="M31 0v39h35q87 0 124 31.5t37 117.5v408h-196v82h196v391q0 99 -32 132.5t-123 33.5h-41v39q105 6 288 12q170 6 345 6q159 0 288.5 -31.5t220 -86.5t152.5 -132.5t90.5 -168t28.5 -193.5q0 -95 -28.5 -189.5t-90 -183.5t-148.5 -157t-214 -109t-277 -41h-655zM397 152 q0 -30 2 -45t10.5 -30.5t26.5 -22t49 -11t80 -4.5q204 0 312 35t204 131q68 66 119 182t51 260q0 276 -164 440q-78 78 -201.5 122t-324.5 44q-64 0 -164 -8v-567h365v-82h-365v-444z" />
<glyph unicode="&#xd1;" horiz-adv-x="1665" d="M61 0v39h9q93 0 130.5 32.5t37.5 104.5v1008q-69 48 -172 51v39h321l965 -1006v815q0 93 -38.5 121t-162.5 31v39h479v-39q-113 0 -149.5 -22.5t-36.5 -84.5v-1142h-53l-1061 1110v-879q0 -111 38.5 -144.5t168.5 -33.5v-39h-476zM557 1477q0 112 44 170.5t122 58.5 q60 0 145 -61q5 -4 21.5 -15t23 -15.5t19.5 -12.5t21 -11.5t18.5 -6.5t19.5 -3q85 0 94 125h23q10 -97 -39 -162t-119 -65q-25 0 -52.5 10.5t-45 21.5t-47.5 31q-31 22 -44.5 31t-37.5 20t-43 11q-85 0 -100 -127h-23z" />
<glyph unicode="&#xd2;" horiz-adv-x="1685" d="M109 608q0 201 96 360.5t267 248t386 88.5q144 0 275.5 -47.5t229.5 -130t156 -201.5t58 -254q0 -202 -99.5 -364.5t-265.5 -251.5t-364 -89q-149 0 -284 47t-236 129.5t-160 203.5t-59 261zM301 672q0 -188 78.5 -338t213 -233t298.5 -83q97 0 179 33t139 89.5t97 131.5 t59 159t19 173q0 285 -162.5 467t-416.5 182q-104 0 -190.5 -37t-143 -96.5t-96 -137t-57 -155.5t-17.5 -155zM645 1726q0 26 18 43t46 17q64 0 131 -90l188 -260h-27l-217 145q-75 51 -107 83.5t-32 61.5z" />
<glyph unicode="&#xd3;" horiz-adv-x="1685" d="M109 608q0 201 96 360.5t267 248t386 88.5q144 0 275.5 -47.5t229.5 -130t156 -201.5t58 -254q0 -202 -99.5 -364.5t-265.5 -251.5t-364 -89q-149 0 -284 47t-236 129.5t-160 203.5t-59 261zM301 672q0 -188 78.5 -338t213 -233t298.5 -83q97 0 179 33t139 89.5t97 131.5 t59 159t19 173q0 285 -162.5 467t-416.5 182q-104 0 -190.5 -37t-143 -96.5t-96 -137t-57 -155.5t-17.5 -155zM645 1436l189 260q67 90 131 90q28 0 45.5 -17t17.5 -43q0 -29 -32 -61.5t-107 -83.5l-217 -145h-27z" />
<glyph unicode="&#xd4;" horiz-adv-x="1685" d="M109 608q0 201 96 360.5t267 248t386 88.5q144 0 275.5 -47.5t229.5 -130t156 -201.5t58 -254q0 -202 -99.5 -364.5t-265.5 -251.5t-364 -89q-149 0 -284 47t-236 129.5t-160 203.5t-59 261zM301 672q0 -188 78.5 -338t213 -233t298.5 -83q97 0 179 33t139 89.5t97 131.5 t59 159t19 173q0 285 -162.5 467t-416.5 182q-104 0 -190.5 -37t-143 -96.5t-96 -137t-57 -155.5t-17.5 -155zM596 1432v34l221 369h57l218 -369v-34l-254 256z" />
<glyph unicode="&#xd5;" horiz-adv-x="1685" d="M109 608q0 201 96 360.5t267 248t386 88.5q144 0 275.5 -47.5t229.5 -130t156 -201.5t58 -254q0 -202 -99.5 -364.5t-265.5 -251.5t-364 -89q-149 0 -284 47t-236 129.5t-160 203.5t-59 261zM301 672q0 -188 78.5 -338t213 -233t298.5 -83q97 0 179 33t139 89.5t97 131.5 t59 159t19 173q0 285 -162.5 467t-416.5 182q-104 0 -190.5 -37t-143 -96.5t-96 -137t-57 -155.5t-17.5 -155zM567 1477q0 112 44 170.5t122 58.5q61 0 146 -61q5 -3 25.5 -17.5t27.5 -19t22 -13t25.5 -11.5t21.5 -3q86 0 95 125h22q10 -97 -39 -162t-118 -65q-55 0 -146 63 q-31 22 -44.5 31t-37.5 20t-43 11q-85 0 -100 -127h-23z" />
<glyph unicode="&#xd6;" horiz-adv-x="1685" d="M109 608q0 201 96 360.5t267 248t386 88.5q144 0 275.5 -47.5t229.5 -130t156 -201.5t58 -254q0 -202 -99.5 -364.5t-265.5 -251.5t-364 -89q-149 0 -284 47t-236 129.5t-160 203.5t-59 261zM301 672q0 -188 78.5 -338t213 -233t298.5 -83q97 0 179 33t139 89.5t97 131.5 t59 159t19 173q0 285 -162.5 467t-416.5 182q-104 0 -190.5 -37t-143 -96.5t-96 -137t-57 -155.5t-17.5 -155zM555 1581q0 37 26.5 63.5t63.5 26.5t63.5 -26.5t26.5 -63.5t-26.5 -63.5t-63.5 -26.5t-63.5 26.5t-26.5 63.5zM952 1581q0 37 26.5 63.5t63.5 26.5t64 -26.5 t27 -63.5t-27 -63.5t-64 -26.5t-63.5 26.5t-26.5 63.5z" />
<glyph unicode="&#xd7;" horiz-adv-x="1366" d="M195 236l421 421l-421 422l65 66l422 -422l424 424l68 -68l-424 -424l421 -422l-65 -65l-424 424l-422 -422z" />
<glyph unicode="&#xd8;" horiz-adv-x="1685" d="M111 618q0 133 51.5 256.5t144.5 219.5t235 153.5t310 57.5q250 0 444 -127l162 184l29 -29l-156 -182q248 -183 248 -485q0 -199 -99 -360t-266 -250t-366 -89q-248 0 -445 125l-196 -221l-29 25l191 219q-136 97 -197 229.5t-61 273.5zM303 666q0 -262 156 -447 l753 862q-160 172 -415 172q-93 0 -173.5 -33t-138.5 -90t-99.5 -132t-62 -159.5t-20.5 -172.5zM485 190q18 -18 38.5 -36t59 -44t80 -45t100 -33t118.5 -14q109 0 197.5 37t144.5 96t94 137.5t53.5 157t15.5 158.5q0 271 -147 447z" />
<glyph unicode="&#xd9;" horiz-adv-x="1622" d="M37 1235v39h526v-39h-18q-88 0 -125 -32t-37 -118v-569q0 -209 120.5 -325.5t346.5 -116.5q73 0 137.5 12.5t126.5 44t105.5 80.5t70.5 127.5t27 179.5v477q0 78 -7 120.5t-30.5 70t-60 37t-103.5 12.5v39h481v-39q-102 -1 -144 -45t-42 -143v-553q0 -79 -20 -152.5 t-66 -142.5t-114.5 -120t-172.5 -81.5t-233 -30.5q-143 0 -257 39.5t-186.5 109t-110.5 163t-38 204.5v598q0 50 -7.5 79t-29 46t-52.5 22.5t-87 6.5zM614 1726q0 26 18 43t46 17q64 0 131 -90l188 -260h-26l-217 145q-75 51 -107.5 83.5t-32.5 61.5z" />
<glyph unicode="&#xda;" horiz-adv-x="1622" d="M37 1235v39h526v-39h-18q-88 0 -125 -32t-37 -118v-569q0 -209 120.5 -325.5t346.5 -116.5q73 0 137.5 12.5t126.5 44t105.5 80.5t70.5 127.5t27 179.5v477q0 78 -7 120.5t-30.5 70t-60 37t-103.5 12.5v39h481v-39q-102 -1 -144 -45t-42 -143v-553q0 -79 -20 -152.5 t-66 -142.5t-114.5 -120t-172.5 -81.5t-233 -30.5q-143 0 -257 39.5t-186.5 109t-110.5 163t-38 204.5v598q0 50 -7.5 79t-29 46t-52.5 22.5t-87 6.5zM614 1436l189 260q67 90 131 90q28 0 45.5 -17t17.5 -43q0 -29 -32 -61.5t-107 -83.5l-217 -145h-27z" />
<glyph unicode="&#xdb;" horiz-adv-x="1622" d="M37 1235v39h526v-39h-18q-88 0 -125 -32t-37 -118v-569q0 -209 120.5 -325.5t346.5 -116.5q73 0 137.5 12.5t126.5 44t105.5 80.5t70.5 127.5t27 179.5v477q0 78 -7 120.5t-30.5 70t-60 37t-103.5 12.5v39h481v-39q-102 -1 -144 -45t-42 -143v-553q0 -79 -20 -152.5 t-66 -142.5t-114.5 -120t-172.5 -81.5t-233 -30.5q-143 0 -257 39.5t-186.5 109t-110.5 163t-38 204.5v598q0 50 -7.5 79t-29 46t-52.5 22.5t-87 6.5zM565 1432v34l221 369h58l217 -369v-34l-254 256z" />
<glyph unicode="&#xdc;" horiz-adv-x="1622" d="M37 1235v39h526v-39h-18q-88 0 -125 -32t-37 -118v-569q0 -209 120.5 -325.5t346.5 -116.5q73 0 137.5 12.5t126.5 44t105.5 80.5t70.5 127.5t27 179.5v477q0 78 -7 120.5t-30.5 70t-60 37t-103.5 12.5v39h481v-39q-102 -1 -144 -45t-42 -143v-553q0 -79 -20 -152.5 t-66 -142.5t-114.5 -120t-172.5 -81.5t-233 -30.5q-143 0 -257 39.5t-186.5 109t-110.5 163t-38 204.5v598q0 50 -7.5 79t-29 46t-52.5 22.5t-87 6.5zM524 1581q0 37 26.5 63.5t63.5 26.5t64 -26.5t27 -63.5t-27 -63.5t-64 -26.5t-63.5 26.5t-26.5 63.5zM922 1581 q0 37 26.5 63.5t63.5 26.5t63.5 -26.5t26.5 -63.5t-26.5 -63.5t-63.5 -26.5t-63.5 26.5t-26.5 63.5z" />
<glyph unicode="&#xdd;" horiz-adv-x="1449" d="M-4 1235v39h545v-39q-116 0 -137.5 -31.5t28.5 -101.5l328 -506l289 491q35 56 31 88.5t-36 46t-100 13.5v39h463v-39q-98 -7 -154 -45.5t-102 -116.5l-340 -575v-308q0 -83 36 -117t128 -34h26v-39h-563v39h39q92 0 128 34.5t36 112.5v289l-365 569 q-74 117 -126.5 152.5t-153.5 38.5zM528 1436l189 260q67 90 131 90q28 0 45.5 -17t17.5 -43q0 -29 -32 -61.5t-107 -83.5l-217 -145h-27z" />
<glyph unicode="&#xde;" horiz-adv-x="1153" d="M74 0v39h28q81 0 109.5 24t28.5 95v958q0 71 -28.5 95t-109.5 24h-28v39h501v-39h-28q-80 0 -108.5 -24t-28.5 -95v-98q114 4 143 4q123 0 218.5 -23t152 -59t93 -85.5t49.5 -96.5t13 -99q0 -180 -134 -285.5t-361 -105.5q-88 0 -174 17v-88q0 -87 34.5 -122.5 t128.5 -35.5h68v-39h-567zM410 324q76 -17 110 -17q165 0 266 101t101 258q0 149 -81 233t-255 84q-92 0 -141 -8v-651z" />
<glyph unicode="&#xdf;" d="M41 0v39q81 0 107 21.5t26 84.5v748q0 101 21.5 183.5t58 137.5t86.5 92t105 53.5t116 16.5q145 0 244.5 -88t99.5 -215q0 -107 -76 -191t-213 -130v-4q67 -14 127.5 -43t113.5 -74t84.5 -113t31.5 -149q0 -98 -35.5 -177t-89.5 -124.5t-111 -69t-108 -23.5 q-41 0 -67.5 18.5t-26.5 47.5q0 23 14 39t33 16q21 0 60.5 -22.5t64.5 -22.5q47 0 79.5 81t32.5 202q0 221 -96 317q-42 42 -98.5 58t-143.5 16v31q137 14 212 92t75 207q0 122 -63 197t-166 75q-107 0 -167.5 -87t-60.5 -224v-850q0 -77 28.5 -102t104.5 -25v-39h-403z" />
<glyph unicode="&#xe0;" horiz-adv-x="811" d="M74 143q0 45 18 79t54.5 56.5t74.5 37t94 28.5q86 20 183 78v162q0 35 -1.5 51.5t-9 38t-24.5 41.5q-48 59 -115 59q-49 0 -88 -33t-39 -67q0 -16 10 -39l-139 -68q-6 18 -6 29q0 36 47 92.5t120.5 101t135.5 44.5q54 0 115 -27t100 -82q22 -30 26.5 -60t4.5 -116v-275 q0 -132 7.5 -166t45.5 -34q47 0 100 45l11 -31q-139 -113 -203 -113q-86 0 -94 125q-97 -81 -143.5 -103t-94.5 -22q-88 0 -139 46t-51 122zM205 168q0 -53 36.5 -87t84.5 -34q26 0 57.5 16t114.5 74v244q-42 -25 -121 -57q-56 -23 -81 -35t-50 -30t-33 -39t-8 -52z M209 1290q0 26 17.5 43t45.5 17q64 0 131 -90l189 -261h-27l-217 146q-75 51 -107 83.5t-32 61.5z" />
<glyph unicode="&#xe1;" horiz-adv-x="811" d="M74 143q0 45 18 79t54.5 56.5t74.5 37t94 28.5q86 20 183 78v162q0 35 -1.5 51.5t-9 38t-24.5 41.5q-48 59 -115 59q-49 0 -88 -33t-39 -67q0 -16 10 -39l-139 -68q-6 18 -6 29q0 36 47 92.5t120.5 101t135.5 44.5q54 0 115 -27t100 -82q22 -30 26.5 -60t4.5 -116v-275 q0 -132 7.5 -166t45.5 -34q47 0 100 45l11 -31q-139 -113 -203 -113q-86 0 -94 125q-97 -81 -143.5 -103t-94.5 -22q-88 0 -139 46t-51 122zM205 168q0 -53 36.5 -87t84.5 -34q26 0 57.5 16t114.5 74v244q-42 -25 -121 -57q-56 -23 -81 -35t-50 -30t-33 -39t-8 -52zM209 999 l188 261q67 90 131 90q28 0 46 -17t18 -43q0 -29 -32 -61.5t-107 -83.5l-217 -146h-27z" />
<glyph unicode="&#xe2;" horiz-adv-x="811" d="M74 143q0 45 18 79t54.5 56.5t74.5 37t94 28.5q86 20 183 78v162q0 35 -1.5 51.5t-9 38t-24.5 41.5q-48 59 -115 59q-49 0 -88 -33t-39 -67q0 -16 10 -39l-139 -68q-6 18 -6 29q0 36 47 92.5t120.5 101t135.5 44.5q54 0 115 -27t100 -82q22 -30 26.5 -60t4.5 -116v-275 q0 -132 7.5 -166t45.5 -34q47 0 100 45l11 -31q-139 -113 -203 -113q-86 0 -94 125q-97 -81 -143.5 -103t-94.5 -22q-88 0 -139 46t-51 122zM160 995v35l221 369h57l217 -369v-35l-254 256zM205 168q0 -53 36.5 -87t84.5 -34q26 0 57.5 16t114.5 74v244q-42 -25 -121 -57 q-56 -23 -81 -35t-50 -30t-33 -39t-8 -52z" />
<glyph unicode="&#xe3;" horiz-adv-x="811" d="M74 143q0 45 18 79t54.5 56.5t74.5 37t94 28.5q86 20 183 78v162q0 35 -1.5 51.5t-9 38t-24.5 41.5q-48 59 -115 59q-49 0 -88 -33t-39 -67q0 -16 10 -39l-139 -68q-6 18 -6 29q0 36 47 92.5t120.5 101t135.5 44.5q54 0 115 -27t100 -82q22 -30 26.5 -60t4.5 -116v-275 q0 -132 7.5 -166t45.5 -34q47 0 100 45l11 -31q-139 -113 -203 -113q-86 0 -94 125q-97 -81 -143.5 -103t-94.5 -22q-88 0 -139 46t-51 122zM131 1040q0 112 44 171t122 59q59 0 145 -62q4 -3 18.5 -13t19.5 -13.5t17 -11t18.5 -10.5t16 -7.5t17.5 -6t16 -1.5q85 0 94 125 h23q10 -97 -39.5 -162.5t-118.5 -65.5q-25 0 -53 11t-44.5 21.5t-47.5 31.5q-29 21 -44 31t-38.5 20t-42.5 10q-85 0 -100 -127h-23zM205 168q0 -53 36.5 -87t84.5 -34q26 0 57.5 16t114.5 74v244q-42 -25 -121 -57q-56 -23 -81 -35t-50 -30t-33 -39t-8 -52z" />
<glyph unicode="&#xe4;" horiz-adv-x="811" d="M74 143q0 45 18 79t54.5 56.5t74.5 37t94 28.5q86 20 183 78v162q0 35 -1.5 51.5t-9 38t-24.5 41.5q-48 59 -115 59q-49 0 -88 -33t-39 -67q0 -16 10 -39l-139 -68q-6 18 -6 29q0 36 47 92.5t120.5 101t135.5 44.5q54 0 115 -27t100 -82q22 -30 26.5 -60t4.5 -116v-275 q0 -132 7.5 -166t45.5 -34q47 0 100 45l11 -31q-139 -113 -203 -113q-86 0 -94 125q-97 -81 -143.5 -103t-94.5 -22q-88 0 -139 46t-51 122zM78 1145q0 37 26.5 63.5t63.5 26.5t63.5 -26.5t26.5 -63.5t-26.5 -63.5t-63.5 -26.5t-63.5 26.5t-26.5 63.5zM205 168 q0 -53 36.5 -87t84.5 -34q26 0 57.5 16t114.5 74v244q-42 -25 -121 -57q-56 -23 -81 -35t-50 -30t-33 -39t-8 -52zM475 1145q0 37 26.5 63.5t63.5 26.5t63.5 -26.5t26.5 -63.5t-26.5 -63.5t-63.5 -26.5t-63.5 26.5t-26.5 63.5z" />
<glyph unicode="&#xe5;" horiz-adv-x="811" d="M74 143q0 45 18 79t54.5 56.5t74.5 37t94 28.5q86 20 183 78v162q0 35 -1.5 51.5t-9 38t-24.5 41.5q-48 59 -115 59q-49 0 -88 -33t-39 -67q0 -16 10 -39l-139 -68q-6 18 -6 29q0 36 47 92.5t120.5 101t135.5 44.5q54 0 115 -27t100 -82q22 -30 26.5 -60t4.5 -116v-275 q0 -132 7.5 -166t45.5 -34q47 0 100 45l11 -31q-139 -113 -203 -113q-86 0 -94 125q-97 -81 -143.5 -103t-94.5 -22q-88 0 -139 46t-51 122zM205 168q0 -53 36.5 -87t84.5 -34q26 0 57.5 16t114.5 74v244q-42 -25 -121 -57q-56 -23 -81 -35t-50 -30t-33 -39t-8 -52z M221 1133q0 76 55 131t132 55q76 0 131 -54.5t55 -131.5t-55 -132t-131 -55t-131.5 55t-55.5 132zM270 1133q0 -57 40.5 -97.5t97.5 -40.5t97 40.5t40 97.5t-40 97t-97 40t-97.5 -40t-40.5 -97z" />
<glyph unicode="&#xe6;" horiz-adv-x="1280" d="M74 141q0 33 7 58t25.5 44.5t36.5 32.5t55 26t64 21t80 21q93 24 172 76v147q0 62 -7 89t-30 55q-49 59 -115 59q-55 0 -94 -32t-39 -76q0 -11 4 -25l3 -8l-136 -62q-8 12 -8 29q0 37 29 74t98 90q102 74 178 74q66 0 130 -34.5t96 -88.5q111 123 258 123 q78 0 133.5 -20.5t86 -54.5t49 -68t36 -71t33.5 -53v-47h-572v-49q0 -131 27 -207q26 -81 97.5 -132.5t156.5 -51.5q70 0 124.5 28.5t118.5 96.5l25 -25q-174 -205 -344 -205q-179 0 -287 177q-69 -83 -153 -130t-156 -47q-77 0 -129.5 48t-52.5 118zM209 170q0 -55 33 -89 t86 -34q95 0 186 98v234q-49 -36 -158 -70q-78 -25 -112.5 -53t-34.5 -86zM653 573h394q-15 95 -71 158.5t-120 63.5q-84 0 -154 -90q-38 -52 -49 -132z" />
<glyph unicode="&#xe7;" horiz-adv-x="874" d="M94 371q0 192 138 327.5t333 135.5q97 0 163.5 -34t66.5 -83q0 -26 -17.5 -44t-42.5 -18q-27 0 -51.5 13t-43.5 31.5t-38.5 36.5t-46.5 31t-59 13q-106 0 -185.5 -108.5t-79.5 -255.5q0 -154 82.5 -255.5t206.5 -101.5q143 0 250 148l31 -19q-65 -103 -150 -156.5 t-200 -56.5l-45 -75q64 12 110.5 -37t46.5 -115q0 -73 -51 -124.5t-123 -51.5q-38 0 -88 16l14 29q27 -8 54 -8q44 0 76 30.5t32 73.5q0 34 -17.5 54t-47.5 20q-47 0 -131 -41l139 231q-67 3 -123 30.5t-92.5 68t-62.5 92t-37 103t-11 100.5z" />
<glyph unicode="&#xe8;" horiz-adv-x="897" d="M98 395q0 82 27.5 160t76.5 140.5t125.5 100.5t166.5 38q78 0 133.5 -20.5t85.5 -54.5t48.5 -68t36 -71t33.5 -53v-47h-598q-8 -62 -8 -86q0 -155 93 -255.5t219 -100.5q76 0 138.5 32t121.5 101l22 -25q-73 -92 -166.5 -151.5t-197.5 -59.5q-151 0 -254 121t-103 299z M240 573h419q-17 100 -72.5 161t-129.5 61q-29 0 -56.5 -8.5t-59 -30.5t-58 -69t-43.5 -114zM252 1290q0 26 17.5 43t45.5 17q64 0 131 -90l189 -261h-27l-217 146q-75 51 -107 83.5t-32 61.5z" />
<glyph unicode="&#xe9;" horiz-adv-x="897" d="M98 395q0 82 27.5 160t76.5 140.5t125.5 100.5t166.5 38q78 0 133.5 -20.5t85.5 -54.5t48.5 -68t36 -71t33.5 -53v-47h-598q-8 -62 -8 -86q0 -155 93 -255.5t219 -100.5q76 0 138.5 32t121.5 101l22 -25q-73 -92 -166.5 -151.5t-197.5 -59.5q-151 0 -254 121t-103 299z M240 573h419q-17 100 -72.5 161t-129.5 61q-29 0 -56.5 -8.5t-59 -30.5t-58 -69t-43.5 -114zM252 999l188 261q67 90 131 90q28 0 46 -17t18 -43q0 -29 -32 -61.5t-107 -83.5l-217 -146h-27z" />
<glyph unicode="&#xea;" horiz-adv-x="897" d="M98 395q0 82 27.5 160t76.5 140.5t125.5 100.5t166.5 38q78 0 133.5 -20.5t85.5 -54.5t48.5 -68t36 -71t33.5 -53v-47h-598q-8 -62 -8 -86q0 -155 93 -255.5t219 -100.5q76 0 138.5 32t121.5 101l22 -25q-73 -92 -166.5 -151.5t-197.5 -59.5q-151 0 -254 121t-103 299z M203 995v35l221 369h57l217 -369v-35l-254 256zM240 573h419q-17 100 -72.5 161t-129.5 61q-29 0 -56.5 -8.5t-59 -30.5t-58 -69t-43.5 -114z" />
<glyph unicode="&#xeb;" horiz-adv-x="897" d="M98 395q0 82 27.5 160t76.5 140.5t125.5 100.5t166.5 38q78 0 133.5 -20.5t85.5 -54.5t48.5 -68t36 -71t33.5 -53v-47h-598q-8 -62 -8 -86q0 -155 93 -255.5t219 -100.5q76 0 138.5 32t121.5 101l22 -25q-73 -92 -166.5 -151.5t-197.5 -59.5q-151 0 -254 121t-103 299z M162 1145q0 37 26.5 63.5t63.5 26.5t63.5 -26.5t26.5 -63.5t-26.5 -63.5t-63.5 -26.5t-63.5 26.5t-26.5 63.5zM240 573h419q-17 100 -72.5 161t-129.5 61q-29 0 -56.5 -8.5t-59 -30.5t-58 -69t-43.5 -114zM559 1145q0 37 26.5 63.5t63.5 26.5t63.5 -26.5t26.5 -63.5 t-26.5 -63.5t-63.5 -26.5t-63.5 26.5t-26.5 63.5z" />
<glyph unicode="&#xec;" horiz-adv-x="532" d="M37 0v39q94 0 132 33.5t38 115.5v412q0 58 -11.5 75t-52.5 25l-96 19v33l266 92h31v-688q0 -117 148 -117v-39h-455zM70 1290q0 26 17.5 43t45.5 17q64 0 131 -90l189 -261h-27l-217 146q-75 51 -107 83.5t-32 61.5z" />
<glyph unicode="&#xed;" horiz-adv-x="532" d="M37 0v39q94 0 132 33.5t38 115.5v412q0 58 -11.5 75t-52.5 25l-96 19v33l266 92h31v-688q0 -117 148 -117v-39h-455zM70 999l188 261q67 90 131 90q28 0 46 -17t18 -43q0 -29 -32.5 -61.5t-107.5 -83.5l-217 -146h-26z" />
<glyph unicode="&#xee;" horiz-adv-x="532" d="M20 995v35l222 369h57l217 -369v-35l-254 256zM37 0v39q94 0 132 33.5t38 115.5v412q0 58 -11.5 75t-52.5 25l-96 19v33l266 92h31v-688q0 -117 148 -117v-39h-455z" />
<glyph unicode="&#xef;" horiz-adv-x="532" d="M-20 1145q0 37 26.5 63.5t63.5 26.5t63.5 -26.5t26.5 -63.5t-26.5 -63.5t-63.5 -26.5t-63.5 26.5t-26.5 63.5zM37 0v39q94 0 132 33.5t38 115.5v412q0 58 -11.5 75t-52.5 25l-96 19v33l266 92h31v-688q0 -117 148 -117v-39h-455zM377 1145q0 37 26.5 63.5t63.5 26.5 t63.5 -26.5t26.5 -63.5t-26.5 -63.5t-63.5 -26.5t-63.5 26.5t-26.5 63.5z" />
<glyph unicode="&#xf0;" d="M92 399q0 102 39 186.5t103 137.5t142 82t159 29q35 0 61.5 -3.5t70 -20.5t85.5 -50l4 4q-66 188 -203 328l-262 -136l-19 35l252 129q-92 89 -200 140l26 45q157 -42 273 -134l256 134l16 -37l-238 -123q83 -71 147.5 -164.5t100 -185t53 -171.5t17.5 -143 q0 -120 -32.5 -213.5t-80.5 -147t-110 -88t-113 -46t-98 -11.5q-191 0 -320 122t-129 302zM246 469q0 -122 42.5 -224t117.5 -161t165 -59q104 0 185.5 90.5t81.5 236.5q0 176 -95 304t-229 128q-108 0 -188 -92t-80 -223z" />
<glyph unicode="&#xf1;" d="M53 0v39q67 0 102 34t35 95v430q0 57 -10.5 75t-50.5 25l-70 15v32l236 86h33v-159q161 101 220 128q76 34 132 34q106 0 162.5 -78t56.5 -230q0 -120 -3.5 -201.5t-7.5 -130t-5 -73.5q-2 -42 25 -62t89 -20h45v-39h-440v39q81 3 117 39q27 27 35 129.5t8 331.5 q0 114 -46 164.5t-116 50.5q-84 0 -272 -131v-445q0 -85 27 -112t110 -27v-39h-412zM258 1040q0 112 44 171t122 59q59 0 145 -62q4 -3 18.5 -13t19.5 -13.5t17 -11t18.5 -10.5t16 -7.5t17.5 -6t16 -1.5q85 0 94 125h23q10 -97 -39.5 -162.5t-118.5 -65.5q-25 0 -53 11 t-44.5 21.5t-47.5 31.5q-29 21 -44 31t-38.5 20t-42.5 10q-85 0 -100 -127h-23z" />
<glyph unicode="&#xf2;" d="M92 399q0 102 39 186.5t103 137.5t142 82t159 29q187 0 313.5 -124t126.5 -307q0 -181 -125.5 -304.5t-308.5 -123.5q-191 0 -320 122t-129 302zM246 469q0 -186 92.5 -315t224.5 -129q98 0 178 91t80 236q0 115 -42.5 214.5t-115.5 158.5t-157 59q-103 0 -181.5 -92.5 t-78.5 -222.5zM336 1290q0 26 17.5 43t45.5 17q64 0 131 -90l189 -261h-27l-217 146q-75 51 -107 83.5t-32 61.5z" />
<glyph unicode="&#xf3;" d="M92 399q0 102 39 186.5t103 137.5t142 82t159 29q187 0 313.5 -124t126.5 -307q0 -181 -125.5 -304.5t-308.5 -123.5q-191 0 -320 122t-129 302zM246 469q0 -186 92.5 -315t224.5 -129q98 0 178 91t80 236q0 115 -42.5 214.5t-115.5 158.5t-157 59q-103 0 -181.5 -92.5 t-78.5 -222.5zM336 999l188 261q67 90 131 90q28 0 46 -17t18 -43q0 -29 -32 -61.5t-107 -83.5l-218 -146h-26z" />
<glyph unicode="&#xf4;" d="M92 399q0 102 39 186.5t103 137.5t142 82t159 29q187 0 313.5 -124t126.5 -307q0 -181 -125.5 -304.5t-308.5 -123.5q-191 0 -320 122t-129 302zM246 469q0 -186 92.5 -315t224.5 -129q98 0 178 91t80 236q0 115 -42.5 214.5t-115.5 158.5t-157 59q-103 0 -181.5 -92.5 t-78.5 -222.5zM287 995v35l221 369h57l217 -369v-35l-254 256z" />
<glyph unicode="&#xf5;" d="M92 399q0 102 39 186.5t103 137.5t142 82t159 29q187 0 313.5 -124t126.5 -307q0 -181 -125.5 -304.5t-308.5 -123.5q-191 0 -320 122t-129 302zM246 469q0 -186 92.5 -315t224.5 -129q98 0 178 91t80 236q0 115 -42.5 214.5t-115.5 158.5t-157 59q-103 0 -181.5 -92.5 t-78.5 -222.5zM258 1040q0 112 44 171t122 59q59 0 145 -62q4 -3 18.5 -13t19.5 -13.5t17 -11t18.5 -10.5t16 -7.5t17.5 -6t16 -1.5q85 0 94 125h23q10 -97 -39.5 -162.5t-118.5 -65.5q-25 0 -53 11t-44.5 21.5t-47.5 31.5q-29 21 -44 31t-38.5 20t-42.5 10q-85 0 -100 -127 h-23z" />
<glyph unicode="&#xf6;" d="M92 399q0 102 39 186.5t103 137.5t142 82t159 29q187 0 313.5 -124t126.5 -307q0 -181 -125.5 -304.5t-308.5 -123.5q-191 0 -320 122t-129 302zM246 469q0 -186 92.5 -315t224.5 -129q98 0 178 91t80 236q0 115 -42.5 214.5t-115.5 158.5t-157 59q-103 0 -181.5 -92.5 t-78.5 -222.5zM246 1145q0 37 26.5 63.5t63.5 26.5t63.5 -26.5t26.5 -63.5t-26.5 -63.5t-63.5 -26.5t-63.5 26.5t-26.5 63.5zM643 1145q0 37 26.5 63.5t63.5 26.5t63.5 -26.5t26.5 -63.5t-26.5 -63.5t-63.5 -26.5t-63.5 26.5t-26.5 63.5z" />
<glyph unicode="&#xf7;" horiz-adv-x="1366" d="M145 610v90h1076v-90h-1076zM616 238q0 26 20.5 45.5t47.5 19.5q26 0 46 -19.5t20 -45.5t-20 -47t-46 -21t-47 21t-21 47zM616 1073q0 26 21 47t47 21t46 -21t20 -47t-20 -45.5t-46 -19.5q-27 0 -47.5 19.5t-20.5 45.5z" />
<glyph unicode="&#xf8;" d="M92 401q0 98 38 181t100.5 137t141 84.5t160.5 30.5q150 0 275 -89l117 132l28 -25l-116 -133q139 -129 139 -316q0 -98 -38 -181t-100.5 -136t-139.5 -82t-158 -29q-154 0 -277 88l-139 -159l-29 26l139 158q-141 123 -141 313zM246 463q0 -154 71 -279l412 471 q-93 129 -223 129q-109 0 -184.5 -95.5t-75.5 -225.5zM340 152q30 -46 90 -86.5t131 -40.5q24 0 54.5 9t67.5 32.5t67 58.5t50.5 94.5t20.5 132.5q0 146 -71 269z" />
<glyph unicode="&#xf9;" d="M51 743v31l264 57v-573q0 -89 54.5 -136.5t130.5 -47.5q109 0 243 112v441q0 61 -13 80t-62 28l-103 19v28l316 49v-690q0 -42 19.5 -53t74.5 0l43 8v-37l-275 -84v164q-228 -164 -348 -164q-84 0 -150.5 55.5t-66.5 153.5v455q0 38 -11.5 56.5t-43.5 27.5zM336 1290 q0 26 17.5 43t45.5 17q64 0 131 -90l189 -261h-27l-217 146q-75 51 -107 83.5t-32 61.5z" />
<glyph unicode="&#xfa;" d="M51 743v31l264 57v-573q0 -89 54.5 -136.5t130.5 -47.5q109 0 243 112v441q0 61 -13 80t-62 28l-103 19v28l316 49v-690q0 -42 19.5 -53t74.5 0l43 8v-37l-275 -84v164q-228 -164 -348 -164q-84 0 -150.5 55.5t-66.5 153.5v455q0 38 -11.5 56.5t-43.5 27.5zM336 999 l188 261q67 90 131 90q28 0 46 -17t18 -43q0 -29 -32 -61.5t-107 -83.5l-218 -146h-26z" />
<glyph unicode="&#xfb;" d="M51 743v31l264 57v-573q0 -89 54.5 -136.5t130.5 -47.5q109 0 243 112v441q0 61 -13 80t-62 28l-103 19v28l316 49v-690q0 -42 19.5 -53t74.5 0l43 8v-37l-275 -84v164q-228 -164 -348 -164q-84 0 -150.5 55.5t-66.5 153.5v455q0 38 -11.5 56.5t-43.5 27.5zM287 995v35 l221 369h57l217 -369v-35l-254 256z" />
<glyph unicode="&#xfc;" d="M51 743v31l264 57v-573q0 -89 54.5 -136.5t130.5 -47.5q109 0 243 112v441q0 61 -13 80t-62 28l-103 19v28l316 49v-690q0 -42 19.5 -53t74.5 0l43 8v-37l-275 -84v164q-228 -164 -348 -164q-84 0 -150.5 55.5t-66.5 153.5v455q0 38 -11.5 56.5t-43.5 27.5zM246 1145 q0 37 26.5 63.5t63.5 26.5t63.5 -26.5t26.5 -63.5t-26.5 -63.5t-63.5 -26.5t-63.5 26.5t-26.5 63.5zM643 1145q0 37 26.5 63.5t63.5 26.5t63.5 -26.5t26.5 -63.5t-26.5 -63.5t-63.5 -26.5t-63.5 26.5t-26.5 63.5z" />
<glyph unicode="&#xfd;" horiz-adv-x="960" d="M-10 774v37h411v-37q-91 -1 -111.5 -31t13.5 -94l232 -499l174 434q23 58 28 94.5t-9.5 57.5t-41.5 28.5t-76 9.5v37h340v-37q-60 -7 -99.5 -47.5t-70.5 -116.5l-348 -868q-47 -118 -87.5 -168.5t-92.5 -50.5q-37 0 -60.5 20t-23.5 51q0 29 20 46.5t45.5 23.5t57 17.5 t47.5 27.5q40 40 70 117l61 154l-317 673q-30 65 -64.5 92.5t-97.5 28.5zM283 999l188 261q67 90 131 90q28 0 46 -17t18 -43q0 -29 -32.5 -61.5t-107.5 -83.5l-217 -146h-26z" />
<glyph unicode="&#xfe;" horiz-adv-x="1024" d="M12 -438h21q78 0 107.5 32t29.5 119v1452q0 43 -12 60.5t-54 21.5l-90 10v35l262 84h31v-698q109 81 182.5 115t135.5 34q120 0 211.5 -115t91.5 -266q0 -122 -59.5 -228t-160 -169t-214.5 -63q-77 0 -187 41v-332q0 -73 34.5 -103t102.5 -30h52v-39h-484v39zM307 164 q56 -53 120.5 -84t121.5 -31q104 0 173 91.5t69 226.5q0 152 -77.5 256t-191.5 104q-98 0 -215 -100v-463z" />
<glyph unicode="&#xff;" horiz-adv-x="960" d="M-10 774v37h411v-37q-91 -1 -111.5 -31t13.5 -94l232 -499l174 434q23 58 28 94.5t-9.5 57.5t-41.5 28.5t-76 9.5v37h340v-37q-60 -7 -99.5 -47.5t-70.5 -116.5l-348 -868q-47 -118 -87.5 -168.5t-92.5 -50.5q-37 0 -60.5 20t-23.5 51q0 29 20 46.5t45.5 23.5t57 17.5 t47.5 27.5q40 40 70 117l61 154l-317 673q-30 65 -64.5 92.5t-97.5 28.5zM193 1145q0 37 26.5 63.5t63.5 26.5t63.5 -26.5t26.5 -63.5t-26.5 -63.5t-63.5 -26.5t-63.5 26.5t-26.5 63.5zM590 1145q0 37 26.5 63.5t63.5 26.5t63.5 -26.5t26.5 -63.5t-26.5 -63.5t-63.5 -26.5 t-63.5 26.5t-26.5 63.5z" />
<glyph unicode="&#x152;" horiz-adv-x="2027" d="M117 629q0 80 21 165t73 175t129 159.5t199.5 114.5t273.5 45q47 0 191 -8q210 -6 221 -6h610l16 -285h-36q-10 68 -25 112t-35.5 64.5t-41 27.5t-50.5 7h-416v-504h352q57 0 84.5 33.5t34.5 120.5h39v-389h-39q-11 103 -40.5 132.5t-98.5 29.5h-332v-549h410 q105 0 151.5 47.5t85.5 183.5h37l-33 -305h-817q-24 0 -92.5 -2.5t-87.5 -3.5q-136 -8 -151 -8q-90 0 -180.5 27.5t-171.5 83t-144 131.5t-100 180t-37 221zM295 662q0 -177 68 -321t185 -224t257 -80q33 0 65 5.5t71 23.5t68 47t48.5 82.5t19.5 123.5v693q0 111 -77 168 t-214 57q-126 0 -221.5 -44t-153.5 -123t-87 -181.5t-29 -226.5z" />
<glyph unicode="&#x153;" horiz-adv-x="1515" d="M94 408q0 178 127.5 302t308.5 124q92 0 169 -40t124 -112q66 80 137 116t162 36q73 0 125.5 -19t82.5 -52t48.5 -66t37.5 -71.5t36 -58.5v-47h-555q-10 -198 73.5 -327.5t203.5 -129.5q52 0 104.5 34.5t136.5 111.5l21 -23q-92 -101 -178 -156t-175 -55q-144 0 -237 150 q-112 -150 -311 -150q-188 0 -314.5 124.5t-126.5 308.5zM248 457q0 -93 28 -175.5t72.5 -137.5t98.5 -87t106 -32q103 0 161 86.5t58 242.5q0 189 -78 309.5t-200 120.5q-37 0 -79 -22t-80 -61t-62.5 -103.5t-24.5 -140.5zM901 573h363q0 105 -48.5 163.5t-123.5 58.5 q-74 0 -136 -78q-45 -59 -55 -144z" />
<glyph unicode="&#x178;" horiz-adv-x="1449" d="M-4 1235v39h545v-39q-116 0 -137.5 -31.5t28.5 -101.5l328 -506l289 491q35 56 31 88.5t-36 46t-100 13.5v39h463v-39q-98 -7 -154 -45.5t-102 -116.5l-340 -575v-308q0 -83 36 -117t128 -34h26v-39h-563v39h39q92 0 128 34.5t36 112.5v289l-365 569 q-74 117 -126.5 152.5t-153.5 38.5zM438 1581q0 37 26.5 63.5t63.5 26.5t63.5 -26.5t26.5 -63.5t-26.5 -63.5t-63.5 -26.5t-63.5 26.5t-26.5 63.5zM836 1581q0 37 26.5 63.5t63.5 26.5t63.5 -26.5t26.5 -63.5t-26.5 -63.5t-63.5 -26.5t-63.5 26.5t-26.5 63.5z" />
<glyph unicode="&#x2c6;" horiz-adv-x="681" d="M94 995v35l221 369h58l217 -369v-35l-254 256z" />
<glyph unicode="&#x2dc;" horiz-adv-x="681" d="M66 1040q0 112 43.5 171t121.5 59q60 0 146 -62q4 -3 18.5 -13t19.5 -13.5t17 -11t18.5 -10.5t16 -7.5t17.5 -6t16 -1.5q85 0 94 125h22q10 -97 -39 -162.5t-118 -65.5q-25 0 -53 11t-45.5 21.5t-47.5 31.5q-29 21 -44 31t-38.5 20t-42.5 10q-85 0 -100 -127h-22z" />
<glyph unicode="&#x2000;" horiz-adv-x="917" />
<glyph unicode="&#x2001;" horiz-adv-x="1835" />
<glyph unicode="&#x2002;" horiz-adv-x="917" />
<glyph unicode="&#x2003;" horiz-adv-x="1835" />
<glyph unicode="&#x2004;" horiz-adv-x="611" />
<glyph unicode="&#x2005;" horiz-adv-x="458" />
<glyph unicode="&#x2006;" horiz-adv-x="305" />
<glyph unicode="&#x2007;" horiz-adv-x="305" />
<glyph unicode="&#x2008;" horiz-adv-x="229" />
<glyph unicode="&#x2009;" horiz-adv-x="367" />
<glyph unicode="&#x200a;" horiz-adv-x="101" />
<glyph unicode="&#x2010;" horiz-adv-x="811" d="M72 350v103h667v-103h-667z" />
<glyph unicode="&#x2011;" horiz-adv-x="811" d="M72 350v103h667v-103h-667z" />
<glyph unicode="&#x2012;" horiz-adv-x="811" d="M72 350v103h667v-103h-667z" />
<glyph unicode="&#x2013;" horiz-adv-x="1024" d="M-12 465v90h1048v-90h-1048z" />
<glyph unicode="&#x2014;" horiz-adv-x="2048" d="M-12 465v90h2072v-90h-2072z" />
<glyph unicode="&#x2018;" horiz-adv-x="532" d="M139 1051q0 95 63.5 179t164.5 122l14 -37q-158 -91 -158 -205q0 -43 29 -43q8 0 22.5 3t26.5 3q40 0 66 -26t26 -66q0 -41 -32 -70.5t-78 -29.5q-62 0 -103 48.5t-41 121.5z" />
<glyph unicode="&#x2019;" horiz-adv-x="532" d="M139 1251q0 41 32.5 71t78.5 30q62 0 102.5 -48.5t40.5 -121.5q0 -95 -63 -179t-164 -122l-14 37q157 91 157 204q0 43 -28 43q-8 0 -23 -3t-27 -3q-40 0 -66 26t-26 66z" />
<glyph unicode="&#x201a;" horiz-adv-x="532" d="M139 68q0 41 32.5 70.5t78.5 29.5q62 0 102.5 -48.5t40.5 -121.5q0 -95 -63 -179t-164 -122l-14 37q157 91 157 205q0 43 -28 43q-4 0 -12 -1t-11 -1q-20 -5 -27 -5q-40 0 -66 26.5t-26 66.5z" />
<glyph unicode="&#x201c;" horiz-adv-x="980" d="M123 1051q0 95 63 179t164 122l15 -37q-158 -91 -158 -205q0 -43 29 -43q8 0 22.5 3t26.5 3q40 0 66 -26t26 -66q0 -41 -32.5 -70.5t-78.5 -29.5q-62 0 -102.5 48.5t-40.5 121.5zM588 1051q0 95 63 179t164 122l14 -37q-157 -91 -157 -205q0 -43 28 -43q8 0 23 3t27 3 q40 0 66 -26t26 -66q0 -41 -32.5 -70.5t-78.5 -29.5q-62 0 -102.5 48.5t-40.5 121.5z" />
<glyph unicode="&#x201d;" horiz-adv-x="980" d="M139 1251q0 41 32.5 71t78.5 30q62 0 102.5 -48.5t40.5 -121.5q0 -95 -63 -179t-164 -122l-14 37q157 91 157 204q0 43 -28 43q-8 0 -23 -3t-27 -3q-40 0 -66 26t-26 66zM604 1251q0 41 32.5 71t78.5 30q62 0 102.5 -48.5t40.5 -121.5q0 -95 -63 -179t-164 -122l-15 37 q158 91 158 204q0 43 -29 43q-8 0 -22.5 -3t-26.5 -3q-40 0 -66 26t-26 66z" />
<glyph unicode="&#x201e;" horiz-adv-x="980" d="M139 68q0 41 32.5 70.5t78.5 29.5q62 0 102.5 -48.5t40.5 -121.5q0 -95 -63 -179t-164 -122l-14 37q157 91 157 205q0 43 -28 43q-4 0 -12 -1t-11 -1q-20 -5 -27 -5q-40 0 -66 26.5t-26 66.5zM604 68q0 41 32.5 70.5t78.5 29.5q62 0 102.5 -48.5t40.5 -121.5 q0 -95 -63 -179t-164 -122l-15 37q158 91 158 205q0 43 -29 43q-4 0 -11.5 -1t-10.5 -1q-20 -5 -27 -5q-40 0 -66 26.5t-26 66.5z" />
<glyph unicode="&#x2022;" horiz-adv-x="724" d="M113 639q0 104 74 177t178 73t176.5 -73t72.5 -177q0 -105 -72.5 -178.5t-176.5 -73.5t-178 74t-74 178z" />
<glyph unicode="&#x2026;" horiz-adv-x="2048" d="M238 72q0 42 29.5 69t74.5 27q44 0 74 -26.5t30 -69.5q0 -44 -30 -70.5t-74 -26.5q-45 0 -74.5 27.5t-29.5 69.5zM920 72q0 42 29.5 69t74.5 27q44 0 74 -26.5t30 -69.5q0 -44 -30 -70.5t-74 -26.5q-45 0 -74.5 27.5t-29.5 69.5zM1602 72q0 42 29.5 69t74.5 27 q44 0 74 -26.5t30 -69.5q0 -44 -30 -70.5t-74 -26.5q-45 0 -74.5 27.5t-29.5 69.5z" />
<glyph unicode="&#x202f;" horiz-adv-x="367" />
<glyph unicode="&#x2039;" horiz-adv-x="468" d="M70 449l301 376h37l-195 -376l195 -377h-37z" />
<glyph unicode="&#x203a;" horiz-adv-x="468" d="M61 72l195 377l-195 376h37l301 -376l-301 -377h-37z" />
<glyph unicode="&#x205f;" horiz-adv-x="458" />
<glyph unicode="&#x20ac;" horiz-adv-x="1024" d="M72 541l10 53h100q0 55 4 98h-114l10 53h108q20 155 85 280.5t175 202.5t246 77q53 0 103.5 -13t75 -24t77.5 -37q21 -8 33 -8l27 12h20l12 -291h-38q-7 25 -13 43t-20.5 52.5t-29.5 59.5t-40.5 55.5t-54 50t-69 33t-85.5 13.5q-143 0 -239.5 -129.5t-116.5 -376.5h625 l-11 -53h-618q0 -69 2 -98h596l-10 -53h-582q22 -216 127 -352t254 -136q154 0 321 191l31 -27q-55 -79 -111.5 -131.5t-108.5 -75.5t-89.5 -31t-79.5 -8q-66 0 -130 19t-127 63t-112.5 108t-84 162t-44.5 218h-114z" />
<glyph unicode="&#x2122;" horiz-adv-x="2004" d="M31 1155l20 201h729l23 -201h-35q-12 78 -55 109.5t-138 31.5h-71v-581q0 -82 17.5 -104.5t84.5 -26.5v-35h-375v35q48 5 67.5 15t27.5 34.5t8 81.5v581h-80q-92 0 -132.5 -30.5t-55.5 -110.5h-35zM870 549v35q74 0 94.5 23.5t20.5 107.5v467q0 91 -19.5 114t-95.5 23v37 h289l273 -574l264 574h278v-37q-72 -1 -90 -24.5t-18 -112.5v-467q0 -85 17 -105.5t91 -25.5v-35h-399v35q77 2 99 25t22 106v491h-4l-303 -657h-33l-305 649h-4v-483q0 -82 18 -106.5t78 -24.5h37v-35h-310z" />
<glyph unicode="&#xe000;" horiz-adv-x="808" d="M0 0v809h809v-809h-809z" />
</font>
</defs>
</svg>
